<svg xmlns="http://www.w3.org/2000/svg" xmlns:xlink="http://www.w3.org/1999/xlink" width="1024" zoomAndPan="magnify" viewBox="0 0 768 576" height="768" preserveAspectRatio="xMidYMid meet" version="1.0"><defs><g/></defs><g fill="#cf0101" fill-opacity="1"><g transform="translate(1.288133, 324.370807)"><g><path d="M 54.171875 1.625 C 40.054688 1.625 28.289062 -3.007812 18.875 -12.28125 C 9.457031 -21.5625 4.75 -33.304688 4.75 -47.515625 C 4.75 -61.734375 9.457031 -73.476562 18.875 -82.75 C 28.289062 -92.03125 40.054688 -96.671875 54.171875 -96.671875 C 67.660156 -96.671875 79.335938 -91.828125 89.203125 -82.140625 L 75.765625 -68.5625 C 73.140625 -71.644531 69.898438 -74.046875 66.046875 -75.765625 C 62.203125 -77.484375 58.242188 -78.34375 54.171875 -78.34375 C 45.660156 -78.34375 38.828125 -75.378906 33.671875 -69.453125 C 28.515625 -63.523438 25.9375 -56.210938 25.9375 -47.515625 C 25.9375 -38.828125 28.515625 -31.519531 33.671875 -25.59375 C 38.828125 -19.664062 45.660156 -16.703125 54.171875 -16.703125 C 63.046875 -16.703125 70.425781 -20.320312 76.3125 -27.5625 L 90.96875 -15.609375 C 81.375 -4.117188 69.109375 1.625 54.171875 1.625 Z M 54.171875 1.625 "/></g></g><g transform="translate(93.485687, 324.370807)"><g><path d="M 41.140625 -78.75 C 37.335938 -78.75 34.007812 -77.976562 31.15625 -76.4375 C 28.3125 -74.90625 26.890625 -72.375 26.890625 -68.84375 C 26.890625 -66.851562 27.789062 -65.132812 29.59375 -63.6875 C 31.40625 -62.238281 33.488281 -61.148438 35.84375 -60.421875 C 38.195312 -59.703125 41.1875 -58.929688 44.8125 -58.109375 C 45.988281 -57.929688 46.847656 -57.753906 47.390625 -57.578125 C 51.003906 -56.671875 54.054688 -55.851562 56.546875 -55.125 C 59.035156 -54.40625 61.863281 -53.25 65.03125 -51.65625 C 68.207031 -50.070312 70.742188 -48.304688 72.640625 -46.359375 C 74.546875 -44.421875 76.175781 -41.84375 77.53125 -38.625 C 78.882812 -35.414062 79.5625 -31.816406 79.5625 -27.828125 C 79.5625 -18.503906 76.078125 -11.265625 69.109375 -6.109375 C 62.140625 -0.953125 53.8125 1.625 44.125 1.625 C 36.613281 1.625 29.257812 0.335938 22.0625 -2.234375 C 14.863281 -4.816406 8.550781 -8.550781 3.125 -13.4375 L 14.53125 -28.375 C 23.394531 -20.226562 33.125 -16.15625 43.71875 -16.15625 C 53.769531 -16.15625 58.796875 -19.773438 58.796875 -27.015625 C 58.796875 -28.285156 58.566406 -29.441406 58.109375 -30.484375 C 57.660156 -31.523438 56.914062 -32.429688 55.875 -33.203125 C 54.832031 -33.972656 53.765625 -34.648438 52.671875 -35.234375 C 51.585938 -35.828125 50.140625 -36.394531 48.328125 -36.9375 C 46.523438 -37.476562 44.921875 -37.925781 43.515625 -38.28125 C 42.109375 -38.644531 40.273438 -39.097656 38.015625 -39.640625 C 35.753906 -40.191406 33.898438 -40.644531 32.453125 -41 C 29.460938 -41.820312 26.835938 -42.640625 24.578125 -43.453125 C 22.316406 -44.265625 19.960938 -45.414062 17.515625 -46.90625 C 15.066406 -48.40625 13.070312 -50.035156 11.53125 -51.796875 C 10 -53.566406 8.710938 -55.832031 7.671875 -58.59375 C 6.628906 -61.351562 6.109375 -64.40625 6.109375 -67.75 C 6.109375 -76.800781 9.523438 -83.882812 16.359375 -89 C 23.191406 -94.113281 31.316406 -96.671875 40.734375 -96.671875 C 53.410156 -96.671875 65.222656 -92.597656 76.171875 -84.453125 L 66.125 -68.84375 C 57.613281 -75.445312 49.285156 -78.75 41.140625 -78.75 Z M 41.140625 -78.75 "/></g></g><g transform="translate(176.857261, 324.370807)"><g><path d="M 23.21875 -38.421875 L 8.015625 -46.84375 L 13.578125 -95.046875 L 71.421875 -95.046875 L 71.421875 -77.265625 L 30.828125 -77.265625 L 28.515625 -58.515625 C 32.679688 -60.421875 37.390625 -61.375 42.640625 -61.375 C 53.046875 -61.375 61.550781 -58.546875 68.15625 -52.890625 C 74.769531 -47.234375 78.078125 -39.832031 78.078125 -30.6875 C 78.078125 -21.09375 74.679688 -13.304688 67.890625 -7.328125 C 61.097656 -1.359375 52 1.625 40.59375 1.625 C 25.65625 1.625 13.164062 -3.125 3.125 -12.625 L 13.84375 -27.296875 C 21.445312 -20.140625 30.003906 -16.5625 39.515625 -16.5625 C 44.941406 -16.5625 49.191406 -17.828125 52.265625 -20.359375 C 55.347656 -22.898438 56.890625 -26.207031 56.890625 -30.28125 C 56.890625 -34.445312 55.210938 -37.726562 51.859375 -40.125 C 48.515625 -42.519531 44.21875 -43.71875 38.96875 -43.71875 C 33.082031 -43.71875 27.832031 -41.953125 23.21875 -38.421875 Z M 23.21875 -38.421875 "/></g></g></g><g fill="#cf0101" fill-opacity="1"><g transform="translate(258.87098, 324.370807)"><g><path d="M 88.9375 -47.53125 C 88.9375 -32.769531 85.132812 -20.882812 77.53125 -11.875 C 69.925781 -2.875 59.785156 1.625 47.109375 1.625 C 34.441406 1.625 24.304688 -2.921875 16.703125 -12.015625 C 9.097656 -21.109375 5.296875 -32.941406 5.296875 -47.515625 C 5.296875 -62.097656 9.097656 -73.9375 16.703125 -83.03125 C 24.304688 -92.125 34.441406 -96.671875 47.109375 -96.671875 C 59.785156 -96.671875 69.925781 -92.125 77.53125 -83.03125 C 85.132812 -73.9375 88.9375 -62.101562 88.9375 -47.53125 Z M 62.3125 -24.90625 C 65.9375 -30.382812 67.75 -37.921875 67.75 -47.515625 C 67.75 -57.117188 65.9375 -64.65625 62.3125 -70.125 C 58.695312 -75.601562 53.628906 -78.34375 47.109375 -78.34375 C 40.597656 -78.34375 35.53125 -75.601562 31.90625 -70.125 C 28.289062 -64.65625 26.484375 -57.117188 26.484375 -47.515625 C 26.484375 -37.921875 28.289062 -30.382812 31.90625 -24.90625 C 35.53125 -19.4375 40.597656 -16.703125 47.109375 -16.703125 C 53.628906 -16.703125 58.695312 -19.4375 62.3125 -24.90625 Z M 62.3125 -24.90625 "/></g></g></g><g fill="#cf0101" fill-opacity="1"><g transform="translate(353.105295, 324.370807)"><g><path d="M 34.890625 -19.546875 L 21.71875 0 L 0.671875 0 L 24.578125 -34.21875 L 1.5 -66.796875 L 22.546875 -66.796875 L 34.890625 -48.34375 L 47.25 -66.796875 L 68.296875 -66.796875 L 45.21875 -34.21875 L 69.109375 0 L 48.0625 0 Z M 34.890625 -19.546875 "/></g></g></g><g fill="#000000" fill-opacity="1"><g transform="translate(454.489206, 322.065822)"><g><path d="M 10.171875 0 L 21 0 L 21 -74.082031 L 21.390625 -74.082031 L 64.558594 0 L 76.820312 0 L 76.820312 -90.382812 L 65.992188 -90.382812 L 65.992188 -20.085938 L 65.601562 -20.085938 L 24.128906 -90.382812 L 10.171875 -90.382812 Z M 10.171875 0 "/></g></g></g><g fill="#000000" fill-opacity="1"><g transform="translate(541.481122, 322.065822)"><g><path d="M 35.996094 1.304688 C 47.082031 1.304688 54.648438 -2.21875 58.691406 -5.21875 L 58.691406 -13.695312 C 52.558594 -10.5625 46.820312 -8.609375 37.824219 -8.609375 C 24.519531 -8.609375 16.695312 -14.214844 15.910156 -30.128906 L 60.648438 -30.128906 L 60.648438 -36.648438 C 60.648438 -57.648438 51.910156 -68.210938 33.519531 -68.210938 C 18 -68.210938 4.042969 -57.777344 4.042969 -34.429688 L 4.042969 -32.476562 C 4.042969 -11.738281 14.867188 1.304688 35.996094 1.304688 Z M 32.996094 -58.949219 C 43.167969 -58.949219 48.515625 -53.472656 48.515625 -39.386719 L 15.910156 -39.386719 C 16.953125 -54.777344 25.5625 -58.949219 32.996094 -58.949219 Z M 32.996094 -58.949219 "/></g></g><g transform="translate(606.170782, 322.065822)"><g><path d="M 8.214844 25.433594 L 19.695312 25.433594 L 19.695312 -3 C 23.214844 -0.914062 28.824219 1.304688 36.386719 1.304688 C 54.777344 1.304688 66.515625 -9 66.515625 -33.519531 L 66.515625 -35.34375 C 66.515625 -59.996094 53.605469 -68.210938 39.125 -68.210938 C 30.910156 -68.210938 23.867188 -65.339844 19.824219 -61.558594 L 19.171875 -61.558594 L 19.171875 -66.90625 L 8.214844 -66.90625 Z M 35.34375 -8.085938 C 28.5625 -8.085938 22.5625 -10.304688 19.695312 -12.652344 L 19.695312 -53.863281 C 22.5625 -55.953125 28.5625 -58.429688 35.996094 -58.429688 C 47.996094 -58.429688 54.648438 -52.953125 54.648438 -34.824219 L 54.648438 -31.953125 C 54.648438 -14.476562 47.472656 -8.085938 35.34375 -8.085938 Z M 35.34375 -8.085938 "/></g></g></g><g fill="#000000" fill-opacity="1"><g transform="translate(677.120738, 322.065822)"><g><path d="M 24.648438 1.304688 C 33.519531 1.304688 38.867188 -1.824219 42.125 -5.609375 L 42.910156 -5.609375 L 44.082031 0 L 53.34375 0 L 53.34375 -48.515625 C 53.34375 -61.949219 44.867188 -68.210938 29.996094 -68.210938 C 21.910156 -68.210938 15.519531 -66.90625 9.519531 -64.558594 L 9.519531 -56.34375 C 13.5625 -57.253906 18.910156 -58.300781 25.433594 -58.300781 C 37.429688 -58.300781 41.867188 -55.820312 41.867188 -45.648438 L 41.867188 -39.386719 L 24.128906 -37.171875 C 11.476562 -35.605469 3.914062 -29.34375 3.914062 -17.738281 C 3.914062 -4.824219 12.652344 1.304688 24.648438 1.304688 Z M 27.648438 -7.566406 C 20.476562 -7.566406 15.78125 -10.957031 15.78125 -18 C 15.78125 -25.300781 19.5625 -28.300781 27.128906 -29.085938 L 41.867188 -30.648438 L 41.867188 -12.128906 C 38.996094 -9.519531 33.386719 -7.566406 27.648438 -7.566406 Z M 27.648438 -7.566406 "/></g></g></g><g fill="#000000" fill-opacity="1"><g transform="translate(738.288964, 322.065822)"><g><path d="M 8.609375 0 L 20.085938 0 L 20.085938 -96.382812 L 8.609375 -96.382812 Z M 8.609375 0 "/></g></g></g></svg>