<svg xmlns="http://www.w3.org/2000/svg" xmlns:xlink="http://www.w3.org/1999/xlink" width="756" zoomAndPan="magnify" viewBox="0 0 567 567.000005" height="756" preserveAspectRatio="xMidYMid meet" version="1.0"><defs><g/><clipPath id="d9f09160a1"><path d="M 0.5 0.09375 L 566.5 0.09375 L 566.5 277.855469 L 0.5 277.855469 Z M 0.5 0.09375 " clip-rule="nonzero"/></clipPath><clipPath id="a79161f130"><path d="M 1.65625 147.691406 L 565.410156 147.691406 L 565.410156 277.960938 L 1.65625 277.960938 Z M 1.65625 147.691406 " clip-rule="nonzero"/></clipPath><clipPath id="7b13aec399"><path d="M 79.3125 312 L 159 312 L 159 400.828125 L 79.3125 400.828125 Z M 79.3125 312 " clip-rule="nonzero"/></clipPath><clipPath id="046e7ee5f1"><path d="M 324 312 L 401 312 L 401 400.828125 L 324 400.828125 Z M 324 312 " clip-rule="nonzero"/></clipPath><clipPath id="0f6834fbc7"><path d="M 167 312 L 235 312 L 235 400.828125 L 167 400.828125 Z M 167 312 " clip-rule="nonzero"/></clipPath><clipPath id="de19f246f4"><path d="M 246 313 L 311 313 L 311 400.828125 L 246 400.828125 Z M 246 313 " clip-rule="nonzero"/></clipPath><clipPath id="9c6ca79eee"><path d="M 0.5 0 L 566.5 0 L 566.5 566 L 0.5 566 Z M 0.5 0 " clip-rule="nonzero"/></clipPath><clipPath id="3c3bad886f"><path d="M 283.5 0 C 127.203125 0 0.5 126.703125 0.5 283 C 0.5 439.296875 127.203125 566 283.5 566 C 439.796875 566 566.5 439.296875 566.5 283 C 566.5 126.703125 439.796875 0 283.5 0 Z M 283.5 0 " clip-rule="nonzero"/></clipPath></defs><g clip-path="url(#d9f09160a1)"><path fill="#cf0000" d="M 0.570312 277.855469 C 3.246094 123.96875 128.847656 0.0976562 283.523438 0.0976562 C 438.027344 0.0976562 563.632812 123.96875 566.304688 277.855469 Z M 0.570312 277.855469 " fill-opacity="1" fill-rule="nonzero"/></g><g clip-path="url(#a79161f130)"><path fill="#ffffff" d="M 558.757812 261.492188 C 558.558594 261.886719 558.558594 262.199219 558.589844 262.394531 C 556.019531 261.292969 549.011719 258.046875 541.808594 251.804688 C 537.996094 248.527344 533.789062 244.035156 530.144531 238.246094 L 530.144531 238.078125 L 530.03125 238.078125 C 529.636719 237.457031 529.269531 236.804688 528.902344 236.183594 L 528.902344 233.472656 L 527.347656 230.761719 C 527.347656 230.761719 527.347656 230.703125 527.320312 230.589844 C 527.152344 229.207031 525.710938 219.097656 521.53125 213.304688 L 521.984375 210.058594 L 522.546875 209.238281 C 527.886719 227.371094 537.601562 240.449219 544.832031 248.273438 C 551.554688 255.503906 557.429688 259.65625 559.097656 260.757812 C 559.011719 260.984375 558.898438 261.210938 558.757812 261.492188 Z M 528.902344 238.078125 L 528.902344 236.609375 C 529.183594 237.089844 529.46875 237.566406 529.75 238.078125 Z M 558.699219 263.300781 L 558.503906 263.300781 L 558.503906 264.230469 C 556.976562 264.230469 556.808594 266.886719 556.808594 266.886719 L 555 268.582031 L 555 269.371094 L 554.691406 269.371094 C 549.917969 261.265625 541.1875 255.335938 541.1875 255.335938 C 538.222656 252.511719 529.328125 252.171875 529.328125 252.171875 L 529.328125 240.363281 L 530.144531 238.980469 L 530.144531 238.667969 C 533.253906 243.554688 537.148438 248.019531 541.699219 251.972656 C 549.070312 258.355469 556.242188 261.632812 558.699219 262.648438 Z M 517.152344 204.238281 L 517.039062 204.238281 L 519.46875 197.09375 L 521.925781 204.238281 L 521.785156 204.238281 L 519.46875 199.550781 Z M 511.644531 230.589844 C 511.617188 230.703125 511.617188 230.761719 511.617188 230.761719 L 510.0625 233.472656 L 510.0625 236.183594 C 509.695312 236.804688 509.328125 237.457031 508.933594 238.078125 L 508.820312 238.078125 L 508.820312 238.246094 C 508.058594 239.488281 507.238281 240.617188 506.417969 241.75 C 506.195312 241.664062 505.910156 241.550781 505.601562 241.382812 L 501.449219 239.347656 C 507.011719 231.75 512.746094 221.667969 516.417969 209.238281 L 516.953125 210.058594 L 517.433594 213.304688 C 513.226562 219.097656 511.8125 229.207031 511.644531 230.589844 Z M 510.0625 238.078125 L 509.1875 238.078125 C 509.5 237.566406 509.78125 237.089844 510.0625 236.609375 Z M 509.609375 252.171875 C 509.609375 252.171875 500.742188 252.511719 497.777344 255.335938 C 497.777344 255.335938 492.269531 259.089844 487.609375 264.65625 L 487.101562 264.65625 L 487.101562 260.984375 L 486.535156 260.984375 L 486.535156 259.542969 C 489.640625 257.792969 493.425781 255.304688 497.269531 251.972656 C 499.953125 249.628906 502.4375 247.085938 504.640625 244.402344 L 506.816406 244.402344 C 506.816406 244.402344 509.074219 244.035156 508.875 241.75 C 508.707031 239.800781 508.707031 242.285156 506.644531 241.804688 C 507.40625 240.789062 508.140625 239.714844 508.820312 238.667969 L 508.820312 238.980469 L 509.609375 240.363281 Z M 484.417969 257.113281 C 482.214844 258.894531 480.574219 260.050781 479.785156 260.589844 C 479.671875 260.277344 479.585938 259.996094 479.585938 259.742188 C 479.585938 259.742188 479.644531 259.457031 479.332031 259.457031 C 479.050781 259.457031 479.078125 259.742188 479.078125 259.742188 C 479.078125 260.136719 478.910156 260.589844 478.625 261.179688 L 474.617188 261.179688 L 474.617188 251.605469 C 474.617188 251.605469 475.660156 249.769531 479.53125 249.769531 C 483.371094 249.769531 484.417969 251.605469 484.417969 251.605469 Z M 484.417969 260.476562 C 483.9375 260.730469 483.457031 260.957031 483.03125 261.179688 L 480.039062 261.179688 C 479.980469 261.039062 479.925781 260.898438 479.867188 260.757812 C 480.601562 260.277344 482.242188 259.121094 484.417969 257.367188 Z M 484.417969 261.179688 L 483.484375 261.179688 C 483.765625 261.011719 484.078125 260.871094 484.417969 260.699219 Z M 486.535156 255.589844 C 488.765625 253.667969 491.363281 251.238281 494.105469 248.273438 C 495.207031 247.113281 496.335938 245.816406 497.492188 244.402344 L 504.359375 244.402344 C 501.957031 247.339844 499.472656 249.796875 497.125 251.804688 C 493.34375 255.109375 489.613281 257.566406 486.535156 259.316406 Z M 486.535156 250.816406 C 486.535156 250.816406 488.625 250.195312 488.625 249.261719 L 488.625 247.398438 L 488.144531 247.398438 L 488.144531 246.804688 C 488.144531 246.804688 488.511719 246.210938 489.925781 246.15625 C 491.363281 246.125 491.984375 245.503906 491.984375 244.828125 L 491.984375 244.402344 L 497.238281 244.402344 C 496.109375 245.757812 495.007812 247.003906 493.964844 248.132812 C 491.28125 251.042969 488.738281 253.414062 486.535156 255.335938 Z M 462.667969 251.605469 C 462.667969 251.605469 463.714844 249.769531 467.582031 249.769531 C 471.421875 249.769531 472.46875 251.605469 472.46875 251.605469 L 472.46875 261.179688 L 462.667969 261.179688 Z M 464.703125 217.570312 L 470.433594 217.570312 L 470.433594 221.410156 L 464.703125 221.410156 Z M 466.339844 197.628906 L 468.824219 197.628906 L 468.824219 201.472656 L 466.339844 201.472656 Z M 460.519531 261.179688 L 450.71875 261.179688 L 450.71875 251.605469 C 450.71875 251.605469 451.765625 249.769531 455.636719 249.769531 C 459.476562 249.769531 460.519531 251.605469 460.519531 251.605469 Z M 448.601562 260.984375 L 448.035156 260.984375 L 448.035156 264.65625 L 443.773438 264.65625 L 443.773438 256.832031 L 444.394531 256.351562 L 444.394531 253.695312 L 446.710938 249.742188 C 447.21875 250.390625 448.601562 250.816406 448.601562 250.816406 Z M 439.308594 266.207031 L 435.863281 266.207031 L 435.863281 262.734375 C 435.863281 262.734375 436.089844 262.734375 436.089844 262.535156 C 436.089844 262.339844 436.0625 262.027344 436.511719 262.027344 C 436.511719 262.027344 436.652344 262.027344 436.652344 261.886719 C 436.652344 261.886719 436.597656 260.984375 437.585938 260.984375 C 438.574219 260.984375 438.519531 261.886719 438.519531 261.886719 C 438.519531 262.027344 438.660156 262.027344 438.660156 262.027344 C 439.082031 262.027344 439.082031 262.339844 439.082031 262.535156 C 439.082031 262.734375 439.308594 262.734375 439.308594 262.734375 Z M 433.039062 266.207031 L 429.566406 266.207031 L 429.566406 262.734375 C 429.566406 262.734375 429.789062 262.734375 429.789062 262.535156 C 429.789062 262.339844 429.789062 262.027344 430.214844 262.027344 C 430.214844 262.027344 430.382812 262.027344 430.382812 261.886719 C 430.382812 261.886719 430.300781 260.984375 431.289062 260.984375 C 432.304688 260.984375 432.21875 261.886719 432.21875 261.886719 C 432.21875 262.027344 432.390625 262.027344 432.390625 262.027344 C 432.8125 262.027344 432.785156 262.339844 432.785156 262.535156 C 432.785156 262.734375 433.039062 262.734375 433.039062 262.734375 Z M 426.738281 266.207031 L 423.265625 266.207031 L 423.265625 262.734375 C 423.265625 262.734375 423.519531 262.734375 423.519531 262.535156 C 423.519531 262.339844 423.519531 262.027344 423.914062 262.027344 C 423.914062 262.027344 424.085938 262.027344 424.085938 261.886719 C 424.085938 261.886719 424.027344 260.984375 425.015625 260.984375 C 426.003906 260.984375 425.949219 261.886719 425.949219 261.886719 C 425.949219 262.027344 426.089844 262.027344 426.089844 262.027344 C 426.515625 262.027344 426.515625 262.339844 426.515625 262.535156 C 426.515625 262.734375 426.738281 262.734375 426.738281 262.734375 Z M 421.597656 268.636719 L 416.855469 268.636719 L 416.855469 260.050781 L 421.597656 260.050781 Z M 415.1875 266.207031 L 411.714844 266.207031 L 411.714844 262.734375 C 411.714844 262.734375 411.96875 262.734375 411.96875 262.535156 C 411.96875 262.339844 411.941406 262.027344 412.363281 262.027344 C 412.363281 262.027344 412.53125 262.027344 412.53125 261.886719 C 412.53125 261.886719 412.449219 260.984375 413.464844 260.984375 C 414.453125 260.984375 414.367188 261.886719 414.367188 261.886719 C 414.367188 262.027344 414.539062 262.027344 414.539062 262.027344 C 414.960938 262.027344 414.933594 262.339844 414.933594 262.535156 C 414.933594 262.734375 415.1875 262.734375 415.1875 262.734375 Z M 408.917969 266.207031 L 407.757812 266.207031 L 407.757812 261.152344 C 408.125 261.40625 408.097656 261.886719 408.097656 261.886719 C 408.097656 262.027344 408.238281 262.027344 408.238281 262.027344 C 408.664062 262.027344 408.664062 262.339844 408.664062 262.535156 C 408.664062 262.734375 408.917969 262.734375 408.917969 262.734375 Z M 393.296875 238.160156 L 391.40625 239.433594 L 391.40625 241.71875 L 390.980469 241.972656 L 390.757812 241.972656 C 390.390625 242.144531 390.050781 242.371094 389.765625 242.597656 L 386.828125 244.175781 C 385.417969 245.167969 385.953125 242.285156 385.277344 244.175781 C 384.597656 246.070312 386.292969 246.210938 386.292969 246.210938 L 387.929688 246.210938 C 387.875 246.523438 387.875 246.71875 387.875 246.71875 C 386.632812 247.480469 387.507812 247.933594 387.507812 247.933594 L 387.507812 250.222656 L 386.011719 250.222656 L 386.011719 256.039062 L 377.734375 256.039062 L 377.734375 245.390625 L 359.6875 245.390625 C 357.878906 244.402344 355.140625 242.820312 351.664062 240.503906 L 351.664062 238.585938 L 348.839844 238.585938 C 345.28125 236.097656 341.15625 232.992188 336.667969 229.207031 C 323.417969 218.023438 304.269531 198.421875 287.800781 168.425781 L 287.945312 168.171875 C 288.367188 168.621094 288.792969 169.101562 289.242188 169.554688 C 312.007812 199.636719 338.785156 216.441406 357.453125 225.308594 C 375.785156 234.007812 390.023438 236.945312 393.296875 237.539062 Z M 358.359375 245.390625 C 356.75 244.742188 354.460938 243.726562 351.664062 242.257812 L 351.664062 240.789062 C 354.828125 242.90625 357.398438 244.402344 359.179688 245.390625 Z M 351.664062 245.390625 L 351.664062 242.539062 C 354.121094 243.808594 356.183594 244.769531 357.738281 245.390625 Z M 345.28125 238.585938 C 342.316406 236.722656 339.011719 234.460938 335.535156 231.75 C 322.460938 221.554688 303.761719 202.574219 288.28125 169.808594 C 304.609375 199.125 323.476562 218.363281 336.554688 229.40625 C 340.902344 233.105469 344.941406 236.128906 348.417969 238.585938 Z M 327.824219 238.585938 L 327.824219 232.511719 L 323.136719 232.511719 L 323.136719 228.558594 L 321.753906 228.558594 C 321.753906 228.558594 316.019531 205.992188 295.003906 203.308594 L 295.003906 196.699219 C 295.003906 196.699219 295.851562 195.933594 295.851562 193.28125 L 294.46875 193.28125 L 287.546875 168.960938 L 287.578125 168.847656 C 294.410156 183.507812 302.433594 196.667969 311.472656 207.996094 C 318.84375 217.261719 326.894531 225.339844 335.425781 231.976562 C 338.757812 234.574219 341.921875 236.777344 344.800781 238.585938 Z M 319.578125 231.15625 L 319.070312 231.15625 L 319.070312 230.308594 L 319.578125 230.308594 Z M 316.160156 231.15625 L 315.652344 231.15625 L 315.652344 230.308594 L 316.160156 230.308594 Z M 312.742188 231.15625 L 312.234375 231.15625 L 312.234375 230.308594 L 312.742188 230.308594 Z M 309.324219 231.15625 L 308.816406 231.15625 L 308.816406 230.308594 L 309.324219 230.308594 Z M 305.90625 231.15625 L 305.398438 231.15625 L 305.398438 230.308594 L 305.90625 230.308594 Z M 302.488281 231.15625 L 301.980469 231.15625 L 301.980469 230.308594 L 302.488281 230.308594 Z M 299.074219 231.15625 L 298.5625 231.15625 L 298.5625 230.308594 L 299.074219 230.308594 Z M 295.65625 231.15625 L 295.144531 231.15625 L 295.144531 230.308594 L 295.65625 230.308594 Z M 292.265625 231.15625 L 291.730469 231.15625 L 291.730469 230.308594 L 292.265625 230.308594 Z M 288.847656 231.15625 L 288.339844 231.15625 L 288.339844 230.308594 L 288.847656 230.308594 Z M 286.332031 155.515625 L 286.136719 155.515625 L 285.683594 150.375 L 285.769531 150.375 C 285.882812 151.503906 286.390625 154.667969 288.820312 159.1875 L 287.492188 159.1875 Z M 359.546875 223.023438 C 376.011719 231.636719 388.496094 235.761719 392.5625 237.03125 C 388.214844 236.15625 374.683594 233.105469 357.597656 224.972656 C 339.519531 216.382812 313.871094 200.339844 291.617188 172.039062 C 316.414062 197.714844 342.003906 213.84375 359.546875 223.023438 Z M 285.429688 231.15625 L 284.921875 231.15625 L 284.921875 230.308594 L 285.429688 230.308594 Z M 284.214844 155.515625 L 283.988281 155.515625 L 282.832031 159.1875 L 281.53125 159.1875 C 283.933594 154.667969 284.46875 151.503906 284.554688 150.375 L 284.640625 150.375 Z M 275.855469 193.28125 L 274.472656 193.28125 C 274.472656 195.933594 275.316406 196.699219 275.316406 196.699219 L 275.316406 203.308594 C 254.332031 205.992188 248.597656 228.558594 248.597656 228.558594 L 247.1875 228.558594 L 247.1875 232.511719 L 242.496094 232.511719 L 242.496094 238.585938 L 225.523438 238.585938 C 228.402344 236.777344 231.566406 234.574219 234.929688 231.976562 C 243.429688 225.339844 251.480469 217.261719 258.851562 207.996094 C 267.890625 196.667969 275.910156 183.507812 282.746094 168.847656 L 282.804688 168.960938 Z M 282.011719 231.15625 L 281.503906 231.15625 L 281.503906 230.308594 L 282.011719 230.308594 Z M 278.59375 231.15625 L 278.085938 231.15625 L 278.085938 230.308594 L 278.59375 230.308594 Z M 275.175781 231.15625 L 274.667969 231.15625 L 274.667969 230.308594 L 275.175781 230.308594 Z M 271.757812 231.15625 L 271.25 231.15625 L 271.25 230.308594 L 271.757812 230.308594 Z M 268.34375 231.15625 L 267.832031 231.15625 L 267.832031 230.308594 L 268.34375 230.308594 Z M 264.925781 231.15625 L 264.414062 231.15625 L 264.414062 230.308594 L 264.925781 230.308594 Z M 261.507812 231.15625 L 261 231.15625 L 261 230.308594 L 261.507812 230.308594 Z M 258.089844 231.15625 L 257.609375 231.15625 L 257.609375 230.308594 L 258.089844 230.308594 Z M 254.671875 231.15625 L 254.164062 231.15625 L 254.164062 230.308594 L 254.671875 230.308594 Z M 251.28125 231.15625 L 250.773438 231.15625 L 250.773438 230.308594 L 251.28125 230.308594 Z M 221.90625 238.585938 C 225.410156 236.128906 229.421875 233.105469 233.796875 229.40625 C 246.875 218.363281 265.714844 199.125 282.039062 169.808594 C 266.5625 202.574219 247.863281 221.554688 234.785156 231.75 C 231.3125 234.460938 228.035156 236.722656 225.070312 238.585938 Z M 218.6875 238.585938 L 218.6875 240.503906 C 215.210938 242.820312 212.445312 244.402344 210.664062 245.390625 L 192.589844 245.390625 L 192.589844 256.039062 L 184.3125 256.039062 L 184.3125 250.222656 L 183.15625 250.222656 L 184.738281 249.0625 L 189.960938 249.0625 L 189.960938 248.132812 L 181.96875 244.6875 C 181.574219 243.667969 180.867188 242.566406 179.566406 241.972656 L 178.917969 241.972656 L 178.917969 239.433594 L 177.027344 238.160156 L 177.027344 237.539062 C 180.332031 236.945312 194.539062 234.007812 212.867188 225.308594 C 231.539062 216.441406 258.316406 199.636719 281.109375 169.554688 C 281.53125 169.101562 281.984375 168.621094 282.40625 168.171875 L 282.550781 168.425781 C 266.082031 198.421875 246.902344 218.023438 233.65625 229.207031 C 229.164062 232.992188 225.042969 236.097656 221.484375 238.585938 Z M 218.6875 242.257812 C 215.863281 243.726562 213.574219 244.742188 211.964844 245.390625 L 211.171875 245.390625 C 212.925781 244.402344 215.496094 242.90625 218.6875 240.789062 Z M 218.6875 245.390625 L 212.613281 245.390625 C 214.167969 244.769531 216.203125 243.808594 218.6875 242.539062 Z M 210.777344 223.023438 C 228.320312 213.84375 253.9375 197.714844 278.734375 172.039062 C 256.449219 200.339844 230.804688 216.382812 212.753906 224.972656 C 195.667969 233.105469 182.136719 236.15625 177.761719 237.03125 C 181.828125 235.761719 194.3125 231.636719 210.777344 223.023438 Z M 167.535156 234.660156 L 165.21875 234.660156 L 165.21875 231.609375 L 167.535156 231.609375 Z M 165.246094 253.894531 L 161.039062 253.894531 L 161.039062 249.882812 L 165.246094 249.882812 Z M 158.300781 205.085938 L 158.300781 204.71875 C 158.300781 204.71875 158.382812 204.664062 158.441406 204.464844 C 158.523438 204.859375 158.523438 205.085938 158.523438 205.085938 Z M 157.933594 203.109375 L 157.902344 202.828125 C 158.074219 203.164062 158.1875 203.503906 158.269531 203.84375 C 158.128906 203.675781 157.933594 203.476562 157.933594 203.109375 Z M 157.988281 253.894531 L 153.78125 253.894531 L 153.78125 249.882812 L 157.988281 249.882812 Z M 157.453125 266.238281 L 154.34375 266.238281 L 154.34375 260.757812 L 157.453125 260.757812 Z M 153.863281 202.828125 L 153.835938 203.109375 C 153.835938 203.476562 153.667969 203.644531 153.496094 203.816406 C 153.609375 203.503906 153.722656 203.164062 153.863281 202.828125 Z M 153.46875 205.085938 L 153.242188 205.085938 C 153.242188 205.085938 153.269531 204.859375 153.355469 204.464844 C 153.382812 204.664062 153.46875 204.71875 153.46875 204.71875 Z M 155.078125 216.835938 L 155.078125 213.957031 L 156.6875 213.957031 L 156.6875 216.835938 Z M 156.886719 231.382812 L 156.886719 234.886719 L 154.910156 234.886719 L 154.910156 231.382812 Z M 155.898438 200.878906 C 156.746094 201.074219 157.339844 201.726562 157.761719 202.488281 L 157.675781 203.109375 C 157.675781 203.757812 157.140625 203.816406 157.140625 204.210938 C 157.140625 204.605469 157.308594 204.71875 157.308594 204.71875 L 157.308594 205.085938 L 156.433594 205.085938 L 156.433594 204.691406 C 156.433594 204.691406 156.605469 204.550781 156.605469 204.125 C 156.605469 203.703125 156.039062 203.617188 156.039062 202.910156 L 155.898438 201.726562 L 155.730469 202.910156 C 155.730469 203.617188 155.164062 203.703125 155.164062 204.125 C 155.164062 204.550781 155.363281 204.691406 155.363281 204.691406 L 155.363281 205.085938 L 154.457031 205.085938 L 154.457031 204.71875 C 154.457031 204.71875 154.628906 204.605469 154.628906 204.210938 C 154.628906 203.816406 154.117188 203.757812 154.117188 203.109375 L 154.035156 202.488281 C 154.429688 201.726562 155.023438 201.074219 155.898438 200.878906 Z M 150.730469 253.894531 L 146.519531 253.894531 L 146.519531 249.882812 L 150.730469 249.882812 Z M 145.164062 266.238281 L 142.058594 266.238281 L 142.058594 260.757812 L 145.164062 260.757812 Z M 144.261719 231.609375 L 146.550781 231.609375 L 146.550781 234.660156 L 144.261719 234.660156 Z M 135.703125 266.773438 L 134.996094 266.773438 L 134.996094 265.53125 L 133.613281 265.53125 L 133.613281 263.78125 L 132.230469 263.78125 L 132.230469 262 L 130.84375 262 L 130.84375 260.25 L 129.261719 260.25 L 129.261719 258.496094 L 124.660156 258.496094 L 124.660156 249.0625 L 127.03125 249.0625 L 135.703125 255.304688 Z M 118.558594 175.230469 L 118.558594 177.660156 L 117.003906 177.660156 L 117.003906 175.230469 C 117.003906 175.230469 116.921875 174.242188 117.765625 174.242188 C 118.644531 174.242188 118.558594 175.230469 118.558594 175.230469 Z M 117.765625 184.976562 C 117.457031 184.976562 117.203125 184.722656 117.203125 184.410156 C 117.203125 184.070312 117.457031 183.816406 117.765625 183.816406 C 118.078125 183.816406 118.359375 184.070312 118.359375 184.410156 C 118.359375 184.722656 118.078125 184.976562 117.765625 184.976562 Z M 117.765625 193.28125 C 117.457031 193.28125 117.203125 193.027344 117.203125 192.714844 C 117.203125 192.375 117.457031 192.121094 117.765625 192.121094 C 118.078125 192.121094 118.359375 192.375 118.359375 192.714844 C 118.359375 193.027344 118.078125 193.28125 117.765625 193.28125 Z M 117.765625 201.585938 C 117.457031 201.585938 117.203125 201.328125 117.203125 200.992188 C 117.203125 200.707031 117.457031 200.425781 117.765625 200.425781 C 118.078125 200.425781 118.359375 200.707031 118.359375 200.992188 C 118.359375 201.328125 118.078125 201.585938 117.765625 201.585938 Z M 117.765625 210.453125 C 117.457031 210.453125 117.203125 210.199219 117.203125 209.886719 C 117.203125 209.578125 117.457031 209.324219 117.765625 209.324219 C 118.078125 209.324219 118.359375 209.578125 118.359375 209.886719 C 118.359375 210.199219 118.078125 210.453125 117.765625 210.453125 Z M 117.765625 220.59375 C 117.457031 220.59375 117.203125 220.339844 117.203125 220.027344 C 117.203125 219.6875 117.457031 219.433594 117.765625 219.433594 C 118.078125 219.433594 118.359375 219.6875 118.359375 220.027344 C 118.359375 220.339844 118.078125 220.59375 117.765625 220.59375 Z M 117.765625 230.5625 C 117.457031 230.5625 117.203125 230.308594 117.203125 230 C 117.203125 229.660156 117.457031 229.40625 117.765625 229.40625 C 118.078125 229.40625 118.359375 229.660156 118.359375 230 C 118.359375 230.308594 118.078125 230.5625 117.765625 230.5625 Z M 117.765625 242.085938 C 117.457031 242.085938 117.203125 241.832031 117.203125 241.523438 C 117.203125 241.210938 117.457031 240.957031 117.765625 240.957031 C 118.078125 240.957031 118.359375 241.210938 118.359375 241.523438 C 118.359375 241.832031 118.078125 242.085938 117.765625 242.085938 Z M 117.765625 253.414062 C 117.457031 253.414062 117.203125 253.160156 117.203125 252.847656 C 117.203125 252.511719 117.457031 252.253906 117.765625 252.253906 C 118.078125 252.253906 118.359375 252.511719 118.359375 252.847656 C 118.359375 253.160156 118.078125 253.414062 117.765625 253.414062 Z M 18.996094 245.023438 L 18.996094 243.613281 L 18.117188 243.613281 C 18.117188 243.613281 18.964844 243.273438 18.796875 242.3125 L 17.300781 234.179688 L 17.554688 234.179688 L 19.363281 243.160156 C 19.503906 243.808594 20.011719 244.574219 20.632812 245.109375 C 20.066406 245.023438 19.53125 244.996094 18.996094 245.023438 Z M 15.492188 243.613281 L 14.644531 243.613281 L 14.644531 245.023438 C 14.109375 244.996094 13.542969 245.023438 12.976562 245.109375 C 13.628906 244.574219 14.109375 243.808594 14.25 243.160156 L 16.085938 234.179688 L 16.3125 234.179688 L 14.84375 242.3125 C 14.644531 243.273438 15.492188 243.613281 15.492188 243.613281 Z M 453.347656 221.042969 L 449.027344 217.824219 L 453.347656 217.824219 Z M 460.71875 199.550781 L 457.867188 197.066406 L 460.71875 197.066406 Z M 474.445312 197.066406 L 477.269531 197.066406 L 474.445312 199.550781 Z M 481.789062 217.824219 L 486.109375 217.824219 L 481.789062 221.042969 Z M 593.726562 276.152344 C 593.726562 276.152344 591.296875 275.980469 586.75 275.671875 C 582.230469 275.417969 575.5625 274.9375 567.089844 274.542969 C 567.0625 274.511719 567.035156 274.511719 567.003906 274.511719 L 567.003906 273.441406 L 566.128906 273.441406 L 566.128906 272.648438 L 565.566406 272.082031 L 565.566406 270.246094 L 565.789062 269.964844 L 565.789062 269.371094 L 564.238281 269.371094 L 564.238281 268.582031 L 562.429688 266.886719 C 562.429688 266.886719 562.261719 264.230469 560.734375 264.230469 L 560.734375 263.300781 L 560.535156 263.300781 L 560.535156 262.648438 C 560.535156 262.648438 560.847656 262.253906 560.480469 261.492188 C 560.085938 260.730469 559.886719 260.191406 559.886719 259.742188 C 559.886719 259.742188 559.914062 259.457031 559.605469 259.457031 C 559.324219 259.457031 559.351562 259.742188 559.351562 259.742188 C 559.351562 259.996094 559.292969 260.277344 559.179688 260.589844 C 557.457031 259.457031 551.640625 255.304688 544.972656 248.132812 C 537.742188 240.308594 528.027344 227.203125 522.6875 209.011719 L 523.167969 208.304688 L 523.167969 205.820312 L 522.886719 205.820312 L 522.886719 204.238281 L 522.320312 204.238281 L 519.667969 196.445312 L 519.667969 196.414062 C 519.667969 196.414062 519.667969 196.414062 519.667969 196.386719 C 519.636719 196.386719 519.636719 196.386719 519.636719 196.359375 C 519.636719 196.359375 519.609375 196.332031 519.582031 196.332031 C 519.582031 196.332031 519.582031 196.300781 519.554688 196.300781 C 519.554688 196.300781 519.554688 196.300781 519.523438 196.300781 C 519.523438 196.300781 519.496094 196.273438 519.46875 196.273438 C 519.46875 196.273438 519.441406 196.300781 519.414062 196.300781 C 519.414062 196.300781 519.414062 196.300781 519.382812 196.300781 C 519.382812 196.300781 519.382812 196.332031 519.355469 196.332031 C 519.355469 196.332031 519.328125 196.359375 519.328125 196.359375 C 519.328125 196.386719 519.328125 196.386719 519.300781 196.386719 C 519.300781 196.414062 519.300781 196.414062 519.300781 196.445312 L 516.617188 204.238281 L 516.078125 204.238281 L 516.078125 205.820312 L 515.769531 205.820312 L 515.769531 208.304688 L 516.25 209.011719 C 512.605469 221.523438 506.84375 231.636719 501.277344 239.261719 L 481.421875 229.601562 L 481.421875 228.867188 L 480.859375 228.867188 L 480.859375 226.214844 L 482.15625 224.800781 L 482.15625 223.023438 L 489.699219 217.882812 L 495.402344 217.007812 C 495.402344 217.007812 497.464844 216.382812 496.757812 214.832031 C 496.023438 213.25 496.957031 216.046875 494.246094 214.832031 L 473.910156 207.628906 L 473.910156 206.695312 L 473.597656 206.695312 L 473.597656 205.144531 L 474.8125 203.53125 L 474.8125 202.429688 L 474.332031 202.429688 L 474.332031 201.695312 L 479.277344 197.121094 L 483.117188 197.121094 C 483.117188 197.121094 485.039062 197.035156 484.078125 194.890625 C 483.117188 192.742188 484.445312 196.273438 481 195.003906 L 471.113281 192.320312 C 471.113281 192.320312 470.71875 191.699219 470.179688 191.445312 C 469.617188 191.191406 469.050781 190.425781 468.9375 189.722656 C 468.796875 189.015625 468.9375 188.109375 468.628906 187.855469 C 468.316406 187.601562 468.230469 187.40625 468.429688 187.207031 C 468.628906 187.039062 468.597656 186.867188 468.34375 186.640625 C 468.089844 186.359375 468.542969 186.191406 468.261719 185.878906 C 467.976562 185.597656 468.175781 185.484375 467.921875 185.230469 C 467.640625 184.949219 467.949219 184.496094 467.582031 184.496094 C 467.1875 184.496094 467.496094 184.949219 467.242188 185.230469 C 466.960938 185.484375 467.1875 185.597656 466.875 185.878906 C 466.59375 186.191406 467.074219 186.359375 466.792969 186.640625 C 466.539062 186.867188 466.507812 187.039062 466.707031 187.207031 C 466.90625 187.40625 466.847656 187.601562 466.507812 187.855469 C 466.199219 188.109375 466.339844 189.015625 466.226562 189.722656 C 466.085938 190.425781 465.519531 191.191406 464.984375 191.445312 C 464.417969 191.699219 464.023438 192.320312 464.023438 192.320312 L 454.136719 195.003906 C 450.691406 196.273438 452.019531 192.742188 451.085938 194.890625 C 450.128906 197.035156 452.019531 197.121094 452.019531 197.121094 L 455.859375 197.121094 L 460.804688 201.695312 L 460.804688 202.429688 L 460.324219 202.429688 L 460.324219 203.53125 L 461.539062 205.144531 L 461.539062 206.695312 L 461.226562 206.695312 L 461.226562 207.628906 L 440.890625 214.832031 C 438.207031 216.046875 439.113281 213.25 438.378906 214.832031 C 437.671875 216.382812 439.734375 217.007812 439.734375 217.007812 L 445.4375 217.882812 L 452.980469 223.023438 L 452.980469 224.800781 L 454.308594 226.214844 L 454.308594 228.867188 L 453.714844 228.867188 L 453.714844 229.601562 L 438.40625 237.058594 L 428.71875 231.835938 L 428.71875 230 L 430.554688 229.40625 L 430.554688 228.359375 L 436.117188 222.910156 L 438.886719 222.910156 L 438.886719 221.328125 C 438.886719 221.328125 440.269531 221.101562 439.5625 219.832031 C 438.855469 218.558594 439.675781 220.847656 437.8125 219.632812 L 424.28125 212.769531 L 424.28125 212.089844 L 423.605469 212.089844 L 423.605469 211.046875 L 423.324219 211.046875 L 423.324219 210.480469 C 423.324219 210.480469 423.660156 210.480469 423.660156 209.945312 C 423.660156 209.4375 423.152344 209.40625 423.152344 208.730469 C 423.152344 208.082031 423.125 207.9375 423.039062 207.828125 C 423.039062 207.828125 423.039062 207.828125 423.011719 207.796875 L 422.984375 202.320312 C 422.984375 202.289062 422.957031 202.261719 422.925781 202.261719 C 422.898438 202.261719 422.871094 202.289062 422.871094 202.320312 L 422.84375 207.796875 C 422.8125 207.828125 422.8125 207.828125 422.8125 207.828125 C 422.699219 207.9375 422.671875 208.082031 422.671875 208.730469 C 422.671875 209.40625 422.191406 209.4375 422.191406 209.945312 C 422.191406 210.480469 422.53125 210.480469 422.53125 210.480469 L 422.53125 211.046875 L 421.996094 211.046875 L 421.996094 209.519531 C 421.996094 209.519531 422.476562 209.351562 421.855469 208.417969 C 421.230469 207.515625 420.46875 206.921875 420.46875 205.59375 C 420.46875 204.296875 419.792969 205.171875 419.792969 204.410156 C 419.792969 204.410156 420.273438 204.4375 420.273438 203.984375 C 420.273438 203.5625 419.679688 203.984375 419.679688 203.449219 C 419.679688 202.910156 420.1875 203.136719 420.1875 202.542969 C 420.1875 201.921875 419.539062 202.402344 419.539062 202.035156 L 419.539062 201.78125 L 419.621094 201.78125 C 419.734375 201.78125 419.820312 201.695312 419.820312 201.585938 C 419.820312 201.472656 419.734375 201.386719 419.621094 201.386719 L 419.539062 201.386719 L 419.539062 201.074219 L 419.621094 201.074219 C 419.734375 201.074219 419.820312 200.992188 419.820312 200.878906 C 419.820312 200.765625 419.734375 200.679688 419.621094 200.679688 L 419.539062 200.679688 C 419.539062 200.652344 419.539062 200.511719 419.425781 200.511719 C 419.394531 200.511719 419.339844 200.511719 419.339844 200.398438 L 419.339844 200.257812 C 419.480469 200.226562 419.59375 200.085938 419.59375 199.945312 C 419.59375 199.777344 419.480469 199.636719 419.339844 199.605469 L 419.339844 197.855469 C 420.101562 197.828125 419.820312 197.574219 419.652344 197.402344 C 419.453125 197.234375 419.480469 196.472656 419.480469 196.160156 C 419.480469 195.964844 419.394531 195.878906 419.339844 195.851562 L 419.339844 195.738281 C 419.339844 195.738281 419.339844 195.652344 419.226562 195.652344 C 419.113281 195.652344 419.113281 195.738281 419.113281 195.738281 L 419.113281 195.851562 C 419.058594 195.878906 419 195.964844 419 196.160156 C 419 196.472656 419 197.234375 418.832031 197.402344 C 418.632812 197.574219 418.351562 197.828125 419.113281 197.855469 L 419.113281 199.605469 C 418.972656 199.636719 418.886719 199.777344 418.886719 199.945312 C 418.886719 200.085938 418.972656 200.226562 419.113281 200.257812 L 419.113281 200.398438 C 419.113281 200.511719 419.058594 200.511719 419.058594 200.511719 C 418.945312 200.511719 418.917969 200.652344 418.917969 200.679688 L 418.832031 200.679688 C 418.746094 200.679688 418.632812 200.765625 418.632812 200.878906 C 418.632812 200.992188 418.746094 201.074219 418.832031 201.074219 L 418.917969 201.074219 L 418.917969 201.386719 L 418.832031 201.386719 C 418.746094 201.386719 418.632812 201.472656 418.632812 201.585938 C 418.632812 201.695312 418.746094 201.78125 418.832031 201.78125 L 418.917969 201.78125 L 418.917969 202.035156 C 418.917969 202.402344 418.292969 201.921875 418.292969 202.542969 C 418.292969 203.136719 418.804688 202.910156 418.804688 203.449219 C 418.804688 203.984375 418.183594 203.5625 418.183594 203.984375 C 418.183594 204.4375 418.691406 204.410156 418.691406 204.410156 C 418.691406 205.171875 417.984375 204.296875 417.984375 205.59375 C 417.984375 206.921875 417.25 207.515625 416.628906 208.417969 C 415.980469 209.351562 416.457031 209.519531 416.457031 209.519531 L 416.457031 211.046875 L 415.921875 211.046875 L 415.921875 210.480469 C 415.921875 210.480469 416.289062 210.480469 416.289062 209.945312 C 416.289062 209.4375 415.78125 209.40625 415.78125 208.730469 C 415.78125 208.082031 415.753906 207.9375 415.667969 207.828125 C 415.667969 207.828125 415.640625 207.828125 415.640625 207.796875 L 415.582031 202.320312 C 415.582031 202.289062 415.582031 202.261719 415.527344 202.261719 C 415.527344 202.261719 415.5 202.289062 415.5 202.320312 L 415.441406 207.796875 C 415.441406 207.828125 415.441406 207.828125 415.441406 207.828125 C 415.328125 207.9375 415.300781 208.082031 415.300781 208.730469 C 415.300781 209.40625 414.820312 209.4375 414.820312 209.945312 C 414.820312 210.480469 415.160156 210.480469 415.160156 210.480469 L 415.160156 211.046875 L 414.878906 211.046875 L 414.878906 212.089844 L 414.199219 212.089844 L 414.199219 212.769531 L 400.671875 219.632812 C 398.804688 220.847656 399.625 218.558594 398.917969 219.832031 C 398.210938 221.101562 399.597656 221.328125 399.597656 221.328125 L 399.597656 222.910156 L 402.335938 222.910156 L 407.929688 228.359375 L 407.929688 229.40625 L 409.765625 230 L 409.765625 231.835938 L 396.207031 239.121094 L 394.765625 238.160156 L 394.765625 237.144531 C 394.765625 237.144531 394.765625 236.636719 394.03125 236.324219 C 393.636719 236.496094 393.46875 236.722656 393.382812 236.863281 C 390.277344 235.957031 377.28125 231.863281 359.6875 222.683594 C 341.609375 213.25 314.972656 196.386719 289.496094 169.300781 C 289.046875 168.734375 288.621094 168.171875 288.199219 167.605469 L 289.300781 165.34375 L 289.835938 165.34375 L 289.835938 159.1875 L 289.214844 159.1875 C 286.785156 154.726562 286.222656 151.535156 286.109375 150.375 L 286.109375 149.640625 L 285.65625 149.640625 L 285.65625 148.089844 C 285.65625 148.089844 285.710938 147.691406 285.175781 147.691406 C 284.640625 147.691406 284.695312 148.089844 284.695312 148.089844 L 284.695312 149.640625 L 284.242188 149.640625 L 284.242188 150.375 C 284.101562 151.535156 283.566406 154.726562 281.136719 159.1875 L 280.515625 159.1875 L 280.515625 165.34375 L 281.023438 165.34375 L 282.125 167.605469 C 281.703125 168.171875 281.277344 168.734375 280.855469 169.300781 C 255.347656 196.386719 228.714844 213.25 210.664062 222.683594 C 193.070312 231.863281 180.046875 235.957031 176.96875 236.863281 C 176.882812 236.722656 176.6875 236.496094 176.292969 236.324219 C 175.558594 236.636719 175.558594 237.144531 175.558594 237.144531 L 175.558594 238.160156 L 173.664062 239.433594 L 173.664062 241.097656 L 170.953125 239.941406 L 170.953125 236.410156 L 177.335938 228.953125 L 180.5 228.953125 L 181.066406 228.21875 L 165.21875 221.523438 L 165.21875 219.238281 L 170.953125 212.175781 L 173.609375 212.175781 C 173.609375 212.175781 174.851562 212.089844 174.425781 210.3125 C 174.425781 210.3125 173.890625 211.074219 172.027344 210.3125 L 161.039062 206.359375 L 161.039062 205.085938 L 160.105469 205.085938 L 160.105469 204.746094 C 160.105469 204.746094 160.246094 204.632812 160.246094 204.265625 C 160.246094 203.898438 159.769531 203.84375 159.769531 203.25 L 159.625 202.207031 L 159.511719 203.25 C 159.511719 203.84375 159.003906 203.898438 159.003906 204.265625 C 159.003906 204.632812 159.175781 204.746094 159.175781 204.746094 L 159.175781 205.085938 L 158.777344 205.085938 C 158.777344 205.085938 159.003906 202.65625 157.960938 201.472656 C 156.941406 200.285156 157 200.144531 156.71875 199.269531 C 156.40625 198.363281 155.984375 196.667969 155.984375 196.667969 C 155.984375 196.667969 155.953125 196.527344 155.898438 196.5 C 155.8125 196.527344 155.785156 196.667969 155.785156 196.667969 C 155.785156 196.667969 155.363281 198.363281 155.078125 199.269531 C 154.769531 200.144531 154.824219 200.285156 153.808594 201.472656 C 152.792969 202.65625 153.015625 205.085938 153.015625 205.085938 L 152.621094 205.085938 L 152.621094 204.746094 C 152.621094 204.746094 152.761719 204.632812 152.761719 204.265625 C 152.761719 203.898438 152.28125 203.84375 152.28125 203.25 L 152.140625 202.207031 L 152.027344 203.25 C 152.027344 203.84375 151.546875 203.898438 151.546875 204.265625 C 151.546875 204.632812 151.691406 204.746094 151.691406 204.746094 L 151.691406 205.085938 L 150.730469 205.085938 L 150.730469 206.359375 L 139.769531 210.3125 C 137.878906 211.074219 137.339844 210.3125 137.339844 210.3125 C 136.945312 212.089844 138.1875 212.175781 138.1875 212.175781 L 140.816406 212.175781 L 146.550781 219.238281 L 146.550781 221.523438 L 130.703125 228.21875 L 131.269531 228.953125 L 134.433594 228.953125 L 140.816406 236.410156 L 140.816406 239.941406 L 125 246.746094 L 125 246.351562 L 124.347656 246.351562 L 124.347656 235.5625 L 124.660156 235.5625 L 124.660156 234.773438 L 123.585938 234.773438 L 123.585938 225.195312 L 123.867188 225.195312 L 123.867188 224.519531 L 123.246094 224.519531 L 123.246094 215.507812 L 123.5 215.507812 L 123.5 214.859375 L 122.992188 214.859375 L 122.992188 206.273438 L 123.246094 206.273438 L 123.246094 205.652344 L 122.851562 205.652344 L 122.851562 197.320312 L 123.078125 197.320312 L 123.078125 196.726562 L 122.652344 196.726562 L 122.652344 188.675781 L 122.90625 188.675781 L 122.90625 188.109375 L 122.457031 188.109375 L 122.457031 180.429688 L 122.652344 180.429688 L 122.652344 179.863281 L 122.0625 179.863281 L 122.0625 172.832031 L 122.257812 172.832031 L 122.257812 172.320312 L 121.863281 172.320312 C 121.863281 172.320312 122.878906 170.117188 121.214844 168.507812 C 119.546875 166.898438 118.839844 167.265625 118.558594 166.164062 C 118.558594 166.164062 118.558594 165.996094 118.332031 165.882812 C 118.332031 165.824219 118.332031 165.796875 118.332031 165.769531 C 118.332031 165.488281 118.191406 165.234375 117.992188 165.121094 C 118.191406 165.035156 118.304688 164.835938 118.304688 164.640625 C 118.304688 164.414062 118.164062 164.214844 117.992188 164.132812 C 118.132812 164.074219 118.246094 163.90625 118.246094 163.734375 C 118.246094 163.507812 118.105469 163.339844 117.878906 163.285156 C 118.050781 163.226562 118.132812 163.085938 118.132812 162.917969 C 118.132812 162.773438 118.050781 162.632812 117.910156 162.578125 C 118.023438 162.519531 118.078125 162.40625 118.078125 162.296875 C 118.078125 162.152344 118.023438 162.039062 117.878906 162.011719 C 117.992188 161.957031 118.050781 161.871094 118.050781 161.757812 C 118.050781 161.671875 117.992188 161.589844 117.878906 161.53125 C 117.964844 161.503906 118.023438 161.417969 118.023438 161.335938 C 118.023438 161.25 117.964844 161.164062 117.878906 161.136719 C 117.9375 161.109375 117.964844 161.023438 117.964844 160.96875 C 117.964844 160.882812 117.9375 160.828125 117.851562 160.796875 C 117.910156 160.769531 117.964844 160.683594 117.964844 160.628906 C 117.964844 160.570312 117.9375 160.542969 117.910156 160.515625 C 117.964844 160.488281 117.992188 160.460938 117.992188 160.402344 C 117.992188 160.347656 117.9375 160.316406 117.878906 160.289062 C 117.9375 160.261719 117.964844 160.203125 117.964844 160.148438 C 117.964844 160.0625 117.878906 159.980469 117.765625 159.980469 C 117.683594 159.980469 117.597656 160.0625 117.597656 160.148438 C 117.597656 160.203125 117.625 160.261719 117.65625 160.289062 C 117.597656 160.316406 117.570312 160.347656 117.570312 160.402344 C 117.570312 160.460938 117.597656 160.488281 117.65625 160.515625 C 117.625 160.542969 117.597656 160.570312 117.597656 160.628906 C 117.597656 160.683594 117.625 160.769531 117.683594 160.796875 C 117.625 160.828125 117.570312 160.882812 117.570312 160.96875 C 117.570312 161.023438 117.597656 161.109375 117.65625 161.136719 C 117.597656 161.164062 117.542969 161.25 117.542969 161.335938 C 117.542969 161.417969 117.597656 161.503906 117.65625 161.53125 C 117.570312 161.589844 117.511719 161.671875 117.511719 161.757812 C 117.511719 161.871094 117.570312 161.957031 117.65625 162.011719 C 117.542969 162.039062 117.457031 162.152344 117.457031 162.296875 C 117.457031 162.40625 117.542969 162.519531 117.65625 162.578125 C 117.511719 162.632812 117.398438 162.773438 117.398438 162.917969 C 117.398438 163.085938 117.511719 163.226562 117.65625 163.285156 C 117.457031 163.339844 117.316406 163.507812 117.316406 163.734375 C 117.316406 163.90625 117.429688 164.074219 117.570312 164.132812 C 117.371094 164.214844 117.230469 164.414062 117.230469 164.640625 C 117.230469 164.835938 117.371094 165.035156 117.542969 165.121094 C 117.34375 165.234375 117.230469 165.488281 117.230469 165.769531 C 117.230469 165.796875 117.230469 165.824219 117.230469 165.882812 C 117.003906 165.996094 116.976562 166.164062 116.976562 166.164062 C 116.695312 167.265625 115.988281 166.898438 114.320312 168.507812 C 112.683594 170.117188 113.671875 172.320312 113.671875 172.320312 L 113.277344 172.320312 L 113.277344 172.832031 L 113.503906 172.832031 L 113.503906 179.863281 L 112.882812 179.863281 L 112.882812 180.429688 L 113.105469 180.429688 L 113.105469 188.109375 L 112.65625 188.109375 L 112.65625 188.675781 L 112.882812 188.675781 L 112.882812 196.726562 L 112.457031 196.726562 L 112.457031 197.320312 L 112.710938 197.320312 L 112.710938 205.652344 L 112.289062 205.652344 L 112.289062 206.273438 L 112.542969 206.273438 L 112.542969 214.859375 L 112.035156 214.859375 L 112.035156 215.507812 L 112.289062 215.507812 L 112.289062 224.519531 L 111.667969 224.519531 L 111.667969 225.195312 L 111.949219 225.195312 L 111.949219 234.773438 L 110.875 234.773438 L 110.875 235.5625 L 111.1875 235.5625 L 111.1875 246.351562 L 110.566406 246.351562 L 110.566406 247.171875 L 110.875 247.171875 L 110.875 256.746094 C 109.945312 255.417969 108.558594 254.234375 106.554688 253.328125 C 106.554688 253.328125 105.621094 248.441406 103.109375 247.085938 C 100.621094 245.703125 97.234375 244.855469 94.324219 245.109375 C 91.414062 245.390625 93.363281 243.667969 93.277344 240.957031 C 93.195312 238.273438 92.941406 222.0625 87.035156 219.632812 C 81.105469 217.175781 78.394531 219.097656 78.5625 216.273438 C 78.703125 213.445312 81.105469 210.398438 79.324219 208.617188 C 79.324219 208.617188 79.691406 203.503906 76.785156 201.414062 C 73.875 199.296875 75.90625 198.535156 72.265625 197.855469 C 72.265625 197.855469 72.378906 197.347656 71.785156 197.148438 C 71.191406 197.347656 71.304688 197.855469 71.304688 197.855469 C 67.660156 198.535156 69.695312 199.296875 66.785156 201.414062 C 63.875 203.503906 64.242188 208.617188 64.242188 208.617188 C 62.464844 210.398438 64.835938 213.445312 65.003906 216.273438 C 65.175781 219.097656 62.464844 217.175781 56.53125 219.632812 C 50.628906 222.0625 50.375 238.273438 50.289062 240.957031 C 50.207031 243.667969 52.152344 245.390625 49.246094 245.109375 C 46.335938 244.855469 42.945312 245.703125 40.433594 247.085938 C 37.945312 248.441406 37.015625 253.328125 37.015625 253.328125 C 27.609375 257.539062 31.847656 268.1875 31.847656 268.1875 L 31.847656 273.636719 L 31.761719 273.636719 L 31.761719 271.660156 L 31.195312 271.660156 C 31.195312 271.660156 31.421875 270.304688 30.601562 269.992188 L 30.601562 267.085938 L 30.40625 266.773438 L 30.40625 264.484375 L 30.265625 264.289062 L 30.265625 261.433594 L 29.699219 259.9375 L 27.917969 259.9375 L 27.382812 258.976562 L 25.800781 258.976562 L 25.800781 258.101562 L 24.871094 258.101562 L 24.871094 257.226562 L 23.910156 257.226562 L 23.910156 256.351562 L 22.976562 256.351562 L 22.976562 255.476562 L 22.074219 255.476562 L 22.074219 254.089844 C 22.074219 254.089844 24.390625 251.210938 23.910156 247.765625 C 23.796875 246.804688 23.289062 246.15625 22.609375 245.730469 C 23.484375 245.449219 23.738281 244.402344 23.738281 244.402344 C 21.789062 244.320312 20.886719 242.171875 20.886719 242.171875 L 18.371094 234.179688 L 18.542969 234.179688 C 18.542969 234.179688 18.796875 234.09375 18.542969 233.726562 L 17.808594 232.710938 C 17.808594 232.710938 18.0625 232.230469 18.0625 231.664062 C 18.0625 231.664062 18.148438 231.382812 17.863281 231.382812 L 17.414062 231.382812 C 17.414062 231.382812 17.1875 231.070312 17.441406 230.847656 C 17.722656 230.621094 18.175781 230.140625 18.0625 229.714844 C 17.921875 229.265625 17.75 229.855469 17.300781 229.941406 C 17.300781 229.941406 17.75 228.980469 16.875 228.953125 C 16.875 228.925781 16.847656 228.867188 16.847656 228.8125 C 16.847656 228.726562 16.847656 228.671875 16.933594 228.644531 C 16.988281 228.644531 17.101562 228.613281 17.046875 228.445312 C 17.015625 228.277344 16.933594 228.132812 16.820312 228.132812 C 16.679688 228.132812 16.59375 228.277344 16.566406 228.445312 C 16.507812 228.613281 16.621094 228.644531 16.707031 228.644531 C 16.761719 228.671875 16.761719 228.726562 16.761719 228.8125 C 16.761719 228.867188 16.761719 228.925781 16.734375 228.953125 C 15.886719 228.980469 16.3125 229.941406 16.3125 229.941406 C 15.886719 229.855469 15.691406 229.265625 15.578125 229.714844 C 15.433594 230.140625 15.914062 230.621094 16.167969 230.847656 C 16.453125 231.070312 16.226562 231.382812 16.226562 231.382812 L 15.746094 231.382812 C 15.492188 231.382812 15.546875 231.664062 15.546875 231.664062 C 15.546875 232.230469 15.800781 232.710938 15.800781 232.710938 L 15.097656 233.726562 C 14.8125 234.09375 15.097656 234.179688 15.097656 234.179688 L 15.265625 234.179688 L 12.722656 242.171875 C 12.722656 242.171875 11.847656 244.320312 9.898438 244.402344 C 9.898438 244.402344 10.152344 245.449219 11.027344 245.730469 C 10.324219 246.15625 9.84375 246.804688 9.703125 247.765625 C 9.222656 251.210938 11.566406 254.089844 11.566406 254.089844 L 11.566406 255.476562 L 10.660156 255.476562 L 10.660156 256.351562 L 9.703125 256.351562 L 9.703125 257.226562 L 8.769531 257.226562 L 8.769531 258.101562 L 7.808594 258.101562 L 7.808594 258.976562 L 6.253906 258.976562 L 5.71875 259.9375 L 3.941406 259.9375 L 3.347656 261.433594 L 3.347656 264.289062 L 3.234375 264.484375 L 3.234375 266.773438 L 3.035156 267.085938 L 3.035156 269.992188 C 2.1875 270.304688 2.441406 271.660156 2.441406 271.660156 L 1.878906 271.660156 L 1.878906 275.21875 C 1.59375 275.246094 1.339844 275.246094 1.085938 275.246094 C -7.386719 275.699219 -14.050781 276.207031 -18.570312 276.460938 C -23.117188 276.800781 -25.519531 276.941406 -25.519531 276.941406 C -25.945312 276.96875 -26.3125 277.367188 -26.339844 277.847656 L 595.222656 277.847656 C 595.195312 276.941406 594.542969 276.207031 593.726562 276.152344 " fill-opacity="1" fill-rule="nonzero"/></g><g clip-path="url(#7b13aec399)"><path fill="#cf0000" d="M 98.933594 319.3125 C 105.25 315.136719 112.675781 312.722656 120.21875 312.210938 C 122.699219 312.210938 125.183594 312.226562 127.664062 312.207031 C 129.664062 312.136719 131.621094 312.617188 133.597656 312.84375 C 140.597656 314.003906 147.453125 316.679688 152.984375 321.203125 C 154.707031 322.472656 156.238281 323.96875 157.8125 325.421875 C 153.742188 330.058594 149.734375 334.746094 145.675781 339.390625 C 142.257812 336.367188 138.523438 333.644531 134.355469 331.753906 C 129.351562 329.644531 123.675781 329.21875 118.371094 330.3125 C 112.484375 331.628906 107.195312 335.359375 103.90625 340.421875 C 97.351562 350.285156 97.808594 364.207031 104.875 373.6875 C 108.910156 379.089844 115.339844 382.699219 122.097656 383.042969 C 126.65625 383.277344 131.363281 382.753906 135.515625 380.75 C 139.472656 378.765625 143.019531 376.058594 146.265625 373.0625 C 150.34375 377.128906 154.34375 381.277344 158.449219 385.320312 C 156.75 387.070312 155.027344 388.804688 153.160156 390.375 C 147.636719 395.226562 140.796875 398.585938 133.546875 399.84375 C 131.5 400.289062 129.386719 400.332031 127.351562 400.828125 L 119.785156 400.828125 C 118.289062 400.429688 116.742188 400.328125 115.226562 400.050781 C 105.867188 398.449219 97.0625 393.691406 90.652344 386.667969 C 85 380.453125 81.273438 372.535156 79.964844 364.238281 C 79.703125 362.8125 79.660156 361.355469 79.339844 359.9375 L 79.339844 353.09375 C 79.839844 350.179688 80.074219 347.203125 80.914062 344.351562 C 83.675781 334.222656 90.089844 325.03125 98.933594 319.3125 Z M 98.933594 319.3125 " fill-opacity="1" fill-rule="nonzero"/></g><g clip-path="url(#046e7ee5f1)"><path fill="#cf0000" d="M 341.304688 318.855469 C 346.46875 315.0625 352.679688 312.722656 359.0625 312.214844 C 361.332031 312.210938 363.605469 312.210938 365.878906 312.21875 C 371.210938 312.679688 376.460938 314.300781 381.039062 317.105469 C 386.113281 320.128906 390.300781 324.519531 393.363281 329.554688 C 398.515625 338.050781 400.644531 348.148438 400.269531 358.019531 C 400.148438 367.796875 397.285156 377.648438 391.558594 385.625 C 386.472656 392.726562 378.8125 398.039062 370.25 399.875 C 368.609375 400.269531 366.914062 400.367188 365.292969 400.828125 L 359.027344 400.828125 C 357.398438 400.378906 355.703125 400.261719 354.066406 399.878906 C 348.441406 398.695312 343.152344 396.011719 338.800781 392.261719 C 330.761719 385.289062 326.160156 374.980469 324.789062 364.546875 C 323.816406 357.316406 324.140625 349.894531 325.917969 342.8125 C 328.261719 333.457031 333.414062 324.570312 341.304688 318.855469 M 359.195312 329.628906 C 355.917969 330.21875 352.960938 332.042969 350.71875 334.480469 C 347.351562 338.085938 345.574219 342.867188 344.601562 347.632812 C 343.535156 353.707031 343.527344 360.007812 344.886719 366.035156 C 346.171875 371.375 348.605469 376.738281 353.011719 380.207031 C 356.214844 382.800781 360.519531 383.949219 364.585938 383.292969 C 368.984375 382.828125 372.851562 380.046875 375.363281 376.492188 C 378.855469 371.59375 380.304688 365.53125 380.695312 359.597656 C 380.90625 354.808594 380.683594 349.9375 379.332031 345.304688 C 377.886719 340.109375 375.195312 334.945312 370.59375 331.894531 C 367.332031 329.566406 363.089844 328.90625 359.195312 329.628906 Z M 359.195312 329.628906 " fill-opacity="1" fill-rule="nonzero"/></g><g clip-path="url(#0f6834fbc7)"><path fill="#cf0000" d="M 186.761719 314.863281 C 190.511719 313.324219 194.554688 312.566406 198.597656 312.4375 C 199.324219 312.410156 200.046875 312.28125 200.777344 312.246094 C 204.617188 312.484375 208.496094 312.65625 212.261719 313.542969 C 219.648438 315.164062 226.601562 318.605469 232.503906 323.320312 C 229.179688 328.089844 225.949219 332.925781 222.578125 337.667969 C 216.527344 333.667969 209.921875 329.960938 202.566406 329.285156 C 198.960938 329.121094 194.9375 329.15625 191.984375 331.535156 C 188.558594 334.164062 188.769531 340.175781 192.40625 342.515625 C 195.578125 344.59375 199.335938 345.417969 202.914062 346.503906 C 209.953125 348.4375 217.160156 350.179688 223.578125 353.785156 C 228.15625 356.386719 232.191406 360.378906 233.8125 365.492188 C 234.84375 368.351562 235.007812 371.425781 234.933594 374.4375 C 235.101562 380.277344 233.019531 386.140625 229.210938 390.558594 C 225.921875 394.433594 221.363281 397.066406 216.558594 398.578125 C 212.265625 400 207.722656 400.402344 203.230469 400.574219 C 196.421875 400.347656 189.597656 399.167969 183.242188 396.664062 C 177.304688 394.414062 171.859375 390.945312 167.179688 386.664062 C 170.949219 382.1875 174.660156 377.664062 178.441406 373.199219 C 182.78125 376.640625 187.496094 379.695312 192.6875 381.695312 C 197.527344 383.382812 202.785156 384.035156 207.867188 383.289062 C 210.449219 382.902344 213.121094 381.898438 214.777344 379.785156 C 216.992188 376.777344 216.5 371.8125 213.132812 369.847656 C 207.730469 366.550781 201.378906 365.464844 195.371094 363.765625 C 189.410156 362.046875 183.269531 360.183594 178.324219 356.273438 C 174 352.910156 171.25 347.664062 170.84375 342.203125 C 170.355469 337.054688 170.695312 331.613281 173.179688 326.976562 C 175.9375 321.378906 180.988281 317.09375 186.761719 314.863281 Z M 186.761719 314.863281 " fill-opacity="1" fill-rule="nonzero"/></g><g clip-path="url(#de19f246f4)"><path fill="#cf0000" d="M 251.832031 355.851562 C 252.683594 341.757812 253.507812 327.660156 254.269531 313.5625 C 271.863281 313.5625 289.453125 313.558594 307.046875 313.566406 C 307.042969 319.15625 307.050781 324.753906 307.039062 330.351562 C 294.898438 330.394531 282.75 330.335938 270.609375 330.382812 C 270.441406 335.175781 269.953125 339.960938 269.71875 344.753906 C 271.398438 344.394531 273.074219 344.019531 274.765625 343.730469 C 277.644531 343.226562 280.578125 343.414062 283.484375 343.40625 C 289.457031 343.777344 295.558594 345.226562 300.519531 348.710938 C 305.617188 352.1875 309.011719 357.875 310.140625 363.90625 C 310.910156 368.117188 310.957031 372.453125 310.324219 376.6875 C 309.335938 382.796875 306.363281 388.617188 301.746094 392.773438 C 297.539062 396.53125 292.195312 398.875 286.6875 399.933594 C 285.039062 400.289062 283.335938 400.390625 281.699219 400.828125 L 274.402344 400.828125 C 272.492188 400.351562 270.511719 400.285156 268.589844 399.867188 C 260.046875 398.351562 252.328125 393.703125 246.082031 387.792969 C 249.902344 383.195312 253.761719 378.625 257.582031 374.03125 C 261.074219 377.101562 264.871094 379.914062 269.183594 381.714844 C 271.949219 382.796875 274.917969 383.375 277.894531 383.304688 C 281.558594 383.390625 285.425781 382.625 288.351562 380.28125 C 290.925781 378.253906 292.121094 374.875 292.058594 371.664062 C 292.140625 368.820312 291.167969 365.859375 289.078125 363.878906 C 286.835938 361.679688 283.730469 360.640625 280.683594 360.203125 C 275.085938 359.496094 269.363281 360.480469 264.167969 362.625 C 263.570312 362.832031 262.859375 363.332031 262.292969 362.789062 C 258.796875 360.484375 255.324219 358.152344 251.832031 355.851562 Z M 251.832031 355.851562 " fill-opacity="1" fill-rule="nonzero"/></g><path fill="#cf0000" d="M 410.058594 333.558594 C 416.78125 333.492188 423.507812 333.53125 430.230469 333.546875 C 434.273438 339.859375 438.324219 346.167969 442.355469 352.488281 C 446.414062 346.167969 450.535156 339.886719 454.578125 333.558594 C 461.15625 333.492188 467.734375 333.546875 474.316406 333.535156 C 466.953125 344.226562 459.539062 354.886719 452.148438 365.5625 C 459.828125 376.742188 467.511719 387.917969 475.167969 399.113281 C 472.308594 399.390625 469.414062 399.160156 466.539062 399.234375 C 462.71875 399.238281 458.894531 399.226562 455.070312 399.238281 C 450.703125 392.507812 446.359375 385.753906 441.992188 379.015625 C 437.636719 385.742188 433.273438 392.472656 428.957031 399.226562 C 423.9375 399.246094 418.917969 399.230469 413.902344 399.234375 C 412.347656 399.203125 410.789062 399.324219 409.242188 399.140625 C 416.933594 388.113281 424.496094 376.992188 432.199219 365.96875 C 424.855469 355.136719 417.390625 344.390625 410.058594 333.558594 Z M 410.058594 333.558594 " fill-opacity="1" fill-rule="nonzero"/><g fill="#000000" fill-opacity="1"><g transform="translate(161.937402, 492.257845)"><g><path d="M 38.53125 -43.078125 C 40.21875 -43.078125 41.925781 -42.773438 43.65625 -42.171875 C 45.382812 -41.578125 46.988281 -40.710938 48.46875 -39.578125 C 49.957031 -38.453125 51.25 -37.128906 52.34375 -35.609375 C 53.4375 -34.097656 54.191406 -32.425781 54.609375 -30.59375 C 55.109375 -28.257812 55.269531 -26.191406 55.09375 -24.390625 C 54.914062 -22.597656 54.398438 -20.640625 53.546875 -18.515625 C 52.703125 -16.398438 51.503906 -13.894531 49.953125 -11 C 48.398438 -8.113281 46.5 -4.445312 44.25 0 C 42.625 -0.144531 41.351562 -0.601562 40.4375 -1.375 C 39.65625 -2.082031 39.140625 -3.140625 38.890625 -4.546875 C 38.648438 -5.960938 39.195312 -7.941406 40.53125 -10.484375 C 41.800781 -12.953125 42.84375 -15.347656 43.65625 -17.671875 C 44.46875 -20.003906 44.941406 -22.15625 45.078125 -24.125 C 45.222656 -26.101562 45.03125 -27.847656 44.5 -29.359375 C 43.976562 -30.878906 43.007812 -32.03125 41.59375 -32.8125 C 40.601562 -33.375 39.628906 -33.796875 38.671875 -34.078125 C 37.722656 -34.359375 36.648438 -34.410156 35.453125 -34.234375 C 34.253906 -34.054688 32.894531 -33.597656 31.375 -32.859375 C 29.863281 -32.117188 28.082031 -30.972656 26.03125 -29.421875 L 18.09375 -23.5 L 18.09375 0 L 8.578125 -9.203125 L 8.578125 -46.46875 L 4.65625 -46.46875 L -0.640625 -55.78125 L 57.796875 -55.78125 L 63.078125 -46.46875 L 18.09375 -46.46875 L 18.09375 -32.703125 C 18.445312 -32.984375 19.3125 -33.6875 20.6875 -34.8125 C 22.0625 -35.945312 23.703125 -37.128906 25.609375 -38.359375 C 27.515625 -39.597656 29.597656 -40.691406 31.859375 -41.640625 C 34.117188 -42.597656 36.34375 -43.078125 38.53125 -43.078125 Z M 38.53125 -43.078125 "/></g></g></g><g fill="#000000" fill-opacity="1"><g transform="translate(218.667742, 492.257845)"><g><path d="M 18.84375 -8.25 C 21.101562 -6.769531 23.304688 -5.851562 25.453125 -5.5 C 27.609375 -5.144531 29.640625 -5.234375 31.546875 -5.765625 C 33.453125 -6.296875 35.210938 -7.195312 36.828125 -8.46875 C 38.453125 -9.738281 39.832031 -11.253906 40.96875 -13.015625 L 47.09375 -7.40625 C 45.257812 -5.5 43.085938 -3.910156 40.578125 -2.640625 C 38.078125 -1.367188 35.414062 -0.503906 32.59375 -0.046875 C 29.769531 0.410156 26.875 0.410156 23.90625 -0.046875 C 20.945312 -0.503906 18.128906 -1.546875 15.453125 -3.171875 C 12.835938 -4.796875 10.703125 -6.738281 9.046875 -9 C 7.390625 -11.257812 6.222656 -13.640625 5.546875 -16.140625 C 4.878906 -18.648438 4.671875 -21.207031 4.921875 -23.8125 C 5.171875 -26.425781 5.894531 -28.863281 7.09375 -31.125 C 8.144531 -33.019531 9.570312 -34.707031 11.375 -36.1875 C 13.175781 -37.675781 15.171875 -38.878906 17.359375 -39.796875 C 19.546875 -40.710938 21.820312 -41.3125 24.1875 -41.59375 C 26.550781 -41.875 28.789062 -41.804688 30.90625 -41.390625 L 30.90625 -46.46875 L 1.0625 -46.46875 L -4.234375 -55.78125 L 50.171875 -55.78125 L 55.46875 -46.46875 L 39.484375 -46.46875 L 39.484375 -38.953125 C 42.085938 -36.898438 43.773438 -34.867188 44.546875 -32.859375 C 45.328125 -30.847656 45.503906 -28.925781 45.078125 -27.09375 C 44.660156 -25.257812 43.742188 -23.566406 42.328125 -22.015625 C 40.921875 -20.460938 39.335938 -19.191406 37.578125 -18.203125 C 36.304688 -17.492188 34.453125 -16.660156 32.015625 -15.703125 C 29.578125 -14.753906 27.125 -14.035156 24.65625 -13.546875 C 22.1875 -13.054688 20 -12.984375 18.09375 -13.328125 C 16.1875 -13.679688 15.164062 -14.8125 15.03125 -16.71875 C 17.570312 -17.570312 19.707031 -18.242188 21.4375 -18.734375 C 23.164062 -19.222656 24.71875 -19.734375 26.09375 -20.265625 C 27.46875 -20.796875 28.753906 -21.414062 29.953125 -22.125 C 31.148438 -22.832031 32.5625 -23.816406 34.1875 -25.078125 C 35.175781 -25.929688 35.8125 -26.816406 36.09375 -27.734375 C 36.375 -28.648438 36.320312 -29.515625 35.9375 -30.328125 C 35.550781 -31.140625 34.894531 -31.804688 33.96875 -32.328125 C 33.050781 -32.859375 31.851562 -33.160156 30.375 -33.234375 C 26.425781 -33.515625 22.96875 -32.769531 20 -31 C 17.039062 -29.238281 14.90625 -27.019531 13.59375 -24.34375 C 12.289062 -21.664062 11.992188 -18.84375 12.703125 -15.875 C 13.410156 -12.914062 15.457031 -10.375 18.84375 -8.25 Z M 18.84375 -8.25 "/></g></g></g><g fill="#000000" fill-opacity="1"><g transform="translate(268.095118, 492.257845)"><g><path d="M 38.203125 -43.078125 C 39.898438 -43.078125 41.628906 -42.773438 43.390625 -42.171875 C 45.160156 -41.578125 46.800781 -40.710938 48.3125 -39.578125 C 49.832031 -38.453125 51.117188 -37.128906 52.171875 -35.609375 C 53.234375 -34.097656 53.941406 -32.425781 54.296875 -30.59375 C 54.859375 -27.207031 54.875 -24.132812 54.34375 -21.375 C 53.820312 -18.625 52.992188 -16.171875 51.859375 -14.015625 C 50.734375 -11.867188 49.410156 -9.984375 47.890625 -8.359375 C 46.378906 -6.734375 44.953125 -5.410156 43.609375 -4.390625 C 42.265625 -3.367188 41.113281 -2.578125 40.15625 -2.015625 C 39.207031 -1.453125 38.703125 -1.171875 38.640625 -1.171875 C 35.242188 0.953125 31.726562 1.816406 28.09375 1.421875 C 24.46875 1.035156 21.066406 0 17.890625 -1.6875 L 17.890625 22.125 L 8.359375 12.90625 L 8.359375 -9.203125 L 8.25 -9.203125 L 8.25 -46.46875 L 1.171875 -46.46875 L -4.125 -55.78125 L 58.640625 -55.78125 L 63.921875 -46.46875 L 17.890625 -46.46875 L 17.890625 -32.703125 C 18.304688 -33.054688 19.1875 -33.796875 20.53125 -34.921875 C 21.875 -36.054688 23.5 -37.222656 25.40625 -38.421875 C 27.3125 -39.617188 29.390625 -40.691406 31.640625 -41.640625 C 33.898438 -42.597656 36.085938 -43.078125 38.203125 -43.078125 Z M 17.890625 -12.90625 C 20.285156 -8.820312 22.84375 -6.300781 25.5625 -5.34375 C 28.28125 -4.394531 30.890625 -4.429688 33.390625 -5.453125 C 35.898438 -6.472656 38.140625 -8.234375 40.109375 -10.734375 C 42.085938 -13.242188 43.550781 -15.910156 44.5 -18.734375 C 45.457031 -21.554688 45.722656 -24.269531 45.296875 -26.875 C 44.878906 -29.488281 43.539062 -31.46875 41.28125 -32.8125 C 40.289062 -33.375 39.285156 -33.757812 38.265625 -33.96875 C 37.242188 -34.1875 35.898438 -34.03125 34.234375 -33.5 C 32.578125 -32.96875 30.441406 -31.925781 27.828125 -30.375 C 25.222656 -28.820312 21.910156 -26.53125 17.890625 -23.5 Z M 17.890625 -12.90625 "/></g></g></g><g fill="#000000" fill-opacity="1"><g transform="translate(325.142986, 492.257845)"><g><path d="M 39.0625 -42.765625 C 40.75 -42.265625 42.367188 -41.609375 43.921875 -40.796875 C 45.472656 -39.984375 46.832031 -39.066406 48 -38.046875 C 49.164062 -37.023438 50.082031 -35.914062 50.75 -34.71875 C 51.414062 -33.519531 51.75 -32.320312 51.75 -31.125 L 51.75 0.109375 L 43.296875 -6.453125 C 42.023438 -5.179688 40.363281 -4.015625 38.3125 -2.953125 C 36.269531 -1.898438 34.046875 -1.070312 31.640625 -0.46875 C 29.242188 0.125 26.757812 0.457031 24.1875 0.53125 C 21.613281 0.601562 19.160156 0.320312 16.828125 -0.3125 C 14.503906 -0.945312 12.390625 -1.96875 10.484375 -3.375 C 8.578125 -4.789062 7.09375 -6.664062 6.03125 -9 C 4.832031 -11.46875 4.460938 -13.9375 4.921875 -16.40625 C 5.378906 -18.875 6.398438 -21.113281 7.984375 -23.125 C 9.578125 -25.132812 11.660156 -26.789062 14.234375 -28.09375 C 16.804688 -29.40625 19.628906 -30.148438 22.703125 -30.328125 C 25.773438 -30.503906 28.984375 -30.007812 32.328125 -28.84375 C 35.679688 -27.675781 38.984375 -25.644531 42.234375 -22.75 L 42.234375 -31.015625 C 42.234375 -33.054688 41.117188 -34.625 38.890625 -35.71875 C 36.671875 -36.8125 33.972656 -37.078125 30.796875 -36.515625 C 28.535156 -36.160156 26.734375 -35.84375 25.390625 -35.5625 C 24.054688 -35.28125 22.789062 -34.941406 21.59375 -34.546875 C 20.394531 -34.160156 19.085938 -33.6875 17.671875 -33.125 C 16.265625 -32.5625 14.359375 -31.820312 11.953125 -30.90625 L 9.625 -36.203125 C 12.03125 -37.191406 14.394531 -38.144531 16.71875 -39.0625 C 18.769531 -39.832031 20.941406 -40.601562 23.234375 -41.375 C 25.523438 -42.15625 27.625 -42.757812 29.53125 -43.1875 C 29.664062 -43.257812 29.820312 -43.296875 30 -43.296875 C 30.175781 -43.296875 30.335938 -43.328125 30.484375 -43.390625 L 30.484375 -46.46875 L 3.8125 -46.46875 L -1.484375 -55.78125 L 56.9375 -55.78125 L 62.234375 -46.46875 L 39.0625 -46.46875 Z M 42.234375 -16.40625 C 39.484375 -18.519531 36.585938 -20.085938 33.546875 -21.109375 C 30.515625 -22.140625 27.691406 -22.617188 25.078125 -22.546875 C 22.472656 -22.472656 20.21875 -21.851562 18.3125 -20.6875 C 16.40625 -19.53125 15.207031 -17.820312 14.71875 -15.5625 C 14.144531 -13.09375 14.28125 -11.148438 15.125 -9.734375 C 15.976562 -8.328125 17.234375 -7.335938 18.890625 -6.765625 C 20.546875 -6.203125 22.484375 -5.988281 24.703125 -6.125 C 26.929688 -6.269531 29.15625 -6.660156 31.375 -7.296875 C 33.601562 -7.929688 35.6875 -8.707031 37.625 -9.625 C 39.5625 -10.539062 41.097656 -11.492188 42.234375 -12.484375 Z M 42.234375 -16.40625 "/></g></g></g><g fill="#000000" fill-opacity="1"><g transform="translate(380.920754, 492.257845)"><g><path d="M 18.625 0 L 9.109375 -9.203125 L 9.109375 -55.78125 C 9.109375 -58.25 9.035156 -60.613281 8.890625 -62.875 C 8.742188 -64.78125 8.53125 -66.679688 8.25 -68.578125 C 7.96875 -70.484375 7.582031 -72.003906 7.09375 -73.140625 C 6.8125 -73.703125 6.546875 -74.160156 6.296875 -74.515625 C 6.046875 -74.867188 5.816406 -75.1875 5.609375 -75.46875 C 5.328125 -75.75 5.113281 -76.03125 4.96875 -76.3125 L 5.71875 -77.796875 C 6.769531 -77.367188 7.898438 -76.804688 9.109375 -76.109375 C 10.085938 -75.472656 11.140625 -74.660156 12.265625 -73.671875 C 13.398438 -72.679688 14.460938 -71.375 15.453125 -69.75 C 16.578125 -67.707031 17.367188 -65.609375 17.828125 -63.453125 C 18.285156 -61.296875 18.550781 -58.738281 18.625 -55.78125 Z M 18.625 0 "/></g></g></g><g clip-path="url(#9c6ca79eee)"><g clip-path="url(#3c3bad886f)"><path stroke-linecap="butt" transform="matrix(0.74868, 0, 0, 0.74868, 0.499117, 0.0000199648)" fill="none" stroke-linejoin="miter" d="M 378.000016 -0.0000266667 C 169.236634 -0.0000266667 0.00117911 169.235429 0.00117911 377.99881 C 0.00117911 586.762191 169.236634 755.997647 378.000016 755.997647 C 586.763397 755.997647 755.998852 586.762191 755.998852 377.99881 C 755.998852 169.235429 586.763397 -0.0000266667 378.000016 -0.0000266667 Z M 378.000016 -0.0000266667 " stroke="#cf0000" stroke-width="4" stroke-opacity="1" stroke-miterlimit="4"/></g></g></svg>