<svg width="582" height="600" viewBox="0 0 582 600" fill="none" xmlns="http://www.w3.org/2000/svg">
<path fill-rule="evenodd" clip-rule="evenodd" d="M321.382 6.7443C407.199 14.3757 491.676 47.8972 541.806 123.407C589.246 194.864 582.421 287.108 564.416 372.822C546.363 458.765 519.813 554.668 444.202 588.062C371.337 620.243 299.933 556.725 228.407 521.22C154.134 484.351 65.7038 464.82 33.0581 383.971C-6.51944 285.954 -12.929 162.176 50.122 79.6835C112.485 -1.9089 223.671 -1.94477 321.382 6.7443Z" fill="#4D4E4E" stroke="black" stroke-width="6"/>
<path fill-rule="evenodd" clip-rule="evenodd" d="M423.101 99.9357C359.941 99.9357 296.763 99.9357 233.585 99.9357L163.753 183.579C250.208 183.579 336.655 183.579 423.101 183.579V99.9357ZM320.64 188.19H261.894V220.144H320.64V188.19ZM261.895 95.3442H320.64V68H261.895V95.3442ZM301.214 131.815C298.674 129.267 295.151 127.692 291.273 127.692C287.383 127.692 283.869 129.267 281.321 131.815C278.771 134.345 277.197 137.869 277.197 141.767C277.197 145.666 278.771 149.17 281.31 151.719C283.85 154.267 287.372 155.842 291.273 155.842C295.104 155.842 298.581 154.305 301.111 151.83L301.214 151.718C303.754 149.169 305.337 145.644 305.337 141.766C305.337 137.887 303.754 134.364 301.214 131.815ZM304.474 128.554C307.849 131.928 309.938 136.613 309.938 141.767C309.938 146.92 307.849 151.588 304.474 154.98L304.316 155.111C300.942 158.41 296.341 160.434 291.273 160.434C286.117 160.434 281.452 158.352 278.077 154.98C274.676 151.569 272.586 146.902 272.586 141.767C272.586 136.613 274.684 131.946 278.069 128.572C285.311 121.301 297.221 121.301 304.474 128.554ZM281.581 406.081C280.307 406.081 279.278 405.05 279.278 403.795C279.278 402.52 280.308 401.489 281.581 401.489H320.64V375.87H281.581C280.307 375.87 279.278 374.838 279.278 373.564C279.278 372.29 280.308 371.259 281.581 371.259H320.64V345.64H281.581C280.307 345.64 279.278 344.608 279.278 343.334C279.278 342.06 280.308 341.029 281.581 341.029H320.64V328.735H261.894V430.427H320.64V406.082H281.581V406.081ZM323.001 224.755H322.946H259.589H259.524H167.622V324.124H259.524H259.588H322.945H323H414.909V224.755H323.001ZM214.309 253.187H205.696V267.823C205.696 269.099 204.656 270.128 203.391 270.128H188.754V278.749H203.391C204.656 278.749 205.696 279.781 205.696 281.055V295.692H214.309V281.055C214.309 279.78 215.349 278.749 216.614 278.749H231.251V270.128H216.614C215.349 270.128 214.309 269.098 214.309 267.823V253.187ZM203.392 248.595H216.615C217.88 248.595 218.92 249.625 218.92 250.9V265.537H233.557C234.822 265.537 235.863 266.569 235.863 267.823V281.055C235.863 282.329 234.822 283.36 233.557 283.36H218.92V297.997C218.92 299.272 217.88 300.302 216.615 300.302H203.392C202.118 300.302 201.086 299.271 201.086 297.997V283.36H186.45C185.185 283.36 184.144 282.328 184.144 281.055V267.823C184.144 266.569 185.185 265.537 186.45 265.537H201.086V250.9C201.086 249.625 202.118 248.595 203.392 248.595ZM387.294 285.085C385.767 283.549 383.639 282.592 381.288 282.592C378.945 282.592 376.809 283.549 375.281 285.085C373.754 286.622 372.797 288.74 372.797 291.082C372.797 293.444 373.743 295.562 375.27 297.099C376.808 298.636 378.944 299.591 381.287 299.591C383.63 299.591 385.756 298.636 387.284 297.099C388.821 295.562 389.777 293.443 389.777 291.082C389.778 288.739 388.832 286.622 387.294 285.085ZM381.289 277.981C384.887 277.981 388.167 279.462 390.537 281.823C392.926 284.222 394.389 287.483 394.389 291.082C394.389 294.699 392.918 297.978 390.546 300.359C388.184 302.721 384.905 304.183 381.289 304.183C377.68 304.183 374.401 302.721 372.03 300.359C369.659 297.978 368.188 294.699 368.188 291.082C368.188 287.464 369.65 284.203 372.03 281.823C374.392 279.462 377.671 277.981 381.289 277.981ZM352.389 285.085C350.851 283.549 348.734 282.592 346.381 282.592C344.028 282.592 341.911 283.549 340.374 285.085C338.838 286.622 337.891 288.74 337.891 291.082C337.891 293.444 338.838 295.562 340.374 297.099C341.91 298.636 344.028 299.591 346.381 299.591C348.723 299.591 350.85 298.636 352.389 297.099C353.916 295.562 354.871 293.443 354.871 291.082C354.871 288.739 353.925 286.622 352.389 285.085ZM346.381 277.981C349.989 277.981 353.26 279.462 355.632 281.823C358.01 284.222 359.482 287.483 359.482 291.082C359.482 294.699 358.01 297.978 355.649 300.359C353.269 302.721 349.999 304.183 346.381 304.183C342.773 304.183 339.493 302.721 337.132 300.359C334.752 297.978 333.28 294.699 333.28 291.082C333.28 287.464 334.752 284.203 337.114 281.823C339.485 279.462 342.764 277.981 346.381 277.981ZM387.294 251.781C385.767 250.262 383.639 249.307 381.288 249.307C378.945 249.307 376.809 250.263 375.281 251.801C373.754 253.337 372.797 255.454 372.797 257.798C372.797 260.139 373.743 262.276 375.27 263.813C376.808 265.331 378.944 266.288 381.287 266.288C383.63 266.288 385.756 265.33 387.284 263.794C388.821 262.276 389.777 260.138 389.777 257.797C389.778 255.453 388.832 253.318 387.294 251.781ZM381.289 244.697C384.887 244.697 388.167 246.158 390.537 248.538C392.926 250.917 394.389 254.198 394.389 257.797C394.389 261.413 392.918 264.694 390.546 267.055C388.184 269.435 384.905 270.897 381.289 270.897C377.68 270.897 374.401 269.435 372.03 267.055C369.659 264.674 368.188 261.413 368.188 257.797C368.188 254.179 369.65 250.9 372.03 248.538C374.392 246.158 377.671 244.697 381.289 244.697ZM352.389 251.781C350.851 250.262 348.734 249.307 346.381 249.307C344.028 249.307 341.911 250.263 340.374 251.801C338.838 253.337 337.891 255.454 337.891 257.798C337.891 260.139 338.838 262.276 340.374 263.813C341.91 265.331 344.028 266.288 346.381 266.288C348.723 266.288 350.85 265.33 352.389 263.794C353.916 262.276 354.871 260.138 354.871 257.797C354.871 255.453 353.925 253.318 352.389 251.781ZM190.601 454.903C189.335 454.903 188.305 453.871 188.305 452.598C188.305 451.325 189.335 450.293 190.601 450.293H355.453C356.718 450.293 357.758 451.325 357.758 452.598C357.758 453.871 356.718 454.903 355.453 454.903H190.601ZM272.511 446.095C271.237 446.095 270.207 445.063 270.207 443.789C270.207 442.533 271.238 441.503 272.511 441.503H411.003C412.268 441.503 413.299 442.533 413.299 443.789C413.299 445.064 412.267 446.095 411.003 446.095H272.511ZM425.181 446.095C423.906 446.095 422.876 445.063 422.876 443.789C422.876 442.533 423.906 441.503 425.181 441.503H442.498C443.763 441.503 444.804 442.533 444.804 443.789C444.804 445.064 443.763 446.095 442.498 446.095H425.181ZM147.429 446.376C146.154 446.376 145.124 445.327 145.124 444.07C145.124 442.796 146.154 441.766 147.429 441.766H213.053C214.318 441.766 215.358 442.797 215.358 444.07C215.358 445.327 214.318 446.376 213.053 446.376H147.429ZM130 117.778C130 118.659 130.571 119.558 131.302 119.859C132.839 120.609 134.609 119.446 134.609 117.778V113.168C134.609 112.307 134.047 111.406 133.316 111.106C131.78 110.338 130 111.5 130 113.168V117.778ZM130 136.201C130 137.063 130.571 137.98 131.302 138.262C132.839 139.03 134.609 137.868 134.609 136.201V131.591C134.609 130.729 134.047 129.81 133.316 129.529C131.78 128.76 130 129.923 130 131.591V136.201ZM130 154.623C130 155.485 130.571 156.404 131.302 156.685C132.839 157.454 134.609 156.292 134.609 154.623V150.014C134.609 149.152 134.047 148.233 133.316 147.952C131.78 147.184 130 148.346 130 150.014V154.623ZM130 173.048C130 173.91 130.571 174.81 131.302 175.109C132.839 175.877 134.609 174.697 134.609 173.048V168.437C134.609 167.556 134.047 166.657 133.316 166.357C131.78 165.607 130 166.769 130 168.437V173.048ZM130 191.451C130 192.331 130.571 193.231 131.302 193.532C132.839 194.3 134.609 193.12 134.609 191.451V186.859C134.609 185.979 134.047 185.079 133.316 184.779C131.78 184.01 130 185.19 130 186.859V191.451ZM130 209.875C130 210.756 130.571 211.654 131.302 211.955C132.839 212.724 134.609 211.543 134.609 209.875V205.264C134.609 204.403 134.047 203.503 133.316 203.203C131.78 202.435 130 203.615 130 205.264V209.875ZM130 228.298C130 229.159 130.571 230.077 131.302 230.358C132.839 231.127 134.609 229.966 134.609 228.298V223.688C134.609 222.825 134.047 221.907 133.316 221.626C131.78 220.857 130 222.02 130 223.688V228.298ZM130 246.72C130 247.582 130.571 248.501 131.302 248.782C132.839 249.55 134.609 248.388 134.609 246.72V242.11C134.609 241.249 134.047 240.33 133.316 240.049C131.78 239.281 130 240.442 130 242.11V246.72ZM130 265.144C130 266.006 130.571 266.924 131.302 267.205C132.839 267.973 134.609 266.812 134.609 265.144V260.534C134.609 259.672 134.047 258.753 133.316 258.472C131.78 257.704 130 258.867 130 260.534V265.144ZM130 283.566C130 284.428 130.571 285.347 131.302 285.628C132.839 286.397 134.609 285.235 134.609 283.566V278.957C134.609 278.076 134.047 277.177 133.316 276.876C131.78 276.107 130 277.288 130 278.957V283.566ZM130 301.971C130 302.852 130.571 303.751 131.302 304.052C132.839 304.82 134.609 303.64 134.609 301.971V297.38C134.609 296.498 134.047 295.599 133.316 295.299C131.78 294.53 130 295.711 130 297.38V301.971ZM130 320.394C130 321.275 130.571 322.175 131.302 322.475C132.839 323.243 134.609 322.063 134.609 320.394V315.802C134.609 314.922 134.047 314.022 133.316 313.721C131.78 312.954 130 314.134 130 315.802V320.394ZM130 338.817C130 339.698 130.571 340.597 131.302 340.897C132.839 341.666 134.609 340.485 134.609 338.817V334.206C134.609 333.345 134.047 332.445 133.316 332.145C131.78 331.377 130 332.539 130 334.206V338.817ZM130 357.24C130 358.102 130.571 359.021 131.302 359.302C132.839 360.07 134.609 358.909 134.609 357.24V352.631C134.609 351.769 134.047 350.85 133.316 350.569C131.78 349.8 130 350.964 130 352.631V357.24ZM130 375.663C130 376.526 130.571 377.444 131.302 377.725C132.839 378.493 134.609 377.331 134.609 375.663V371.053C134.609 370.191 134.047 369.273 133.316 368.992C131.78 368.224 130 369.386 130 371.053V375.663ZM130 394.086C130 394.947 130.571 395.867 131.302 396.148C132.839 396.916 134.609 395.753 134.609 394.086V389.476C134.609 388.614 134.047 387.696 133.316 387.414C131.78 386.647 130 387.808 130 389.476V394.086ZM130 409.98C130 410.842 130.571 411.76 131.302 412.041C132.839 412.809 134.609 411.647 134.609 409.98V407.899C134.609 407.018 134.047 406.119 133.316 405.818C131.78 405.05 130 406.23 130 407.899V409.98ZM134.609 94.763C134.609 93.8815 134.047 92.9824 133.316 92.6821C131.78 91.9133 130 93.0942 130 94.763V99.3545C130 100.234 130.571 101.134 131.302 101.435C132.839 102.203 134.609 101.023 134.609 99.3545V94.763ZM447.39 117.778C447.39 118.659 447.952 119.558 448.684 119.859C450.22 120.609 452 119.446 452 117.778V113.168C452 112.307 451.429 111.406 450.707 111.106C449.16 110.338 447.39 111.5 447.39 113.168V117.778ZM447.39 136.201C447.39 137.063 447.952 137.98 448.684 138.262C450.22 139.03 452 137.868 452 136.201V131.591C452 130.729 451.429 129.81 450.707 129.529C449.16 128.76 447.39 129.923 447.39 131.591V136.201ZM447.39 154.623C447.39 155.485 447.952 156.404 448.684 156.685C450.22 157.454 452 156.292 452 154.623V150.014C452 149.152 451.429 148.233 450.707 147.952C449.16 147.184 447.39 148.346 447.39 150.014V154.623ZM447.39 173.048C447.39 173.91 447.952 174.81 448.684 175.109C450.22 175.877 452 174.697 452 173.048V168.437C452 167.556 451.429 166.657 450.707 166.357C449.16 165.607 447.39 166.769 447.39 168.437V173.048ZM447.39 191.451C447.39 192.331 447.952 193.231 448.684 193.532C450.22 194.3 452 193.12 452 191.451V186.859C452 185.979 451.429 185.079 450.707 184.779C449.16 184.01 447.39 185.19 447.39 186.859V191.451ZM447.39 209.875C447.39 210.756 447.952 211.654 448.684 211.955C450.22 212.724 452 211.543 452 209.875V205.264C452 204.403 451.429 203.503 450.707 203.203C449.16 202.435 447.39 203.615 447.39 205.264V209.875ZM447.39 228.298C447.39 229.159 447.952 230.077 448.684 230.358C450.22 231.127 452 229.966 452 228.298V223.688C452 222.825 451.429 221.907 450.707 221.626C449.16 220.857 447.39 222.02 447.39 223.688V228.298ZM447.39 246.72C447.39 247.582 447.952 248.501 448.684 248.782C450.22 249.55 452 248.388 452 246.72V242.11C452 241.249 451.429 240.33 450.707 240.049C449.16 239.281 447.39 240.442 447.39 242.11V246.72ZM447.39 265.144C447.39 266.006 447.952 266.924 448.684 267.205C450.22 267.973 452 266.812 452 265.144V260.534C452 259.672 451.429 258.753 450.707 258.472C449.16 257.704 447.39 258.867 447.39 260.534V265.144ZM447.39 283.566C447.39 284.428 447.952 285.347 448.684 285.628C450.22 286.397 452 285.235 452 283.566V278.957C452 278.076 451.429 277.177 450.707 276.876C449.16 276.107 447.39 277.288 447.39 278.957V283.566ZM447.39 301.971C447.39 302.852 447.952 303.751 448.684 304.052C450.22 304.82 452 303.64 452 301.971V297.38C452 296.498 451.429 295.599 450.707 295.299C449.16 294.53 447.39 295.711 447.39 297.38V301.971ZM447.39 320.394C447.39 321.275 447.952 322.175 448.684 322.475C450.22 323.243 452 322.063 452 320.394V315.802C452 314.922 451.429 314.022 450.707 313.721C449.16 312.954 447.39 314.134 447.39 315.802V320.394ZM447.39 338.817C447.39 339.698 447.952 340.597 448.684 340.897C450.22 341.666 452 340.485 452 338.817V334.206C452 333.345 451.429 332.445 450.707 332.145C449.16 331.377 447.39 332.539 447.39 334.206V338.817ZM447.39 357.24C447.39 358.102 447.952 359.021 448.684 359.302C450.22 360.07 452 358.909 452 357.24V352.631C452 351.769 451.429 350.85 450.707 350.569C449.16 349.8 447.39 350.964 447.39 352.631V357.24ZM447.39 375.663C447.39 376.526 447.952 377.444 448.684 377.725C450.22 378.493 452 377.331 452 375.663V371.053C452 370.191 451.429 369.273 450.707 368.992C449.16 368.224 447.39 369.386 447.39 371.053V375.663ZM447.39 394.086C447.39 394.947 447.952 395.867 448.684 396.148C450.22 396.916 452 395.753 452 394.086V389.476C452 388.614 451.429 387.696 450.707 387.414C449.16 386.647 447.39 387.808 447.39 389.476V394.086ZM447.39 409.98C447.39 410.842 447.952 411.76 448.684 412.041C450.22 412.809 452 411.647 452 409.98V407.899C452 407.018 451.429 406.119 450.707 405.818C449.16 405.05 447.39 406.23 447.39 407.899V409.98ZM452 94.763C452 93.8815 451.429 92.9824 450.707 92.6821C449.16 91.9133 447.39 93.0942 447.39 94.763V99.3545C447.39 100.234 447.952 101.134 448.684 101.435C450.22 102.203 452 101.023 452 99.3545V94.763ZM346.381 244.697C349.989 244.697 353.26 246.158 355.632 248.538C358.01 250.917 359.482 254.198 359.482 257.797C359.482 261.413 358.01 264.694 355.649 267.055C353.269 269.435 349.999 270.897 346.381 270.897C342.773 270.897 339.493 269.435 337.132 267.055C334.752 264.674 333.28 261.413 333.28 257.797C333.28 254.179 334.752 250.9 337.114 248.538C339.485 246.158 342.764 244.697 346.381 244.697Z" fill="#F3AF06"/>
</svg>
