<svg width="784" height="596" viewBox="0 0 784 596" fill="none" xmlns="http://www.w3.org/2000/svg">
<g clip-path="url(#clip0_144_31)">
<path d="M400.369 594C423.947 594 443.061 573.405 443.061 548C443.061 522.595 423.947 502 400.369 502C376.791 502 357.677 522.595 357.677 548C357.677 573.405 376.791 594 400.369 594Z" fill="#F5233C"/>
<path d="M655.413 591.416C679.297 583.687 704.688 575.628 723.63 557.255C740.556 540.836 751.983 515.766 744.971 491.143C737.973 466.571 717.013 450.187 695.373 442.038C683.099 437.416 670.258 434.852 657.422 432.837C643.468 430.648 629.453 428.854 615.444 427.127C558.722 420.137 501.785 415.867 444.636 414.316C416.437 413.551 388.242 413.57 360.039 414.011C334.851 414.405 308.324 414.395 284.958 402.86C266.787 393.89 250.296 377.571 245.233 356.127C239.388 331.372 250.168 306.163 265.632 288.235C273.783 278.784 283.31 270.831 293.137 263.517C303.798 255.583 314.831 248.211 326.103 241.329C348.304 227.782 371.514 216.252 395.493 206.861C407.322 202.226 419.327 198.228 431.436 194.539C441.66 191.424 451.917 188.305 461.799 184.062C480.902 175.858 499.071 161.962 503.929 139.18C508.532 117.589 500.77 94.1495 487.163 78.1096C471.42 59.5526 447.683 51.4178 424.925 50.1016C399.377 48.624 374.417 55.5136 350.403 64.2575C324.791 73.5835 299.731 84.3067 273.578 91.8607C247.643 99.3441 221.207 104.639 194.509 107.697C181.44 109.197 167.975 110.89 154.828 109.742C143.809 108.78 132.847 105.288 124.726 96.8623C117.763 89.6376 113.615 79.7083 115.041 69.23C115.3 67.3268 117.984 68.1359 117.726 70.0275C115.99 82.7826 124.037 94.5361 133.953 100.557C145.413 107.515 159.358 107.525 172.117 106.729C199.783 104.928 227.261 100.648 254.266 93.9332C280.803 87.4026 306.391 78.0668 331.951 68.0941C356.226 58.6226 381.043 49.3783 406.977 47.3268C429.48 45.5467 453.151 49.079 472.754 61.7499C489.983 72.8859 502.652 91.4572 506.689 112.768C510.634 133.593 505.171 154.553 490.541 169.085C475.393 184.132 454.623 190.564 435.267 196.489C410.717 204.003 386.694 212.787 363.44 224.192C339.87 235.72 317.265 249.413 295.876 265.12C275.229 280.322 254.854 299.451 248.324 326.571C245.282 339.204 245.844 352.603 250.933 364.536C255.459 375.146 262.912 384.071 271.594 390.954C292.31 407.379 318.418 410.751 343.441 411.087C371.545 411.463 399.649 410.441 427.762 410.939C485.055 411.952 542.231 415.709 599.289 422.211C613.587 423.842 627.866 425.644 642.128 427.618C654.955 429.394 667.826 431.159 680.438 434.313C702.862 439.921 724.683 450.705 738.621 471.191C744.807 480.071 748.639 490.594 749.709 501.637C750.684 513.161 748.066 524.706 743.231 534.958C732.528 557.648 712.48 572.081 691.19 581.562C679.786 586.641 667.958 590.488 656.153 594.309C654.433 594.865 653.698 591.97 655.413 591.416Z" fill="#F2F2F2"/>
<path d="M116.839 93.5C129.141 93.5 139.113 82.7548 139.113 69.5C139.113 56.2452 129.141 45.5 116.839 45.5C104.537 45.5 94.5649 56.2452 94.5649 69.5C94.5649 82.7548 104.537 93.5 116.839 93.5Z" fill="#F2F2F2"/>
<path d="M271.365 139C283.666 139 293.639 128.255 293.639 115C293.639 101.745 283.666 91 271.365 91C259.063 91 249.091 101.745 249.091 115C249.091 128.255 259.063 139 271.365 139Z" fill="#F2F2F2"/>
<path d="M402.225 48C414.527 48 424.499 37.2548 424.499 24C424.499 10.7452 414.527 0 402.225 0C389.924 0 379.951 10.7452 379.951 24C379.951 37.2548 389.924 48 402.225 48Z" fill="#F2F2F2"/>
<path d="M483.896 150C496.198 150 506.17 139.255 506.17 126C506.17 112.745 496.198 102 483.896 102C471.594 102 461.622 112.745 461.622 126C461.622 139.255 471.594 150 483.896 150Z" fill="#F2F2F2"/>
<path d="M373.455 268C385.756 268 395.729 257.255 395.729 244C395.729 230.745 385.756 220 373.455 220C361.153 220 351.181 230.745 351.181 244C351.181 257.255 361.153 268 373.455 268Z" fill="#F2F2F2"/>
<path d="M233.314 325C245.616 325 255.588 314.255 255.588 301C255.588 287.745 245.616 277 233.314 277C221.012 277 211.04 287.745 211.04 301C211.04 314.255 221.012 325 233.314 325Z" fill="#F2F2F2"/>
<path d="M381.807 414C394.109 414 404.081 403.255 404.081 390C404.081 376.745 394.109 366 381.807 366C369.506 366 359.533 376.745 359.533 390C359.533 403.255 369.506 414 381.807 414Z" fill="#F2F2F2"/>
<path d="M541.438 464C553.74 464 563.712 453.255 563.712 440C563.712 426.745 553.74 416 541.438 416C529.136 416 519.164 426.745 519.164 440C519.164 453.255 529.136 464 541.438 464Z" fill="#F2F2F2"/>
<path d="M727.983 453C740.285 453 750.257 442.255 750.257 429C750.257 415.745 740.285 405 727.983 405C715.681 405 705.709 415.745 705.709 429C705.709 442.255 715.681 453 727.983 453Z" fill="#F2F2F2"/>
<path d="M395.796 68.0035C329.075 68.5113 274.444 126.933 273.496 198.82C273.487 199.484 273.483 204.15 273.483 210.254C273.484 219.204 276.783 227.786 282.656 234.115C288.529 240.443 296.495 243.999 304.801 244C308.918 243.999 312.995 243.124 316.798 241.425C320.601 239.725 324.057 237.235 326.967 234.097C329.876 230.958 332.184 227.232 333.757 223.132C335.33 219.032 336.137 214.639 336.134 210.202C336.131 206.05 336.129 203.176 336.129 203C336.127 191.89 338.809 180.971 343.911 171.316C349.013 161.662 356.36 153.605 365.229 147.938C374.098 142.271 384.183 139.189 394.492 138.996C404.802 138.803 414.98 141.504 424.027 146.835C433.073 152.166 440.676 159.942 446.087 169.399C451.498 178.856 454.532 189.668 454.889 200.771C455.246 211.875 452.914 222.887 448.123 232.725C443.332 242.563 436.246 250.887 427.564 256.879L427.575 256.894C427.575 256.894 383 287.813 369.411 330.229L369.422 330.232C367.033 338.921 365.822 347.937 365.827 357C365.827 360.725 366.031 393.321 366.424 419.778C366.561 428.906 370.024 437.611 376.064 444.013C382.105 450.415 390.239 454.002 398.712 454C402.969 454 407.185 453.093 411.116 451.33C415.047 449.568 418.615 446.986 421.617 443.732C424.618 440.478 426.992 436.617 428.603 432.371C430.214 428.124 431.03 423.577 431.004 418.989C430.867 394.76 430.793 366.548 430.793 364.5C430.793 338.455 454.112 312.505 473.266 295.583C495.323 276.096 511.195 249.54 517.57 219.584C518.981 213.416 519.758 207.1 519.889 200.75C519.889 183.236 516.673 165.896 510.426 149.727C504.178 133.559 495.024 118.882 483.489 106.543C471.954 94.2039 458.267 84.446 443.217 77.8316C428.166 71.2171 412.05 67.8769 395.796 68.0035Z" fill="#F5233C"/>
<path d="M782.825 595.262H1.10528C0.812753 595.261 0.532506 595.135 0.325959 594.912C0.119412 594.689 0.00341797 594.386 0.00341797 594.071C0.00341797 593.756 0.119412 593.454 0.325959 593.23C0.532506 593.007 0.812753 592.881 1.10528 592.88H782.825C783.118 592.88 783.399 593.006 783.607 593.229C783.814 593.452 783.93 593.755 783.93 594.071C783.93 594.387 783.814 594.69 783.607 594.913C783.399 595.136 783.118 595.262 782.825 595.262Z" fill="#3F3D56"/>
<path d="M583.254 272.996C598.631 272.996 611.096 259.565 611.096 242.996C611.096 226.428 598.631 212.996 583.254 212.996C567.877 212.996 555.411 226.428 555.411 242.996C555.411 259.565 567.877 272.996 583.254 272.996Z" fill="#2F2E41"/>
<path d="M531.804 582.129H520.426L515.013 534.841H531.806L531.804 582.129Z" fill="#A0616A"/>
<path d="M512.299 578.625H534.242V593.512H498.482C498.482 591.557 498.84 589.622 499.534 587.815C500.228 586.009 501.246 584.368 502.529 582.986C503.812 581.603 505.335 580.507 507.011 579.759C508.688 579.011 510.484 578.625 512.299 578.625Z" fill="#2F2E41"/>
<path d="M619.972 582.129H608.594L603.181 534.841H619.974L619.972 582.129Z" fill="#A0616A"/>
<path d="M600.467 578.625H622.41V593.512H586.65C586.65 591.557 587.008 589.622 587.702 587.815C588.396 586.009 589.414 584.368 590.697 582.986C591.98 581.603 593.503 580.507 595.179 579.759C596.856 579.011 598.652 578.625 600.467 578.625Z" fill="#2F2E41"/>
<path d="M579.022 273.171C591.611 273.171 601.817 262.175 601.817 248.61C601.817 235.045 591.611 224.049 579.022 224.049C566.433 224.049 556.228 235.045 556.228 248.61C556.228 262.175 566.433 273.171 579.022 273.171Z" fill="#A0616A"/>
<path d="M592.608 352.406L602.808 327.156C605.285 321.233 605.995 314.627 604.84 308.25C603.684 301.874 600.721 296.041 596.358 291.556C595.462 290.601 594.51 289.71 593.508 288.886C588.476 284.644 582.274 282.332 575.884 282.316C571.588 282.334 567.346 283.35 563.448 285.296C563.114 285.456 562.789 285.626 562.455 285.796C561.814 286.126 561.184 286.486 560.571 286.856C556.575 289.328 553.175 292.777 550.644 296.925C548.113 301.073 546.522 305.804 546 310.736L541.498 351.376C540.366 354.566 499.976 469.766 514.102 557.716C514.252 558.655 514.677 559.518 515.315 560.178C515.953 560.839 516.77 561.262 517.647 561.386L531.967 563.486C533.013 563.64 534.074 563.362 534.937 562.707C535.8 562.052 536.4 561.069 536.617 559.956L560.645 436.546C560.795 435.779 561.179 435.089 561.736 434.585C562.293 434.081 562.99 433.792 563.717 433.766C564.444 433.739 565.158 433.976 565.745 434.439C566.332 434.901 566.759 435.562 566.956 436.316L600.905 566.096C601.147 567.039 601.67 567.87 602.392 568.463C603.115 569.055 603.998 569.376 604.905 569.376C605.176 569.374 605.446 569.347 605.713 569.296L623.207 565.666C624.224 565.461 625.133 564.854 625.757 563.964C626.38 563.075 626.672 561.966 626.576 560.856C624.006 529.966 610.344 375.236 592.608 352.406Z" fill="#141E46"/>
<path d="M490.436 269.05C490.278 270.51 490.419 271.99 490.849 273.385C491.279 274.78 491.987 276.057 492.925 277.125C493.862 278.193 495.006 279.027 496.274 279.567C497.543 280.108 498.907 280.342 500.268 280.253L513.01 313.246L522.648 297.851L509.071 268.881C508.781 266.426 507.665 264.171 505.935 262.542C504.205 260.914 501.981 260.026 499.684 260.047C497.387 260.068 495.177 260.996 493.472 262.655C491.768 264.314 490.688 266.59 490.436 269.05Z" fill="#A0616A"/>
<path d="M577.758 385.626C579.113 385.452 580.416 384.96 581.575 384.184C582.734 383.408 583.721 382.368 584.466 381.137C585.212 379.906 585.698 378.514 585.89 377.058C586.082 375.603 585.976 374.12 585.579 372.713L612.387 351.675L596.247 345.163L573.264 366.139C571.116 367.015 569.34 368.71 568.274 370.902C567.207 373.094 566.924 375.632 567.478 378.034C568.032 380.436 569.385 382.535 571.279 383.935C573.174 385.334 575.479 385.936 577.758 385.626Z" fill="#A0616A"/>
<path d="M534.056 335.241C533.028 335.24 532.003 335.131 530.995 334.916C528.557 334.416 526.27 333.277 524.336 331.6C522.402 329.923 520.881 327.759 519.907 325.3L502.056 301.846C501.678 301.351 501.403 300.773 501.25 300.154C501.096 299.534 501.067 298.887 501.165 298.254C501.263 297.622 501.485 297.019 501.816 296.486C502.147 295.953 502.581 295.503 503.087 295.166L515.787 286.695C516.256 286.382 516.778 286.173 517.322 286.078C517.867 285.984 518.423 286.006 518.959 286.145C519.496 286.284 520.001 286.535 520.447 286.885C520.892 287.236 521.269 287.677 521.555 288.185L534.137 310.519L558.231 291.333C560.15 290.249 562.366 289.945 564.475 290.476C566.584 291.008 568.446 292.339 569.719 294.227C570.993 296.115 571.593 298.434 571.411 300.76C571.229 303.085 570.277 305.263 568.728 306.894L544.679 330.531C541.853 333.549 538.035 335.242 534.056 335.241Z" fill="#141E46"/>
<path d="M599.162 370.514C599.129 370.514 599.097 370.514 599.064 370.513C598.478 370.497 597.902 370.349 597.373 370.079C596.844 369.808 596.373 369.421 595.991 368.942L584.7 354.749C584.315 354.265 584.03 353.7 583.864 353.089C583.697 352.478 583.653 351.836 583.734 351.205C583.814 350.575 584.018 349.97 584.332 349.43C584.646 348.891 585.063 348.429 585.554 348.076L606.697 332.888L587.543 308.076C586.429 306.075 586.02 303.708 586.392 301.408C586.763 299.109 587.89 297.03 589.566 295.552C591.243 294.074 593.357 293.295 595.522 293.358C597.687 293.421 599.759 294.321 601.36 295.893L624.639 320.406C626.471 322.21 627.87 324.465 628.715 326.979C629.56 329.493 629.827 332.191 629.491 334.84C629.156 337.49 628.229 340.012 626.789 342.19C625.35 344.368 623.442 346.138 621.228 347.346L602.201 369.1C601.811 369.546 601.34 369.902 600.817 370.145C600.294 370.388 599.731 370.513 599.162 370.514Z" fill="#141E46"/>
<path d="M573.226 318.214C573.045 318.214 572.864 318.202 572.684 318.177C571.898 318.074 571.156 317.73 570.545 317.186C569.935 316.643 569.482 315.921 569.241 315.108L560.756 287.079C560.543 286.371 560.576 285.603 560.848 284.918C561.12 284.234 561.613 283.678 562.235 283.355L562.511 283.214C562.76 283.086 563.007 282.96 563.26 282.839C567.216 280.862 571.523 279.831 575.885 279.816C581.546 279.827 587.082 281.619 591.812 284.973C592.446 285.427 592.889 286.132 593.045 286.935C593.202 287.739 593.059 288.576 592.648 289.267L576.732 316.135C576.358 316.773 575.841 317.298 575.228 317.662C574.615 318.026 573.926 318.216 573.226 318.214Z" fill="#E6E6E6"/>
<path d="M605.204 229.603C610.236 229.603 614.315 225.208 614.315 219.786C614.315 214.365 610.236 209.97 605.204 209.97C600.173 209.97 596.094 214.365 596.094 219.786C596.094 225.208 600.173 229.603 605.204 229.603Z" fill="#2F2E41"/>
<path d="M573.973 208.996C567.573 208.996 561.436 211.735 556.91 216.611C552.385 221.487 549.843 228.1 549.843 234.996V245.996H562.399L568.404 234.996L570.206 245.996H608.312L598.103 234.996C598.103 228.1 595.561 221.487 591.036 216.611C586.51 211.735 580.373 208.996 573.973 208.996Z" fill="#2F2E41"/>
<path d="M609.888 213.062C610.895 209.667 612.981 206.764 615.779 204.863C618.576 202.962 621.906 202.184 625.183 202.666C630.989 203.712 635.58 208.741 638.315 214.357C641.05 219.974 642.313 226.26 644.152 232.285C645.991 238.311 648.599 244.369 653.241 248.269C657.883 252.17 665.006 253.228 669.566 249.215C669.045 253.397 667.317 257.296 664.627 260.362C661.936 263.427 658.42 265.504 654.574 266.298C650.728 267.092 646.748 266.563 643.197 264.786C639.645 263.009 636.702 260.075 634.784 256.397C632.378 251.785 631.757 246.38 631.044 241.146C630.33 235.911 629.403 230.496 626.531 226.205C623.659 221.915 618.283 219.112 613.72 221.067L609.888 213.062Z" fill="#2F2E41"/>
<path d="M313.643 228.038C305.337 228.037 297.372 224.481 291.499 218.153C285.626 211.825 282.326 203.242 282.326 194.292C282.325 188.188 282.329 183.522 282.338 182.858C282.602 161.951 287.488 141.414 296.592 122.949C281.635 145.012 273.411 171.538 273.057 198.858C273.049 199.522 273.045 204.188 273.045 210.292C273.045 219.242 276.345 227.825 282.218 234.153C288.091 240.481 296.056 244.037 304.362 244.038C311.188 244.035 317.825 241.632 323.267 237.194C328.709 232.756 332.658 226.525 334.514 219.448C328.779 224.988 321.346 228.048 313.643 228.038Z" fill="#3F3D56"/>
<path d="M397.919 139.109C407.521 139.603 416.868 142.601 425.158 147.845C433.448 153.089 440.433 160.423 445.514 169.216C450.594 178.01 453.617 188 454.325 198.33C455.032 208.66 453.402 219.021 449.575 228.522C455.111 221.517 459.18 213.308 461.505 204.454C463.829 195.601 464.355 186.312 463.045 177.22C461.736 168.128 458.622 159.447 453.917 151.769C449.212 144.091 443.025 137.596 435.779 132.728C428.534 127.86 420.399 124.732 411.929 123.558C403.46 122.385 394.855 123.193 386.702 125.927C378.548 128.661 371.038 133.258 364.683 139.403C358.328 145.548 353.277 153.098 349.875 161.537C355.755 154.084 363.144 148.186 371.474 144.298C379.804 140.409 388.851 138.634 397.919 139.109Z" fill="#3F3D56"/>
<path d="M407.554 438.038C399.081 438.04 390.947 434.453 384.906 428.051C378.866 421.649 375.403 412.944 375.266 403.816C374.873 377.36 374.67 344.764 374.67 341.038C374.664 331.976 375.875 322.96 378.265 314.27L378.253 314.267C379.664 309.906 381.368 305.661 383.352 301.566C377.262 310.311 372.416 319.984 368.972 330.267L368.984 330.27C366.594 338.96 365.383 347.976 365.389 357.038C365.389 360.764 365.592 393.36 365.985 419.816C366.123 428.944 369.585 437.649 375.625 444.051C381.666 450.453 389.8 454.04 398.273 454.038C405.259 454.037 412.057 451.595 417.646 447.079C423.235 442.563 427.315 436.216 429.273 428.99C423.336 434.823 415.588 438.05 407.554 438.038Z" fill="#3F3D56"/>
<path d="M117.441 582.585L128.818 582.584L134.232 535.296L117.438 535.297L117.441 582.585Z" fill="#FFB8B8"/>
<path d="M150.762 593.967L115.002 593.969L115.002 579.082L136.945 579.081C140.61 579.081 144.124 580.649 146.715 583.441C149.306 586.233 150.762 590.019 150.762 593.967Z" fill="#2F2E41"/>
<path d="M76.6048 582.585L87.9822 582.584L93.3957 535.296L76.6021 535.297L76.6048 582.585Z" fill="#FFB8B8"/>
<path d="M109.927 593.967L74.167 593.969L74.1664 579.082L96.1099 579.081C99.7742 579.081 103.288 580.649 105.88 583.441C108.471 586.233 109.927 590.019 109.927 593.967Z" fill="#2F2E41"/>
<path d="M86.5477 568.041L75.4339 567.411C74.8608 567.379 74.2994 567.224 73.7822 566.956C73.265 566.688 72.8023 566.313 72.4209 565.851C72.0395 565.389 71.7469 564.85 71.5602 564.265C71.3735 563.68 71.2963 563.062 71.3332 562.444L84.6165 403.979L145.788 421.764L151.681 420.032L133.251 560.317C133.094 561.372 132.607 562.338 131.872 563.055C131.137 563.772 130.196 564.198 129.206 564.261L117.226 564.863C116.627 564.898 116.027 564.8 115.465 564.573C114.903 564.347 114.391 563.997 113.961 563.547C113.531 563.096 113.192 562.554 112.966 561.955C112.74 561.356 112.632 560.713 112.649 560.067L114.82 475.871C114.83 475.481 114.704 475.102 114.468 474.807C114.231 474.513 113.901 474.324 113.542 474.279C113.183 474.234 112.821 474.335 112.528 474.563C112.235 474.791 112.031 475.129 111.958 475.51L91.0233 564.323C90.8257 565.377 90.295 566.324 89.5218 567.003C88.7485 567.683 87.7805 568.052 86.7828 568.048C86.7049 568.048 86.6266 568.046 86.5477 568.041Z" fill="#141E46"/>
<path d="M119.484 274.32C132.073 274.32 142.278 263.323 142.278 249.759C142.278 236.194 132.073 225.198 119.484 225.198C106.895 225.198 96.689 236.194 96.689 249.759C96.689 263.323 106.895 274.32 119.484 274.32Z" fill="#FFB8B8"/>
<path d="M81.5317 321.918L84.038 380.185L84.9441 401.384C84.9802 402.307 85.2709 403.197 85.7792 403.941C86.2875 404.684 86.9901 405.248 87.7973 405.559L146.578 428.503C147.053 428.693 147.556 428.788 148.063 428.783C148.642 428.786 149.216 428.663 149.75 428.422C150.284 428.181 150.767 427.826 151.171 427.379C151.575 426.933 151.891 426.402 152.101 425.821C152.311 425.239 152.409 424.618 152.391 423.995L149.981 319.228C149.823 310.632 146.887 302.365 141.678 295.853C136.469 289.34 129.315 284.989 121.449 283.551C120.88 283.457 120.302 283.364 119.723 283.28C114.845 282.628 109.894 283.135 105.218 284.766C100.541 286.398 96.2532 289.113 92.6556 292.722C88.9302 296.414 86.003 300.942 84.0808 305.987C82.1586 311.032 81.2884 316.47 81.5317 321.918Z" fill="#CCCCCC"/>
<path d="M174.658 416.876C173.268 416.411 171.998 415.603 170.949 414.515C169.9 413.427 169.102 412.09 168.618 410.611C168.134 409.132 167.977 407.551 168.161 405.995C168.345 404.439 168.863 402.951 169.676 401.649L149.742 373.089L166.944 371.942L183.235 399.239C184.98 400.692 186.193 402.761 186.664 405.081C187.134 407.402 186.831 409.827 185.808 411.931C184.784 414.035 183.106 415.684 181.067 416.588C179.029 417.492 176.76 417.594 174.658 416.876Z" fill="#FFB8B8"/>
<path d="M160.643 396.481C160.115 396.25 159.635 395.908 159.23 395.476C158.825 395.044 158.504 394.529 158.285 393.962L128.253 316.868C127.664 315.359 127.357 313.739 127.349 312.101C127.341 310.464 127.632 308.841 128.207 307.325C128.781 305.809 129.627 304.429 130.697 303.266C131.766 302.102 133.038 301.177 134.439 300.543C135.84 299.91 137.344 299.58 138.864 299.572C140.384 299.565 141.89 299.88 143.296 300.501C144.703 301.121 145.982 302.033 147.061 303.187C148.14 304.34 148.998 305.711 149.585 307.221L179.616 384.316C180.06 385.46 180.065 386.746 179.63 387.893C179.195 389.04 178.355 389.954 177.295 390.435L163.963 396.464C163.438 396.703 162.875 396.828 162.305 396.831C161.735 396.834 161.17 396.715 160.643 396.481Z" fill="#CCCCCC"/>
<path d="M112.155 393.762L140.999 334.253C141.555 333.108 142.51 332.248 143.654 331.862C144.798 331.475 146.037 331.593 147.101 332.189L188.968 355.749C190.03 356.349 190.828 357.378 191.187 358.61C191.546 359.843 191.437 361.179 190.883 362.324L162.039 421.833C161.483 422.978 160.528 423.838 159.384 424.225C158.24 424.611 157 424.493 155.937 423.897L114.07 400.337C113.007 399.737 112.209 398.708 111.85 397.476C111.491 396.243 111.601 394.907 112.155 393.762Z" fill="#3F3D56"/>
<path d="M131.499 366.574C130.986 365.106 130.162 363.787 129.092 362.724C128.022 361.66 126.737 360.88 125.338 360.447C123.939 360.013 122.465 359.939 121.034 360.228C119.604 360.517 118.255 361.163 117.097 362.113L89.4606 342.359L89.4136 360.929L115.665 376.841C117.114 378.631 119.102 379.814 121.28 380.183C123.458 380.552 125.687 380.083 127.576 378.858C129.465 377.633 130.893 375.731 131.61 373.485C132.328 371.238 132.288 368.792 131.499 366.574Z" fill="#FFB8B8"/>
<path d="M96.5565 370.749L73.9699 351.472C71.5265 350.588 69.3186 349.078 67.5359 347.072C65.7532 345.066 64.4488 342.624 63.7348 339.956C63.0207 337.287 62.9183 334.472 63.4364 331.751C63.9545 329.031 65.0775 326.486 66.7091 324.336L87.2171 295.377C88.6422 293.501 90.6465 292.239 92.8636 291.824C95.0806 291.409 97.3623 291.867 99.2916 293.115C101.221 294.363 102.669 296.318 103.371 298.621C104.073 300.925 103.982 303.424 103.115 305.661L86.8884 334.261L110.735 346.448C111.289 346.732 111.781 347.138 112.179 347.642C112.577 348.146 112.871 348.734 113.042 349.37C113.213 350.005 113.257 350.672 113.171 351.326C113.084 351.981 112.87 352.609 112.543 353.168L102.917 369.582C102.591 370.136 102.162 370.61 101.655 370.974C101.149 371.337 100.578 371.582 99.9778 371.693C99.9539 371.697 99.93 371.701 99.906 371.705C99.3167 371.801 98.7154 371.766 98.1393 371.601C97.5632 371.437 97.0244 371.147 96.5565 370.749Z" fill="#CCCCCC"/>
<path d="M102.259 266.205C102.161 265.897 102.13 265.569 102.168 265.246C102.206 264.922 102.313 264.613 102.479 264.341C102.645 264.069 102.867 263.841 103.128 263.676C103.388 263.51 103.68 263.411 103.982 263.386C104.599 263.423 105.203 263.593 105.758 263.888C106.312 264.183 106.806 264.595 107.208 265.101C108.033 266.126 108.993 267.015 110.058 267.738C111.161 268.337 112.657 268.252 113.285 267.11C113.875 266.038 113.471 264.602 113.114 263.357C112.204 260.188 111.695 256.902 111.601 253.587C111.498 249.886 111.982 246.025 113.884 243.139C116.337 239.414 120.725 238 124.877 238.102C129.03 238.205 133.114 239.586 137.227 240.459C138.647 240.76 140.316 240.914 141.266 239.729C142.276 238.468 141.905 236.427 141.475 234.725C140.361 230.308 139.178 225.74 136.589 222.173C133.789 218.466 129.789 216.039 125.395 215.383C121.177 214.82 116.895 215.343 112.901 216.911C106.394 219.121 100.669 223.419 96.49 229.23C92.1825 235.409 90.3211 243.175 91.313 250.83C92.2821 257.496 95.5607 263.519 100.488 267.684L102.259 266.205Z" fill="#2F2E41"/>
<path d="M390.963 582.78C384.899 579.934 379.531 575.608 375.284 570.144C371.036 564.68 368.026 558.227 366.489 551.294C364.953 544.362 364.933 537.139 366.431 530.197C367.929 523.255 370.904 516.782 375.121 511.291C370.231 515.137 366.157 520.06 363.169 525.733C360.18 531.406 358.346 537.698 357.787 544.193C357.228 550.688 357.957 557.237 359.927 563.405C361.897 569.573 365.061 575.219 369.211 579.969C373.36 584.718 378.4 588.462 383.995 590.953C389.59 593.443 395.613 594.623 401.664 594.413C407.715 594.204 413.655 592.611 419.09 589.738C424.525 586.866 429.332 582.782 433.19 577.755C427.172 582.494 420.107 585.452 412.698 586.333C405.29 587.215 397.796 585.99 390.963 582.78Z" fill="#3F3D56"/>
</g>
<defs>
<clipPath id="clip0_144_31">
<rect width="783.93" height="595.262" fill="white"/>
</clipPath>
</defs>
</svg>
