<svg width="582" height="600" viewBox="0 0 582 600" fill="none" xmlns="http://www.w3.org/2000/svg">
<path fill-rule="evenodd" clip-rule="evenodd" d="M325.591 3.08257C425.11 6.19321 493.855 98.5304 543.881 184.617C584.29 254.155 585.96 335.752 563.843 413.077C543.423 484.473 498.552 546.715 431.304 578.213C364.932 609.302 291.503 597.385 222.38 573.018C138.24 543.358 39.7407 515.043 11.7773 430.324C-18.0423 339.981 33.1725 247.09 89.4918 170.415C149.57 88.6215 224.154 -0.0880301 325.591 3.08257Z" fill="#9C91D6" stroke="#4623F5" stroke-width="6"/>
<path d="M432.004 229C432.004 264.673 418.609 298.654 394.357 324.88C382.231 337.852 375.604 353.926 375.604 370C375.604 377.755 369.259 384.1 361.504 384.1H220.504C212.749 384.1 206.404 377.755 206.404 370C206.404 353.926 199.777 337.852 187.651 324.88C163.117 298.513 149.722 263.968 150.004 228.013C150.568 152.86 212.044 90.115 287.056 88H291.004C368.695 88 432.004 151.309 432.004 229Z" fill="#F3AF06"/>
<path d="M347.404 454.6C347.404 459.535 346.84 464.188 345.571 468.7C339.367 493.093 317.23 511 291.004 511C264.778 511 242.641 493.093 236.437 468.7C235.168 464.188 234.604 459.535 234.604 454.6C234.604 446.845 240.949 440.5 248.704 440.5H333.304C341.059 440.5 347.404 446.845 347.404 454.6Z" fill="#624F81"/>
<path d="M375.604 370V440.5C375.604 456.01 362.914 468.7 347.404 468.7H234.604C219.094 468.7 206.404 456.01 206.404 440.5V370C206.404 362.245 212.749 355.9 220.504 355.9H361.504C369.259 355.9 375.604 362.245 375.604 370Z" fill="#BF4D48"/>
<path d="M375.604 398.2H206.404V426.4H375.604V398.2Z" fill="#DB5E5B"/>
</svg>
