<svg width="784" height="869" viewBox="0 0 784 869" fill="none" xmlns="http://www.w3.org/2000/svg">
<g clip-path="url(#clip0_144_2)">
<path d="M533.24 538.196C960.679 824.193 821.76 930.762 266.62 833.701C121.57 808.34 0 701.399 0 538.196C0 374.994 119.37 242.692 266.62 242.692C413.87 242.692 397.6 447.44 533.24 538.196Z" fill="#3F3D56"/>
<path opacity="0.1" d="M571.456 816.815C664.715 816.815 740.316 810.05 740.316 801.706C740.316 793.362 664.715 786.598 571.456 786.598C478.198 786.598 402.597 793.362 402.597 801.706C402.597 810.05 478.198 816.815 571.456 816.815Z" fill="black"/>
<path opacity="0.1" d="M238.428 318.815C287.857 318.815 327.928 312.05 327.928 303.706C327.928 295.362 287.857 288.598 238.428 288.598C188.998 288.598 148.928 295.362 148.928 303.706C148.928 312.05 188.998 318.815 238.428 318.815Z" fill="black"/>
<path opacity="0.1" d="M233.737 340.899C195.335 340.891 157.715 351.748 125.221 372.214C92.7279 392.68 66.687 421.921 50.1069 456.559C69.1658 435.503 92.4301 418.681 118.396 407.178C144.363 395.675 172.454 389.748 200.854 389.779C313.252 389.779 404.374 480.901 404.374 593.299C404.42 623.708 397.622 653.736 384.484 681.16C418.509 643.753 437.33 594.985 437.257 544.419C437.257 432.021 346.135 340.899 233.737 340.899Z" fill="black"/>
<path opacity="0.3" d="M404.374 592.411C404.42 622.819 397.622 652.848 384.484 680.271C365.425 701.327 342.161 718.149 316.195 729.652C290.228 741.155 262.137 747.082 233.737 747.051C121.339 747.051 30.217 655.929 30.217 543.531C30.1711 513.122 36.969 483.094 50.1069 455.67C69.1658 434.615 92.4301 417.792 118.396 406.289C144.363 394.786 172.454 388.859 200.854 388.891C313.252 388.891 404.374 480.013 404.374 592.411Z" fill="black"/>
<path d="M233.737 748.05C120.964 748.05 29.2165 656.303 29.2165 543.531C29.1346 512.969 35.9679 482.784 49.2048 455.238C65.8665 420.43 92.0353 391.045 124.688 370.479C157.342 349.912 195.147 339.003 233.737 339.01C346.51 339.01 438.257 430.758 438.257 543.531C438.259 570.389 432.97 596.985 422.692 621.799C412.415 646.613 397.35 669.16 378.358 688.152C359.367 707.144 336.82 722.208 312.005 732.486C287.191 742.763 260.595 748.052 233.737 748.05ZM233.737 341.01C156.248 341.01 84.5222 386.187 51.0086 456.103C37.9012 483.38 31.1349 513.268 31.2165 543.531C31.2165 655.201 122.067 746.05 233.737 746.05C260.333 746.052 286.669 740.815 311.24 730.638C335.812 720.461 358.138 705.544 376.944 686.738C395.75 667.932 410.668 645.606 420.845 621.034C431.022 596.462 436.259 570.127 436.257 543.531C436.257 431.86 345.407 341.01 233.737 341.01Z" fill="white"/>
<path d="M699.356 750.635C684.574 769.966 686.265 796.093 686.265 796.093C686.265 796.093 711.921 790.876 726.702 771.544C741.484 752.213 739.793 726.086 739.793 726.086C739.793 726.086 714.137 731.303 699.356 750.635Z" fill="#D0CDE1"/>
<path d="M709.042 754.976C706.174 779.142 686.756 796.703 686.756 796.703C686.756 796.703 671.989 775.084 674.858 750.919C677.726 726.753 697.144 709.191 697.144 709.191C697.144 709.191 711.911 730.81 709.042 754.976Z" fill="#F5233C"/>
<path d="M172.828 188.89C219.208 188.89 256.807 151.291 256.807 104.911C256.807 58.5304 219.208 20.9316 172.828 20.9316C126.447 20.9316 88.8486 58.5304 88.8486 104.911C88.8486 151.291 126.447 188.89 172.828 188.89Z" fill="#F5233C"/>
<path d="M354.902 190.533C354.942 274.417 305.088 303.727 243.578 303.756C242.149 303.757 240.727 303.742 239.312 303.711C236.462 303.651 233.641 303.522 230.849 303.325C175.332 299.421 132.182 268.653 132.145 190.641C132.105 109.908 235.238 7.97471 242.973 0.4377C242.979 0.4377 242.979 0.437699 242.986 0.430849C243.28 0.143599 243.431 0 243.431 0C243.431 0 354.861 106.655 354.902 190.533Z" fill="#F3AF06"/>
<path d="M239.518 290.927L280.226 233.991L239.418 297.175L239.312 303.71C236.461 303.65 233.64 303.522 230.849 303.325L235.197 219.404L235.162 218.755L235.237 218.632L235.651 210.702L194.679 147.4L235.771 204.761L235.874 206.443L239.159 143.038L204.079 77.6208L239.584 131.895L242.972 0.43748L242.986 0L242.986 0.430629L242.462 104.098L277.326 62.9836L242.316 113.026L241.421 169.799L273.981 115.301L241.295 178.146L240.798 209.715L288.052 133.854L240.618 220.728L239.518 290.927Z" fill="#3F3D56"/>
<path d="M572.956 238.594C562.281 220.557 541.162 219.716 541.162 219.716C541.162 219.716 520.583 217.085 507.382 244.555C495.077 270.16 478.095 294.881 504.648 300.875L509.444 285.947L512.414 301.987C516.195 302.259 519.988 302.323 523.775 302.181C552.211 301.263 579.292 302.449 578.42 292.245C577.261 278.681 583.227 255.949 572.956 238.594Z" fill="#2F2E41"/>
<path d="M525.862 407.843L528.608 435.301L592.22 428.437L593.593 407.843H525.862Z" fill="#A0616A"/>
<path d="M518.997 422.945L517.167 438.962C517.167 438.962 496.115 468.252 497.946 518.592C499.776 568.933 469.114 792.72 491.081 794.55C513.048 796.381 552.405 799.127 554.236 792.262C556.066 785.398 559.728 524.999 559.728 524.999C559.728 524.999 569.338 792.587 585.813 793.502C602.288 794.418 657.663 796.248 657.663 789.384C657.663 782.519 609.153 476.031 609.153 476.031L601.373 450.403L593.593 418.826C593.593 418.826 545.083 427.064 531.811 423.86C518.54 420.657 518.997 422.945 518.997 422.945Z" fill="#141E46"/>
<path d="M540.965 296.178C557.141 296.178 570.254 283.065 570.254 266.889C570.254 250.713 557.141 237.6 540.965 237.6C524.789 237.6 511.676 250.713 511.676 266.889C511.676 283.065 524.789 296.178 540.965 296.178Z" fill="#A0616A"/>
<path d="M592.221 315.399L586.66 323.49L583.1 328.666L577.118 337.366L547.372 339.654C547.372 339.654 540.145 337.32 531.807 333.911C528.727 332.648 525.492 331.238 522.416 329.742C510.486 323.948 500.912 316.877 511.676 312.196C513.587 311.375 515.423 310.389 517.163 309.248C518.746 308.214 520.219 307.021 521.561 305.688C524.318 302.925 526.359 299.531 527.508 295.8C528.656 292.069 528.877 288.115 528.151 284.279L556.982 280.161C556.145 287.474 563.417 295.45 571.567 301.963C574.244 304.109 577.022 306.091 579.635 307.839C586.486 312.424 592.221 315.399 592.221 315.399Z" fill="#A0616A"/>
<path d="M552.863 324.094C552.863 324.094 524.718 319.289 518.311 309.221C518.311 309.221 490.624 312.653 492.912 327.298C495.2 341.942 518.082 422.03 518.082 422.03C518.082 422.03 575.287 411.046 596.339 419.284L609.153 317.229C609.153 317.229 604.576 307.161 595.881 309.907C587.186 312.653 583.754 310.136 583.754 310.136C583.754 310.136 573.914 324.094 552.863 324.094Z" fill="#D0CDE1"/>
<path d="M578.491 484.727C578.491 484.727 598.17 506.693 587.187 510.355C576.203 514.016 562.932 495.71 562.932 495.71L578.491 484.727Z" fill="#A0616A"/>
<path d="M584.898 486.557C584.898 486.557 568.88 497.541 574.83 504.863C580.779 512.185 601.373 498.456 601.373 495.71C601.373 492.964 584.898 486.557 584.898 486.557Z" fill="#A0616A"/>
<path d="M545.541 427.064L532.269 429.352L523.574 364.824C524.075 353.118 523.688 341.39 522.416 329.742C521.446 321.962 519.826 314.484 517.162 309.248C518.745 308.214 520.219 307.021 521.56 305.688C524.745 310.736 530.557 321.426 531.807 333.911C532.133 337.037 532.135 340.189 531.811 343.315C529.523 364.824 529.981 368.943 529.981 368.943L545.541 427.064Z" fill="#2F2E41"/>
<path d="M514.879 313.111C514.879 313.111 493.37 307.161 491.539 319.975C489.709 332.789 491.997 365.74 497.031 378.096C502.065 390.452 519.455 430.725 519.455 430.725C519.455 430.725 551.033 470.997 552.406 480.608C553.779 490.218 560.643 500.286 560.643 500.286L582.61 486.099L539.592 413.334L520.828 362.994C520.828 362.994 528.608 317.229 514.879 313.111Z" fill="#D0CDE1"/>
<path d="M599.085 314.941L609.153 317.23C609.153 317.23 618.306 356.587 614.644 377.638C610.983 398.69 610.526 406.012 610.526 406.012L607.322 465.963C607.322 465.963 608.237 504.405 601.83 498.456C595.423 492.507 582.609 489.761 582.609 489.761C582.609 489.761 583.982 472.828 589.016 468.709C589.016 468.709 594.966 437.132 591.305 423.403C587.643 409.673 599.085 314.941 599.085 314.941Z" fill="#D0CDE1"/>
<path d="M602.746 359.332L591.077 426.835L583.983 423.86L596.339 359.332L583.1 328.666L571.567 301.962C574.245 304.109 577.022 306.09 579.636 307.839L586.66 323.49L602.746 359.332Z" fill="#2F2E41"/>
<path d="M568.236 236.855L547.372 225.926L518.559 230.397L512.598 256.726L527.437 256.155L531.583 246.482V255.996L538.43 255.732L542.404 240.332L544.888 256.726L569.23 256.229L568.236 236.855Z" fill="#2F2E41"/>
<path d="M527.02 801.706C534.873 801.706 541.239 799.318 541.239 796.373C541.239 793.428 534.873 791.041 527.02 791.041C519.166 791.041 512.8 793.428 512.8 796.373C512.8 799.318 519.166 801.706 527.02 801.706Z" fill="#2F2E41"/>
<path d="M623.003 801.706C630.856 801.706 637.223 799.318 637.223 796.373C637.223 793.428 630.856 791.041 623.003 791.041C615.15 791.041 608.783 793.428 608.783 796.373C608.783 799.318 615.15 801.706 623.003 801.706Z" fill="#2F2E41"/>
<path d="M263.546 648.795C249 658.26 232.238 663.769 214.913 664.779C197.589 665.788 180.3 662.262 164.754 654.549L166.955 650.06C185.694 659.265 206.933 662.076 227.422 658.063C247.91 654.05 266.519 643.433 280.399 627.838C294.28 612.243 302.668 592.528 304.279 571.713C305.89 550.897 300.635 530.127 289.319 512.582C278.003 495.037 261.249 481.684 241.622 474.566C221.996 467.448 200.577 466.958 180.645 473.171C160.713 479.383 143.366 491.957 131.259 508.966C119.153 525.975 112.954 546.483 113.611 567.35L108.613 567.504C108.059 549.946 112.117 532.549 120.382 517.049C128.648 501.548 140.831 488.484 155.719 479.159C170.606 469.835 187.678 464.575 205.231 463.905C222.785 463.234 240.208 467.176 255.764 475.338C271.319 483.5 284.464 495.596 293.887 510.421C303.311 525.246 308.684 542.283 309.471 559.832C310.258 577.38 306.432 594.829 298.374 610.439C290.316 626.048 278.308 639.273 263.546 648.795Z" fill="white"/>
<path d="M218.318 558.375C203.532 561.648 183.855 563.642 169.517 561.559L187.516 575.266L137.127 607.765L139.837 611.967L190.226 579.468L195.292 601.522C199.308 587.602 209.241 570.499 218.318 558.375Z" fill="white"/>
</g>
<defs>
<clipPath id="clip0_144_2">
<rect width="783.928" height="868.734" fill="white"/>
</clipPath>
</defs>
</svg>
