<svg width="784" height="869" viewBox="0 0 784 869" fill="none" xmlns="http://www.w3.org/2000/svg">
<g clip-path="url(#clip0_168_2)">
<path d="M334.185 589.09C334.185 589.09 438.293 570.343 474.73 540.661C511.168 510.978 781.848 496.918 781.848 589.09C781.848 681.262 470.566 721.88 470.566 721.88L307.117 707.82L334.185 589.09Z" fill="#FBBEBE"/>
<path opacity="0.1" d="M334.185 589.09C334.185 589.09 438.293 570.343 474.73 540.661C511.168 510.978 781.848 496.918 781.848 589.09C781.848 681.262 470.566 721.88 470.566 721.88L307.117 707.82L334.185 589.09Z" fill="black"/>
<path d="M364.376 571.906L342.514 667.202L0 673.451V532.85C0 532.85 131.176 487.545 235.283 584.404C235.283 584.404 358.13 562.532 364.376 571.906Z" fill="#5061A4"/>
<path d="M755.974 532.069C755.974 537.393 748.017 541.346 747.235 546.482C746.459 551.577 751.187 559.323 749.691 564.189C748.144 569.163 746.317 573.931 744.23 578.439C742.27 582.649 736.217 582.034 733.734 585.983C731.304 589.569 728.73 592.929 726.026 596.042C723.392 599.329 719.823 600.019 716.828 603.045C713.981 605.922 714.325 616.476 711.175 619.096C708.165 621.599 703.557 619.586 700.292 621.836C697.157 623.996 695.505 631.808 692.154 633.719C688.922 635.561 684.923 634.768 681.506 636.364C678.2 637.908 674.5 637.658 671.036 638.958C667.671 640.221 665.102 647.789 661.602 648.809C658.192 649.803 654.196 647.151 650.67 647.904C647.226 648.64 643.222 642.1 639.679 642.595C636.212 643.08 632.945 646.107 629.395 646.352C625.913 646.591 622.471 648.892 618.92 648.892C615.369 648.892 611.704 653.891 608.223 653.652C604.673 653.407 601.458 645.83 597.991 645.345C594.449 644.85 590.223 652.765 586.78 652.03C583.254 651.277 580.461 643.529 577.051 642.535C573.551 641.515 569.029 647.052 565.664 645.789C562.199 644.489 560.142 635.476 556.835 633.931C553.419 632.335 549.184 634.497 545.953 632.654C542.601 630.743 538.519 631.05 535.384 628.89C532.119 626.639 529.775 621.314 526.765 618.811C523.615 616.19 522.162 609.692 519.315 606.815C516.319 603.789 511.756 604.175 509.122 600.888C506.341 597.417 501.131 597.236 498.784 593.502C496.302 589.553 495.297 582.922 493.338 578.711C491.274 574.275 495.324 564.899 493.884 560.211C492.388 555.346 486.137 553.37 485.361 548.277C484.561 542.957 484.15 537.522 484.136 532.069C484.136 526.744 489.483 522.675 490.265 517.539C491.041 512.445 487.106 505.128 488.602 500.263C490.043 495.574 489.859 488.368 491.924 483.932C493.883 479.721 498.774 478.071 501.256 474.122C503.603 470.388 507.803 469.347 510.584 465.877C513.218 462.59 512.883 452.677 515.878 449.651C518.725 446.774 522.701 445.461 525.852 442.841C528.862 440.338 533.122 440.76 536.387 438.509C539.521 436.349 544.43 440.605 547.781 438.695C551.012 436.853 553.633 432.826 557.05 431.23C560.356 429.685 561.91 417.906 565.375 416.606C568.739 415.343 572.879 417.439 576.379 416.419C579.789 415.425 584.377 424.718 587.903 423.965C591.346 423.23 593.922 410.824 597.464 410.329C600.931 409.844 604.84 416.27 608.391 416.025C611.872 415.785 615.368 419.55 618.92 419.55C622.471 419.55 626.009 414.383 629.49 414.623C633.04 414.868 636.171 421.696 639.638 422.18C643.18 422.675 647.529 412.289 650.973 413.024C654.498 413.777 657.223 421.806 660.633 422.8C664.134 423.821 668.518 418.836 671.884 420.099C675.349 421.4 677.434 429.933 680.741 431.478C684.157 433.074 686.262 439.094 689.493 440.936C692.844 442.847 699.069 433.907 702.204 436.068C705.469 438.318 708.29 442.213 711.3 444.716C714.45 447.337 719.458 446.019 722.306 448.896C725.301 451.923 726.037 460.046 728.671 463.333C731.452 466.804 736.039 467.849 738.386 471.583C740.868 475.532 741.213 482.608 743.173 486.82C745.236 491.255 745.172 497.4 746.613 502.088C748.108 506.952 752.1 510.631 752.876 515.725C753.658 520.859 755.974 526.746 755.974 532.069Z" fill="#44563D"/>
<path d="M381.034 629.708C381.034 629.708 498.675 539.099 574.674 573.468C650.672 607.837 756.862 548.472 769.355 568.781C781.848 589.09 799.546 807.803 649.631 820.301C499.716 832.799 371.664 782.807 371.664 782.807L381.034 629.708Z" fill="#FBBEBE"/>
<path d="M353.329 620.059C353.329 620.059 399.773 615.648 397.691 640.644C395.609 665.64 393.527 859.357 381.034 864.044C368.541 868.73 269.639 868.73 229.037 868.73H0V569.23C0 569.23 162.408 554.721 243.612 615.648C243.612 615.648 341.241 613.533 353.329 620.059Z" fill="#141E46"/>
<path d="M570.905 151.598C566.468 151.974 562.187 154.198 558.545 158.02C554.902 161.842 552.041 167.111 550.282 173.237C545.125 191.942 551.765 213.915 561.733 227.556C571.7 241.196 584.505 248.993 596.138 259.242C611.764 273.007 625.806 292.115 633.624 316.644C641.443 341.173 642.275 371.557 633.084 394.99C624.554 416.74 609.043 429.757 594.25 441.763" stroke="#3F3D56" stroke-miterlimit="10"/>
<path d="M612.549 37.5552C608.111 37.9313 603.831 40.1551 600.188 43.9771C596.546 47.799 593.684 53.0681 591.925 59.1936C586.768 77.8995 593.408 99.8724 603.376 113.513C613.344 127.153 626.148 134.95 637.782 145.199C653.408 158.964 667.449 178.072 675.268 202.601C683.087 227.13 683.918 257.514 674.728 280.947C666.197 302.697 650.687 315.714 635.893 327.72" stroke="#3F3D56" stroke-miterlimit="10"/>
<path d="M749.468 63.7843C745.805 60.0051 741.513 57.8315 737.074 57.5073C732.634 57.1831 728.222 58.7211 724.332 61.9488C712.624 72.0027 708.91 95.4767 711.227 115.419C713.544 135.362 720.488 153.289 725.506 172.08C732.246 197.319 735.554 225.327 731.729 251.905C727.905 278.483 716.167 303.272 699.341 313.359C683.723 322.721 666.147 318.765 649.552 314.668" stroke="#3F3D56" stroke-miterlimit="10"/>
<path d="M628.81 299.542C642.609 299.542 653.795 291.388 653.795 281.33C653.795 271.273 642.609 263.119 628.81 263.119C615.01 263.119 603.824 271.273 603.824 281.33C603.824 291.388 615.01 299.542 628.81 299.542Z" fill="#FFCC4D"/>
<path d="M625.686 296.417C639.486 296.417 650.672 288.264 650.672 278.206C650.672 268.148 639.486 259.995 625.686 259.995C611.887 259.995 600.701 268.148 600.701 278.206C600.701 288.264 611.887 296.417 625.686 296.417Z" stroke="#3F3D56" stroke-miterlimit="10"/>
<path d="M682.946 283.919C696.745 283.919 707.932 275.766 707.932 265.708C707.932 255.65 696.745 247.497 682.946 247.497C669.146 247.497 657.96 255.65 657.96 265.708C657.96 275.766 669.146 283.919 682.946 283.919Z" fill="#FFCC4D"/>
<path d="M679.822 280.794C693.622 280.794 704.808 272.641 704.808 262.583C704.808 252.525 693.622 244.372 679.822 244.372C666.023 244.372 654.836 252.525 654.836 262.583C654.836 272.641 666.023 280.794 679.822 280.794Z" stroke="#3F3D56" stroke-miterlimit="10"/>
<path d="M691.274 352.657C705.074 352.657 716.26 344.504 716.26 334.446C716.26 324.388 705.074 316.235 691.274 316.235C677.475 316.235 666.289 324.388 666.289 334.446C666.289 344.504 677.475 352.657 691.274 352.657Z" fill="#FFCC4D"/>
<path d="M688.151 349.533C701.95 349.533 713.137 341.379 713.137 331.322C713.137 321.264 701.95 313.11 688.151 313.11C674.352 313.11 663.165 321.264 663.165 331.322C663.165 341.379 674.352 349.533 688.151 349.533Z" stroke="#3F3D56" stroke-miterlimit="10"/>
<path d="M686.069 180.812C699.868 180.812 711.055 172.658 711.055 162.6C711.055 152.543 699.868 144.389 686.069 144.389C672.27 144.389 661.083 152.543 661.083 162.6C661.083 172.658 672.27 180.812 686.069 180.812Z" fill="#FFCC4D"/>
<path d="M682.946 177.687C696.745 177.687 707.932 169.534 707.932 159.476C707.932 149.418 696.745 141.265 682.946 141.265C669.146 141.265 657.96 149.418 657.96 159.476C657.96 169.534 669.146 177.687 682.946 177.687Z" stroke="#3F3D56" stroke-miterlimit="10"/>
<path d="M623.604 169.876C637.404 169.876 648.59 161.723 648.59 151.665C648.59 141.607 637.404 133.454 623.604 133.454C609.805 133.454 598.619 141.607 598.619 151.665C598.619 161.723 609.805 169.876 623.604 169.876Z" fill="#FFCC4D"/>
<path d="M620.481 166.751C634.28 166.751 645.467 158.598 645.467 148.54C645.467 138.483 634.28 130.329 620.481 130.329C606.682 130.329 595.495 138.483 595.495 148.54C595.495 158.598 606.682 166.751 620.481 166.751Z" stroke="#3F3D56" stroke-miterlimit="10"/>
<path d="M651.713 130.82C665.513 130.82 676.699 122.667 676.699 112.609C676.699 102.551 665.513 94.3979 651.713 94.3979C637.914 94.3979 626.728 102.551 626.728 112.609C626.728 122.667 637.914 130.82 651.713 130.82Z" fill="#FFCC4D"/>
<path d="M648.59 127.696C662.39 127.696 673.576 119.542 673.576 109.485C673.576 99.4269 662.39 91.2734 648.59 91.2734C634.791 91.2734 623.604 99.4269 623.604 109.485C623.604 119.542 634.791 127.696 648.59 127.696Z" stroke="#3F3D56" stroke-miterlimit="10"/>
<path d="M713.137 138.631C726.936 138.631 738.122 130.478 738.122 120.42C738.122 110.362 726.936 102.209 713.137 102.209C699.337 102.209 688.151 110.362 688.151 120.42C688.151 130.478 699.337 138.631 713.137 138.631Z" fill="#FFCC4D"/>
<path d="M710.014 135.507C723.813 135.507 734.999 127.353 734.999 117.296C734.999 107.238 723.813 99.0845 710.014 99.0845C696.214 99.0845 685.028 107.238 685.028 117.296C685.028 127.353 696.214 135.507 710.014 135.507Z" stroke="#3F3D56" stroke-miterlimit="10"/>
<path d="M758.944 190.185C772.744 190.185 783.93 182.032 783.93 171.974C783.93 161.916 772.744 153.763 758.944 153.763C745.145 153.763 733.958 161.916 733.958 171.974C733.958 182.032 745.145 190.185 758.944 190.185Z" fill="#FFCC4D"/>
<path d="M755.821 187.061C769.62 187.061 780.807 178.907 780.807 168.849C780.807 158.792 769.62 150.638 755.821 150.638C742.021 150.638 730.835 158.792 730.835 168.849C730.835 178.907 742.021 187.061 755.821 187.061Z" stroke="#3F3D56" stroke-miterlimit="10"/>
<path d="M597.578 99.5757C611.377 99.5757 622.563 91.4223 622.563 81.3645C622.563 71.3067 611.377 63.1533 597.578 63.1533C583.778 63.1533 572.592 71.3067 572.592 81.3645C572.592 91.4223 583.778 99.5757 597.578 99.5757Z" fill="#FFCC4D"/>
<path d="M594.454 96.4512C608.253 96.4512 619.44 88.2977 619.44 78.24C619.44 68.1822 608.253 60.0288 594.454 60.0288C580.655 60.0288 569.468 68.1822 569.468 78.24C569.468 88.2977 580.655 96.4512 594.454 96.4512Z" stroke="#3F3D56" stroke-miterlimit="10"/>
<path d="M613.194 40.2104C626.993 40.2104 638.18 32.057 638.18 21.9993C638.18 11.9415 626.993 3.78809 613.194 3.78809C599.395 3.78809 588.208 11.9415 588.208 21.9993C588.208 32.057 599.395 40.2104 613.194 40.2104Z" fill="#FFCC4D"/>
<path d="M610.07 37.0864C623.87 37.0864 635.056 28.933 635.056 18.8752C635.056 8.81749 623.87 0.664062 610.07 0.664062C596.271 0.664062 585.084 8.81749 585.084 18.8752C585.084 28.933 596.271 37.0864 610.07 37.0864Z" stroke="#3F3D56" stroke-miterlimit="10"/>
<path d="M757.903 83.9531C771.703 83.9531 782.889 75.7997 782.889 65.7419C782.889 55.6842 771.703 47.5308 757.903 47.5308C744.104 47.5308 732.917 55.6842 732.917 65.7419C732.917 75.7997 744.104 83.9531 757.903 83.9531Z" fill="#FFCC4D"/>
<path d="M754.78 80.8286C768.579 80.8286 779.766 72.6752 779.766 62.6174C779.766 52.5597 768.579 44.4062 754.78 44.4062C740.98 44.4062 729.794 52.5597 729.794 62.6174C729.794 72.6752 740.98 80.8286 754.78 80.8286Z" stroke="#3F3D56" stroke-miterlimit="10"/>
<path d="M527.825 227.679C541.624 227.679 552.811 219.525 552.811 209.468C552.811 199.41 541.624 191.256 527.825 191.256C514.026 191.256 502.839 199.41 502.839 209.468C502.839 219.525 514.026 227.679 527.825 227.679Z" fill="#FFCC4D"/>
<path d="M524.702 224.554C538.501 224.554 549.688 216.401 549.688 206.343C549.688 196.285 538.501 188.132 524.702 188.132C510.903 188.132 499.716 196.285 499.716 206.343C499.716 216.401 510.903 224.554 524.702 224.554Z" stroke="#3F3D56" stroke-miterlimit="10"/>
<path d="M614.235 218.305C628.034 218.305 639.221 210.152 639.221 200.094C639.221 190.036 628.034 181.883 614.235 181.883C600.436 181.883 589.249 190.036 589.249 200.094C589.249 210.152 600.436 218.305 614.235 218.305Z" fill="#FFCC4D"/>
<path d="M611.111 215.181C624.911 215.181 636.097 207.027 636.097 196.969C636.097 186.912 624.911 178.758 611.111 178.758C597.312 178.758 586.125 186.912 586.125 196.969C586.125 207.027 597.312 215.181 611.111 215.181Z" stroke="#3F3D56" stroke-miterlimit="10"/>
<path d="M727.712 232.365C741.511 232.365 752.698 224.212 752.698 214.154C752.698 204.096 741.511 195.943 727.712 195.943C713.913 195.943 702.726 204.096 702.726 214.154C702.726 224.212 713.913 232.365 727.712 232.365Z" fill="#FFCC4D"/>
<path d="M724.589 229.241C738.388 229.241 749.575 221.087 749.575 211.03C749.575 200.972 738.388 192.818 724.589 192.818C710.79 192.818 699.603 200.972 699.603 211.03C699.603 221.087 710.79 229.241 724.589 229.241Z" stroke="#3F3D56" stroke-miterlimit="10"/>
<path d="M667.33 238.614C681.129 238.614 692.315 230.461 692.315 220.403C692.315 210.345 681.129 202.192 667.33 202.192C653.53 202.192 642.344 210.345 642.344 220.403C642.344 230.461 653.53 238.614 667.33 238.614Z" fill="#FFCC4D"/>
<path d="M664.207 235.49C678.006 235.49 689.192 227.336 689.192 217.279C689.192 207.221 678.006 199.067 664.207 199.067C650.407 199.067 639.221 207.221 639.221 217.279C639.221 227.336 650.407 235.49 664.207 235.49Z" stroke="#3F3D56" stroke-miterlimit="10"/>
<path d="M671.494 82.3911C685.293 82.3911 696.479 74.2377 696.479 64.1799C696.479 54.1222 685.293 45.9688 671.494 45.9688C657.694 45.9688 646.508 54.1222 646.508 64.1799C646.508 74.2377 657.694 82.3911 671.494 82.3911Z" fill="#FFCC4D"/>
<path d="M668.371 79.2666C682.17 79.2666 693.356 71.1132 693.356 61.0554C693.356 50.9977 682.17 42.8442 668.371 42.8442C654.571 42.8442 643.385 50.9977 643.385 61.0554C643.385 71.1132 654.571 79.2666 668.371 79.2666Z" stroke="#3F3D56" stroke-miterlimit="10"/>
<path d="M564.263 179.25C578.062 179.25 589.249 171.096 589.249 161.038C589.249 150.981 578.062 142.827 564.263 142.827C550.464 142.827 539.277 150.981 539.277 161.038C539.277 171.096 550.464 179.25 564.263 179.25Z" fill="#FFCC4D"/>
<path d="M561.14 176.125C574.939 176.125 586.125 167.972 586.125 157.914C586.125 147.856 574.939 139.703 561.14 139.703C547.34 139.703 536.154 147.856 536.154 157.914C536.154 167.972 547.34 176.125 561.14 176.125Z" stroke="#3F3D56" stroke-miterlimit="10"/>
<path d="M578.838 249.55C592.637 249.55 603.824 241.396 603.824 231.339C603.824 221.281 592.637 213.127 578.838 213.127C565.039 213.127 553.852 221.281 553.852 231.339C553.852 241.396 565.039 249.55 578.838 249.55Z" fill="#FFCC4D"/>
<path d="M575.715 246.425C589.514 246.425 600.701 238.272 600.701 228.214C600.701 218.156 589.514 210.003 575.715 210.003C561.916 210.003 550.729 218.156 550.729 228.214C550.729 238.272 561.916 246.425 575.715 246.425Z" stroke="#3F3D56" stroke-miterlimit="10"/>
<g opacity="0.3">
<path d="M579.42 355.685C582.946 346.215 583.59 336.681 580.857 334.389C578.124 332.097 573.05 337.915 569.523 347.385C565.996 356.855 565.352 366.389 568.085 368.681C570.818 370.973 575.893 365.155 579.42 355.685Z" fill="#F5233C"/>
<path d="M577.772 357.117C581.299 347.647 581.943 338.112 579.21 335.82C576.477 333.528 571.402 339.347 567.875 348.816C564.348 358.286 563.705 367.821 566.438 370.113C569.171 372.405 574.245 366.586 577.772 357.117Z" fill="#F5233C" stroke="#3F3D56" stroke-miterlimit="10"/>
</g>
<g opacity="0.3">
<path d="M709.657 401.082C711.745 397.581 709.07 388.879 703.683 381.644C698.297 374.409 692.237 371.382 690.149 374.883C688.061 378.384 690.736 387.087 696.123 394.321C701.51 401.556 707.569 404.583 709.657 401.082Z" fill="#F5233C"/>
<path d="M709.086 398.357C711.174 394.856 708.5 386.153 703.113 378.919C697.726 371.684 691.666 368.657 689.578 372.158C687.49 375.659 690.165 384.361 695.552 391.596C700.939 398.831 706.998 401.858 709.086 398.357Z" fill="#F5233C" stroke="#3F3D56" stroke-miterlimit="10"/>
</g>
<g opacity="0.3">
<path d="M593.056 302.661C595.144 299.16 592.47 290.458 587.083 283.223C581.696 275.988 575.636 272.961 573.549 276.462C571.461 279.963 574.135 288.666 579.522 295.9C584.909 303.135 590.969 306.162 593.056 302.661Z" fill="#F5233C"/>
<path d="M592.486 299.936C594.573 296.435 591.899 287.733 586.512 280.498C581.125 273.263 575.066 270.236 572.978 273.737C570.89 277.238 573.564 285.941 578.951 293.175C584.338 300.41 590.398 303.437 592.486 299.936Z" fill="#F5233C" stroke="#3F3D56" stroke-miterlimit="10"/>
</g>
</g>
<defs>
<clipPath id="clip0_168_2">
<rect width="783.93" height="868.73" fill="white"/>
</clipPath>
</defs>
</svg>
