<svg width="582" height="600" viewBox="0 0 582 600" fill="none" xmlns="http://www.w3.org/2000/svg">
<path fill-rule="evenodd" clip-rule="evenodd" d="M313.675 4.95125C396.332 9.85804 480.913 31.4676 532.353 103.18C583.654 174.697 585.22 270.945 568.618 360.364C551.436 452.904 522.248 558.351 441.889 590.422C365.458 620.926 299.462 535.743 226.125 497.052C152.157 458.029 55.0971 452.755 22.9383 369.398C-14.0778 273.451 1.02568 153.569 63.4305 75.3433C123.336 0.250236 223.25 -0.416684 313.675 4.95125Z" fill="#7D66C8" stroke="#F5233C" stroke-width="6"/>
<path d="M242.531 184.375C243.785 184.36 245.023 184.099 246.177 183.607C247.338 183.12 248.409 182.439 249.342 181.593C250.188 180.659 250.87 179.589 251.357 178.427C251.849 177.273 252.11 176.035 252.125 174.781C252.089 172.241 251.096 169.808 249.342 167.97C248.451 167.07 247.39 166.357 246.22 165.87C245.051 165.383 243.797 165.132 242.531 165.132C241.264 165.132 240.01 165.383 238.841 165.87C237.672 166.357 236.611 167.07 235.719 167.97C234.83 168.866 234.127 169.929 233.649 171.098C233.172 172.267 232.93 173.519 232.937 174.781C232.937 177.326 233.948 179.766 235.747 181.565C237.546 183.364 239.987 184.375 242.531 184.375ZM280.906 184.375H319.281C321.825 184.375 324.266 183.364 326.065 181.565C327.864 179.766 328.875 177.326 328.875 174.781C328.875 172.237 327.864 169.797 326.065 167.997C324.266 166.198 321.825 165.187 319.281 165.187H280.906C278.362 165.187 275.921 166.198 274.122 167.997C272.323 169.797 271.312 172.237 271.312 174.781C271.312 177.326 272.323 179.766 274.122 181.565C275.921 183.364 278.362 184.375 280.906 184.375Z" fill="#F3AF06"/>
<path d="M424.812 155.594H415.218C413.956 155.586 412.704 155.828 411.535 156.306C410.366 156.783 409.303 157.487 408.407 158.376L386.437 180.538V174.781C386.437 172.237 385.426 169.797 383.627 167.997C381.828 166.198 379.388 165.188 376.843 165.188H357.656C355.112 165.188 352.671 166.198 350.872 167.997C349.073 169.797 348.062 172.237 348.062 174.781C348.062 177.326 349.073 179.766 350.872 181.565C352.671 183.364 355.112 184.375 357.656 184.375H367.25C364.851 265.826 332.041 328.281 290.5 328.281C247.424 328.281 213.75 261.125 213.75 174.781C213.75 172.237 212.739 169.797 210.94 167.997C209.141 166.198 206.7 165.188 204.156 165.188C201.612 165.188 199.171 166.198 197.372 167.997C195.573 169.797 194.562 172.237 194.562 174.781V180.538L172.592 158.376C171.696 157.487 170.633 156.783 169.464 156.306C168.295 155.828 167.044 155.586 165.781 155.594H156.187C153.643 155.594 151.203 156.605 149.403 158.404C147.604 160.203 146.593 162.643 146.593 165.188V241.938C146.586 243.2 146.828 244.452 147.306 245.621C147.783 246.79 148.486 247.853 149.376 248.749L178.157 277.53C179.053 278.42 180.116 279.123 181.285 279.6C182.454 280.078 183.706 280.32 184.968 280.313H213.75C227.661 313.603 248.191 336.82 272.559 344.591L238.022 385.844H204.156C201.612 385.844 199.171 386.855 197.372 388.654C195.573 390.453 194.562 392.893 194.562 395.438V433.813C194.562 436.357 195.573 438.797 197.372 440.596C199.171 442.396 201.612 443.406 204.156 443.406H376.843C379.388 443.406 381.828 442.396 383.627 440.596C385.426 438.797 386.437 436.357 386.437 433.813V395.438C386.437 392.893 385.426 390.453 383.627 388.654C381.828 386.855 379.388 385.844 376.843 385.844H342.978L308.536 344.591C332.904 336.916 353.435 313.699 367.346 280.313H396.127C397.389 280.32 398.641 280.078 399.81 279.6C400.979 279.123 402.042 278.42 402.938 277.53L431.72 248.749C433.48 246.923 434.446 244.474 434.406 241.938V165.188C434.406 162.643 433.395 160.203 431.596 158.404C429.797 156.605 427.357 155.594 424.812 155.594ZM188.902 261.125L165.781 238.004V178.715L196.385 209.319C198.123 226.879 201.561 244.229 206.65 261.125H188.902ZM338.468 405.031H367.25V424.219H213.75V405.031H242.531C243.94 405.034 245.333 404.725 246.61 404.128C247.887 403.531 249.016 402.661 249.918 401.578L290.5 352.841L331.081 401.578C331.983 402.661 333.113 403.531 334.39 404.128C335.666 404.725 337.059 405.034 338.468 405.031ZM415.218 238.004L392.098 261.125H374.349C379.471 244.232 382.941 226.882 384.71 209.319L415.218 178.715V238.004Z" fill="#F3AF06"/>
<path d="M252.125 213.156C249.581 213.156 247.14 214.167 245.341 215.966C243.542 217.765 242.531 220.206 242.531 222.75C242.531 225.294 243.542 227.735 245.341 229.534C247.14 231.333 249.581 232.344 252.125 232.344H328.875C331.419 232.344 333.86 231.333 335.659 229.534C337.458 227.735 338.469 225.294 338.469 222.75C338.469 220.206 337.458 217.765 335.659 215.966C333.86 214.167 331.419 213.156 328.875 213.156H252.125ZM271.312 261.125C268.768 261.125 266.328 262.136 264.529 263.935C262.73 265.734 261.719 268.174 261.719 270.719C261.719 273.263 262.73 275.703 264.529 277.503C266.328 279.302 268.768 280.312 271.312 280.312H309.688C312.232 280.312 314.672 279.302 316.471 277.503C318.27 275.703 319.281 273.263 319.281 270.719C319.281 268.174 318.27 265.734 316.471 263.935C314.672 262.136 312.232 261.125 309.688 261.125H271.312Z" fill="#F3AF06"/>
</svg>
