<svg width="539" height="575" viewBox="0 0 539 575" fill="none" xmlns="http://www.w3.org/2000/svg">
<path fill-rule="evenodd" clip-rule="evenodd" d="M248.92 4.49909C326.164 11.0518 409.903 -2.20905 464.327 58.3203C524.688 125.454 545.431 224.534 530.233 317.373C514.088 415.996 466.599 512.225 383.308 553.224C302.057 593.219 208.288 563.819 132.003 513.397C64.6391 468.871 34.308 388.873 10.3032 306.675C-17.9727 209.852 41.3312 179.829 102 103C162.165 26.8097 157.339 -3.26972 248.92 4.49909Z" fill="#AAE9BB" stroke="black" stroke-width="6"/>
<path d="M351.743 179.971C351.743 137.457 317.2 102.914 274.686 102.914C232.172 102.914 200.286 137.457 200.286 179.971C200.286 206.543 274.686 310.171 274.686 310.171C274.686 310.171 351.743 209.2 351.743 179.971Z" fill="#FFDA7E"/>
<path d="M274.686 336.743L266.714 326.114C253.429 307.514 187 214.514 187 185.286C187 137.457 226.857 97.6 274.686 97.6C322.514 97.6 362.371 137.457 362.371 185.286C362.371 217.171 301.158 297.782 288.603 316.15L274.686 336.743ZM274.686 116.2C237.486 116.2 205.6 145.429 205.6 185.286C205.6 201.229 242.8 259.686 274.686 302.2C306.571 259.686 343.771 201.229 343.771 185.286C343.771 145.429 311.886 116.2 274.686 116.2Z" fill="#F3AF06"/>
<path d="M431.457 376.6H131.2C115.257 376.6 99.3145 363.314 99.3145 344.714C99.3145 326.114 112.6 312.829 131.2 312.829H181.686C187 312.829 192.314 318.143 192.314 323.457C192.314 328.771 189.657 334.086 184.343 334.086H131.2C125.886 334.086 120.572 339.4 120.572 344.714C120.572 350.029 125.886 355.343 131.2 355.343H428.8C434.114 355.343 439.429 360.657 439.429 365.971C439.429 371.286 436.772 376.6 431.457 376.6Z" fill="#F3AF06"/>
<path d="M431.458 419.114H176.372C171.058 419.114 165.744 413.8 165.744 408.486C165.744 403.171 171.058 397.857 176.372 397.857H428.801C434.115 397.857 439.429 392.543 439.429 387.228C439.429 381.914 434.115 376.6 428.801 376.6H131.201C125.887 376.6 120.572 371.286 120.572 365.971C120.572 360.657 125.887 355.343 131.201 355.343H428.801C444.744 355.343 460.687 368.628 460.687 387.228C460.687 405.828 447.401 419.114 431.458 419.114Z" fill="#F3AF06"/>
<path d="M245.457 174.657C245.457 178.496 246.212 182.297 247.681 185.843C249.15 189.39 251.303 192.612 254.017 195.327C256.731 198.041 259.953 200.195 263.5 201.664C267.046 203.133 270.847 203.889 274.686 203.889C278.524 203.889 282.325 203.133 285.872 201.664C289.418 200.195 292.64 198.041 295.354 195.327C298.069 192.612 300.222 189.39 301.69 185.843C303.159 182.297 303.915 178.496 303.914 174.657C303.915 170.819 303.159 167.017 301.69 163.471C300.222 159.924 298.069 156.702 295.354 153.987C292.64 151.273 289.418 149.12 285.872 147.65C282.325 146.181 278.524 145.425 274.686 145.425C270.847 145.425 267.046 146.181 263.5 147.65C259.953 149.12 256.731 151.273 254.017 153.987C251.303 156.702 249.15 159.924 247.681 163.471C246.212 167.017 245.457 170.819 245.457 174.657Z" fill="#FDFBFB"/>
<path d="M274.686 211.857C253.429 211.857 237.486 195.914 237.486 174.657C237.486 153.4 253.429 137.457 274.686 137.457C295.943 137.457 311.886 153.4 311.886 174.657C311.886 195.914 295.943 211.857 274.686 211.857ZM274.686 156.057C264.058 156.057 256.086 164.029 256.086 174.657C256.086 185.286 264.058 193.257 274.686 193.257C285.315 193.257 293.286 185.286 293.286 174.657C293.286 164.029 285.315 156.057 274.686 156.057Z" fill="#F3AF06"/>
</svg>
