<svg xmlns="http://www.w3.org/2000/svg" xmlns:xlink="http://www.w3.org/1999/xlink" width="250" zoomAndPan="magnify" viewBox="0 0 187.5 112.499997" height="150" preserveAspectRatio="xMidYMid meet" version="1.0"><defs><clipPath id="b683ae4de2"><path d="M 0.164062 0 L 186.835938 0 L 186.835938 112.003906 L 0.164062 112.003906 Z M 0.164062 0 " clip-rule="nonzero"/></clipPath><clipPath id="f4f34be3c2"><path d="M 19 34.890625 L 35 34.890625 L 35 54 L 19 54 Z M 19 34.890625 " clip-rule="nonzero"/></clipPath><clipPath id="7390473c0a"><path d="M 2.078125 55 L 18 55 L 18 77.453125 L 2.078125 77.453125 Z M 2.078125 55 " clip-rule="nonzero"/></clipPath><clipPath id="5e85164af9"><path d="M 19 55 L 35 55 L 35 77.453125 L 19 77.453125 Z M 19 55 " clip-rule="nonzero"/></clipPath><clipPath id="59c1b67482"><path d="M 2.078125 34.890625 L 18 34.890625 L 18 54 L 2.078125 54 Z M 2.078125 34.890625 " clip-rule="nonzero"/></clipPath><clipPath id="5896b04c18"><path d="M 120 34.890625 L 121 34.890625 L 121 77.453125 L 120 77.453125 Z M 120 34.890625 " clip-rule="nonzero"/></clipPath></defs><g clip-path="url(#b683ae4de2)"><path fill="#ffffff" d="M 0.164062 0 L 186.835938 0 L 186.835938 112.003906 L 0.164062 112.003906 Z M 0.164062 0 " fill-opacity="1" fill-rule="nonzero"/><path fill="#ffffff" d="M 0.164062 0 L 186.835938 0 L 186.835938 112.003906 L 0.164062 112.003906 Z M 0.164062 0 " fill-opacity="1" fill-rule="nonzero"/></g><path fill="#58595b" d="M 41.242188 55.5 L 42.304688 55.5 L 42.304688 61.621094 L 41.242188 61.621094 Z M 41.242188 55.5 " fill-opacity="1" fill-rule="nonzero"/><path fill="#58595b" d="M 43.339844 61.621094 L 43.339844 55.5 L 44.460938 55.5 L 47.234375 60.007812 L 47.234375 55.5 L 48.238281 55.5 L 48.238281 61.621094 L 47.117188 61.621094 L 44.371094 57.113281 L 44.34375 57.113281 L 44.34375 61.621094 Z M 43.339844 61.621094 " fill-opacity="1" fill-rule="nonzero"/><path fill="#58595b" d="M 48.710938 56.425781 L 48.710938 55.5 L 53.609375 55.5 L 53.609375 56.425781 L 51.691406 56.425781 L 51.691406 61.621094 L 50.628906 61.621094 L 50.628906 56.425781 Z M 48.710938 56.425781 " fill-opacity="1" fill-rule="nonzero"/><path fill="#58595b" d="M 54.109375 61.621094 L 54.109375 55.5 L 58.476562 55.5 L 58.476562 56.425781 L 55.171875 56.425781 L 55.171875 58.039062 L 58.210938 58.039062 L 58.210938 58.90625 L 55.171875 58.90625 L 55.171875 60.695312 L 58.535156 60.695312 L 58.535156 61.621094 Z M 54.109375 61.621094 " fill-opacity="1" fill-rule="nonzero"/><path fill="#58595b" d="M 59.214844 61.621094 L 59.214844 55.5 L 62.105469 55.5 C 62.753906 55.5 63.257812 55.648438 63.613281 55.917969 C 63.9375 56.214844 64.113281 56.605469 64.113281 57.140625 C 64.113281 57.949219 63.789062 58.457031 63.109375 58.695312 L 63.109375 58.726562 C 63.699219 58.816406 63.996094 59.234375 63.996094 60.007812 C 63.996094 60.847656 64.113281 61.382812 64.320312 61.621094 L 63.199219 61.621094 C 63.082031 61.441406 63.050781 61.144531 63.050781 60.726562 C 63.050781 60.128906 62.960938 59.742188 62.816406 59.5 C 62.636719 59.234375 62.3125 59.113281 61.839844 59.113281 L 60.277344 59.113281 L 60.277344 61.621094 Z M 60.277344 56.394531 L 60.277344 58.308594 L 62.019531 58.308594 C 62.695312 58.308594 63.050781 57.976562 63.050781 57.320312 C 63.050781 56.695312 62.695312 56.394531 61.988281 56.394531 Z M 60.277344 56.394531 " fill-opacity="1" fill-rule="nonzero"/><path fill="#58595b" d="M 64.9375 61.621094 L 64.9375 55.5 L 66.0625 55.5 L 68.835938 60.007812 L 68.835938 55.5 L 69.835938 55.5 L 69.835938 61.621094 L 68.714844 61.621094 L 65.972656 57.140625 L 65.941406 57.140625 L 65.941406 61.652344 L 64.9375 61.652344 Z M 64.9375 61.621094 " fill-opacity="1" fill-rule="nonzero"/><path fill="#58595b" d="M 70.191406 61.621094 L 72.523438 55.5 L 73.644531 55.5 L 75.976562 61.621094 L 74.824219 61.621094 L 74.265625 60.007812 L 71.84375 60.007812 L 71.285156 61.621094 Z M 73.054688 56.574219 L 72.140625 59.203125 L 74 59.203125 Z M 73.054688 56.574219 " fill-opacity="1" fill-rule="nonzero"/><path fill="#58595b" d="M 75.738281 56.425781 L 75.738281 55.5 L 80.636719 55.5 L 80.636719 56.425781 L 78.71875 56.425781 L 78.71875 61.621094 L 77.65625 61.621094 L 77.65625 56.425781 Z M 75.738281 56.425781 " fill-opacity="1" fill-rule="nonzero"/><path fill="#58595b" d="M 81.140625 55.5 L 82.203125 55.5 L 82.203125 61.621094 L 81.140625 61.621094 Z M 81.140625 55.5 " fill-opacity="1" fill-rule="nonzero"/><path fill="#58595b" d="M 85.859375 55.378906 C 86.746094 55.378906 87.453125 55.707031 87.984375 56.335938 C 88.488281 56.933594 88.753906 57.710938 88.753906 58.605469 C 88.753906 59.5 88.488281 60.25 87.984375 60.847656 C 87.453125 61.472656 86.746094 61.800781 85.859375 61.800781 C 84.976562 61.800781 84.265625 61.472656 83.734375 60.847656 C 83.234375 60.25 82.96875 59.5 82.96875 58.605469 C 82.96875 57.710938 83.234375 56.933594 83.734375 56.335938 C 84.265625 55.679688 84.976562 55.378906 85.859375 55.378906 Z M 85.859375 56.246094 C 85.269531 56.246094 84.796875 56.484375 84.445312 56.964844 C 84.148438 57.382812 84 57.917969 84 58.574219 C 84 59.234375 84.148438 59.769531 84.445312 60.1875 C 84.769531 60.667969 85.242188 60.90625 85.859375 60.90625 C 86.449219 60.90625 86.921875 60.667969 87.277344 60.1875 C 87.574219 59.769531 87.71875 59.234375 87.71875 58.574219 C 87.71875 57.917969 87.574219 57.382812 87.277344 56.964844 C 86.921875 56.484375 86.449219 56.246094 85.859375 56.246094 Z M 85.859375 56.246094 " fill-opacity="1" fill-rule="nonzero"/><path fill="#58595b" d="M 89.460938 61.621094 L 89.460938 55.5 L 90.582031 55.5 L 93.355469 60.007812 L 93.355469 55.5 L 94.359375 55.5 L 94.359375 61.621094 L 93.238281 61.621094 L 90.492188 57.113281 L 90.464844 57.113281 L 90.464844 61.621094 Z M 89.460938 61.621094 " fill-opacity="1" fill-rule="nonzero"/><path fill="#58595b" d="M 94.714844 61.621094 L 97.042969 55.5 L 98.164062 55.5 L 100.496094 61.621094 L 99.375 61.621094 L 98.816406 60.007812 L 96.367188 60.007812 L 95.804688 61.621094 Z M 97.574219 56.574219 L 96.660156 59.203125 L 98.519531 59.203125 Z M 97.574219 56.574219 " fill-opacity="1" fill-rule="nonzero"/><path fill="#58595b" d="M 100.851562 61.621094 L 100.851562 55.5 L 101.914062 55.5 L 101.914062 60.695312 L 104.980469 60.695312 L 104.980469 61.621094 Z M 100.851562 61.621094 " fill-opacity="1" fill-rule="nonzero"/><path fill="#21409a" d="M 41.183594 53.617188 L 41.183594 41.105469 L 43.339844 41.105469 L 43.339844 53.589844 L 41.183594 53.589844 Z M 41.183594 53.617188 " fill-opacity="1" fill-rule="nonzero"/><path fill="#21409a" d="M 44.402344 43.015625 L 44.402344 41.132812 L 54.40625 41.132812 L 54.40625 43.015625 L 50.480469 43.015625 L 50.480469 53.617188 L 48.328125 53.617188 L 48.328125 43.015625 Z M 44.402344 43.015625 " fill-opacity="1" fill-rule="nonzero"/><path fill="#21409a" d="M 53.960938 53.617188 L 58.714844 41.132812 L 61.015625 41.132812 L 65.765625 53.617188 L 63.433594 53.617188 L 62.285156 50.300781 L 57.355469 50.300781 L 56.203125 53.617188 Z M 59.804688 43.285156 L 57.945312 48.660156 L 61.722656 48.660156 L 59.863281 43.285156 Z M 59.804688 43.285156 " fill-opacity="1" fill-rule="nonzero"/><path fill="#21409a" d="M 66.445312 53.617188 L 66.445312 41.105469 L 68.597656 41.105469 L 68.597656 46.0625 L 74.203125 46.0625 L 74.203125 41.105469 L 76.359375 41.105469 L 76.359375 53.589844 L 74.203125 53.589844 L 74.203125 47.972656 L 68.597656 47.972656 L 68.597656 53.617188 Z M 66.445312 53.617188 " fill-opacity="1" fill-rule="nonzero"/><path fill="#21409a" d="M 77.097656 53.617188 L 81.847656 41.132812 L 84.148438 41.132812 L 88.898438 53.617188 L 86.570312 53.617188 L 85.417969 50.300781 L 80.492188 50.300781 L 79.339844 53.617188 Z M 82.9375 43.285156 L 81.082031 48.660156 L 84.855469 48.660156 L 83 43.285156 Z M 82.9375 43.285156 " fill-opacity="1" fill-rule="nonzero"/><path fill="#21409a" d="M 89.636719 53.617188 L 89.636719 41.105469 L 95.539062 41.105469 C 96.867188 41.105469 97.898438 41.402344 98.578125 42 C 99.257812 42.597656 99.613281 43.433594 99.613281 44.480469 C 99.613281 46.089844 98.933594 47.136719 97.574219 47.613281 L 97.574219 47.644531 C 98.785156 47.824219 99.40625 48.691406 99.40625 50.273438 C 99.40625 51.976562 99.640625 53.082031 100.085938 53.558594 L 97.753906 53.558594 C 97.546875 53.199219 97.429688 52.574219 97.429688 51.707031 C 97.429688 50.511719 97.28125 49.675781 96.957031 49.199219 C 96.601562 48.660156 95.953125 48.421875 94.980469 48.421875 L 91.792969 48.421875 L 91.792969 53.558594 L 89.636719 53.558594 Z M 91.792969 42.894531 L 91.792969 46.808594 L 95.332031 46.808594 C 96.75 46.808594 97.429688 46.152344 97.429688 44.808594 C 97.429688 43.523438 96.71875 42.894531 95.273438 42.894531 Z M 91.792969 42.894531 " fill-opacity="1" fill-rule="nonzero"/><path fill="#21409a" d="M 101.382812 53.617188 L 101.382812 41.105469 L 103.535156 41.105469 L 103.535156 53.589844 L 101.382812 53.589844 Z M 101.382812 53.617188 " fill-opacity="1" fill-rule="nonzero"/><path fill="#58595b" d="M 47.765625 65.117188 L 46.46875 65.117188 C 46.230469 64.132812 45.613281 63.625 44.609375 63.625 C 43.871094 63.625 43.28125 63.921875 42.898438 64.519531 C 42.542969 65.027344 42.367188 65.683594 42.367188 66.492188 C 42.367188 67.296875 42.542969 67.925781 42.898438 68.460938 C 43.308594 69.058594 43.871094 69.359375 44.609375 69.359375 C 45.167969 69.359375 45.613281 69.179688 45.9375 68.789062 C 46.261719 68.433594 46.4375 67.984375 46.496094 67.417969 L 47.765625 67.417969 C 47.707031 68.3125 47.382812 69.058594 46.820312 69.625 C 46.230469 70.195312 45.492188 70.464844 44.609375 70.464844 C 43.515625 70.464844 42.660156 70.074219 42.011719 69.296875 C 41.390625 68.550781 41.066406 67.625 41.066406 66.519531 C 41.066406 65.414062 41.390625 64.488281 42.011719 63.742188 C 42.660156 62.964844 43.546875 62.578125 44.609375 62.578125 C 45.464844 62.578125 46.171875 62.816406 46.761719 63.265625 C 47.351562 63.683594 47.675781 64.339844 47.765625 65.117188 Z M 47.765625 65.117188 " fill-opacity="1" fill-rule="nonzero"/><path fill="#58595b" d="M 54.816406 62.546875 C 55.910156 62.546875 56.765625 62.9375 57.414062 63.710938 C 58.035156 64.460938 58.359375 65.386719 58.359375 66.492188 C 58.359375 67.59375 58.035156 68.523438 57.414062 69.269531 C 56.765625 70.042969 55.878906 70.433594 54.816406 70.433594 C 53.726562 70.433594 52.871094 70.042969 52.222656 69.269531 C 51.601562 68.523438 51.277344 67.59375 51.277344 66.492188 C 51.277344 65.386719 51.601562 64.460938 52.222656 63.710938 C 52.871094 62.9375 53.726562 62.546875 54.816406 62.546875 Z M 54.816406 63.625 C 54.082031 63.625 53.488281 63.921875 53.105469 64.519531 C 52.753906 65.027344 52.574219 65.683594 52.574219 66.492188 C 52.574219 67.296875 52.753906 67.925781 53.105469 68.460938 C 53.519531 69.058594 54.082031 69.359375 54.816406 69.359375 C 55.554688 69.359375 56.144531 69.058594 56.53125 68.460938 C 56.882812 67.953125 57.0625 67.296875 57.0625 66.492188 C 57.0625 65.683594 56.882812 65.058594 56.53125 64.519531 C 56.144531 63.921875 55.554688 63.625 54.816406 63.625 Z M 54.816406 63.625 " fill-opacity="1" fill-rule="nonzero"/><path fill="#58595b" d="M 62.253906 70.253906 L 62.253906 62.726562 L 63.550781 62.726562 L 63.550781 69.089844 L 67.328125 69.089844 L 67.328125 70.222656 L 62.253906 70.222656 Z M 62.253906 70.253906 " fill-opacity="1" fill-rule="nonzero"/><path fill="#58595b" d="M 70.929688 70.253906 L 70.929688 62.726562 L 72.226562 62.726562 L 72.226562 69.089844 L 76.003906 69.089844 L 76.003906 70.222656 L 70.929688 70.222656 Z M 70.929688 70.253906 " fill-opacity="1" fill-rule="nonzero"/><path fill="#58595b" d="M 79.574219 70.253906 L 79.574219 62.726562 L 84.917969 62.726562 L 84.917969 63.863281 L 80.875 63.863281 L 80.875 65.832031 L 84.621094 65.832031 L 84.621094 66.910156 L 80.875 66.910156 L 80.875 69.117188 L 84.976562 69.117188 L 84.976562 70.253906 Z M 79.574219 70.253906 " fill-opacity="1" fill-rule="nonzero"/><path fill="#58595b" d="M 95.304688 66.28125 L 95.304688 70.222656 L 94.476562 70.222656 L 94.269531 69.328125 C 93.917969 69.714844 93.59375 69.984375 93.238281 70.164062 C 92.882812 70.3125 92.5 70.402344 92.027344 70.402344 C 90.9375 70.402344 90.078125 70.015625 89.429688 69.238281 C 88.8125 68.492188 88.488281 67.566406 88.488281 66.460938 C 88.488281 65.355469 88.8125 64.429688 89.429688 63.683594 C 90.078125 62.90625 90.964844 62.519531 92.027344 62.519531 C 92.882812 62.519531 93.59375 62.726562 94.152344 63.175781 C 94.773438 63.625 95.125 64.28125 95.214844 65.085938 L 93.945312 65.085938 C 93.886719 64.609375 93.652344 64.25 93.296875 63.980469 C 92.941406 63.742188 92.53125 63.59375 92.027344 63.59375 C 91.289062 63.59375 90.699219 63.890625 90.316406 64.488281 C 89.960938 64.996094 89.785156 65.65625 89.785156 66.460938 C 89.785156 67.265625 89.960938 67.894531 90.316406 68.433594 C 90.730469 69.03125 91.289062 69.328125 92.027344 69.328125 C 92.675781 69.328125 93.179688 69.148438 93.5625 68.789062 C 93.917969 68.433594 94.09375 67.925781 94.121094 67.265625 L 92.144531 67.265625 L 92.144531 66.28125 Z M 95.304688 66.28125 " fill-opacity="1" fill-rule="nonzero"/><path fill="#58595b" d="M 99.433594 70.253906 L 99.433594 62.726562 L 104.777344 62.726562 L 104.777344 63.863281 L 100.734375 63.863281 L 100.734375 65.832031 L 104.480469 65.832031 L 104.480469 66.910156 L 100.734375 66.910156 L 100.734375 69.117188 L 104.835938 69.117188 L 104.835938 70.253906 Z M 99.433594 70.253906 " fill-opacity="1" fill-rule="nonzero"/><g clip-path="url(#f4f34be3c2)"><path fill="#ed1c24" d="M 19.46875 34.890625 C 19.46875 34.890625 22.625 34.742188 26.609375 35.636719 C 32.214844 36.921875 34.308594 38.652344 34.308594 38.652344 L 34.308594 53.796875 L 19.46875 53.796875 Z M 19.46875 34.890625 " fill-opacity="1" fill-rule="nonzero"/></g><path fill="#ffffff" d="M 20.558594 36.324219 C 20.558594 36.324219 23.273438 36.207031 26.695312 36.980469 C 31.535156 38.058594 33.335938 39.550781 33.335938 39.550781 L 33.335938 52.75 L 20.558594 52.75 Z M 20.558594 36.324219 " fill-opacity="1" fill-rule="nonzero"/><g clip-path="url(#7390473c0a)"><path fill="#ed1c24" d="M 2.53125 55.617188 C 2.53125 59.5 2.53125 61.710938 2.53125 61.710938 C 2.53125 62.101562 2.558594 62.546875 2.558594 63.054688 L 2.617188 65.683594 C 2.617188 71.539062 13.386719 75.867188 17.460938 77.390625 L 17.460938 55.617188 Z M 2.53125 55.617188 " fill-opacity="1" fill-rule="nonzero"/></g><g clip-path="url(#5e85164af9)"><path fill="#21409a" d="M 34.367188 55.617188 L 19.4375 55.617188 L 19.4375 77.421875 C 23.449219 75.929688 34.367188 71.539062 34.367188 65.625 L 34.339844 62.191406 C 34.339844 62.039062 34.339844 61.859375 34.339844 61.710938 C 34.367188 61.742188 34.367188 59.5 34.367188 55.617188 Z M 34.367188 55.617188 " fill-opacity="1" fill-rule="nonzero"/></g><path fill="#ffffff" d="M 6.511719 67.714844 C 6.570312 67.773438 6.660156 67.804688 6.71875 67.835938 C 6.75 67.835938 6.777344 67.835938 6.835938 67.835938 C 6.867188 67.835938 6.898438 67.835938 6.925781 67.835938 C 7.015625 67.835938 7.042969 67.894531 7.074219 67.984375 C 7.101562 68.074219 7.132812 68.132812 7.191406 68.222656 L 7.222656 68.253906 C 7.28125 68.28125 7.339844 68.34375 7.398438 68.371094 C 7.429688 68.402344 7.457031 68.402344 7.488281 68.433594 C 7.695312 68.523438 7.929688 68.550781 8.136719 68.460938 C 8.253906 68.433594 8.3125 68.34375 8.402344 68.253906 C 8.488281 68.132812 8.488281 68.015625 8.488281 67.863281 C 8.460938 67.746094 8.429688 67.65625 8.34375 67.566406 C 8.253906 67.476562 8.164062 67.445312 8.046875 67.417969 C 7.898438 67.386719 7.78125 67.386719 7.632812 67.386719 C 7.632812 67.386719 7.632812 67.386719 7.605469 67.386719 C 7.574219 67.386719 7.546875 67.386719 7.546875 67.355469 L 7.546875 67.328125 C 7.546875 67.296875 7.546875 67.296875 7.515625 67.265625 C 7.515625 67.238281 7.488281 67.207031 7.457031 67.207031 C 7.429688 67.207031 7.398438 67.207031 7.367188 67.207031 C 7.308594 67.207031 7.308594 67.175781 7.28125 67.148438 C 7.25 67 7.222656 66.847656 7.132812 66.699219 C 7.101562 66.609375 7.015625 66.550781 6.957031 66.492188 C 6.835938 66.402344 6.691406 66.402344 6.542969 66.429688 C 6.453125 66.460938 6.394531 66.492188 6.335938 66.550781 C 6.21875 66.640625 6.160156 66.789062 6.160156 66.9375 C 6.160156 67.058594 6.160156 67.175781 6.21875 67.296875 C 6.246094 67.386719 6.304688 67.476562 6.394531 67.566406 C 6.394531 67.59375 6.425781 67.59375 6.425781 67.625 C 6.425781 67.65625 6.453125 67.683594 6.511719 67.714844 C 6.484375 67.714844 6.484375 67.714844 6.511719 67.714844 C 6.511719 67.714844 6.484375 67.714844 6.511719 67.714844 Z M 12.207031 61.683594 C 12.089844 61.859375 11.941406 62.011719 11.824219 62.191406 C 11.5 62.609375 11.203125 62.996094 10.878906 63.414062 C 10.554688 63.863281 10.203125 64.28125 9.878906 64.726562 C 9.582031 65.117188 10.203125 64.28125 9.90625 64.667969 C 9.789062 64.816406 9.699219 64.9375 9.582031 65.085938 C 9.582031 65.117188 9.550781 65.117188 9.550781 65.148438 C 9.550781 65.148438 9.550781 65.175781 9.582031 65.175781 C 9.613281 65.207031 9.640625 65.207031 9.671875 65.234375 C 9.699219 65.265625 9.730469 65.324219 9.699219 65.355469 C 9.671875 65.414062 9.640625 65.445312 9.582031 65.414062 C 9.550781 65.414062 9.550781 65.414062 9.523438 65.386719 C 9.492188 65.386719 9.492188 65.355469 9.464844 65.324219 C 9.464844 65.324219 9.433594 65.324219 9.433594 65.296875 L 9.40625 65.324219 C 9.433594 65.355469 9.433594 65.355469 9.464844 65.386719 L 9.492188 65.414062 C 9.523438 65.445312 9.523438 65.476562 9.523438 65.503906 C 9.492188 65.59375 9.433594 65.625 9.347656 65.566406 C 9.316406 65.535156 9.285156 65.535156 9.285156 65.503906 C 9.285156 65.503906 9.257812 65.503906 9.257812 65.476562 C 9.226562 65.503906 9.226562 65.503906 9.226562 65.535156 C 9.226562 65.566406 9.257812 65.625 9.257812 65.65625 C 9.285156 65.714844 9.285156 65.742188 9.257812 65.773438 C 9.226562 65.832031 9.199219 65.863281 9.167969 65.894531 C 9.140625 65.921875 9.082031 65.953125 9.050781 65.953125 C 8.992188 65.984375 8.902344 66.011719 8.84375 66.042969 C 8.816406 66.042969 8.785156 66.074219 8.785156 66.101562 C 8.753906 66.160156 8.695312 66.222656 8.667969 66.28125 C 8.667969 66.28125 8.667969 66.3125 8.636719 66.3125 C 8.636719 66.3125 8.636719 66.339844 8.667969 66.339844 C 8.695312 66.371094 8.726562 66.429688 8.785156 66.460938 C 8.902344 66.609375 8.992188 66.789062 9.050781 66.96875 C 9.140625 67.207031 9.167969 67.476562 9.109375 67.746094 C 9.082031 67.894531 9.019531 68.042969 8.933594 68.191406 C 8.875 68.28125 8.816406 68.371094 8.726562 68.433594 C 8.636719 68.523438 8.519531 68.609375 8.402344 68.640625 C 8.222656 68.730469 8.046875 68.761719 7.839844 68.789062 C 7.722656 68.789062 7.632812 68.789062 7.515625 68.789062 C 7.429688 68.789062 7.308594 68.761719 7.222656 68.730469 C 7.164062 68.699219 7.074219 68.671875 7.015625 68.671875 C 6.898438 68.609375 6.777344 68.550781 6.691406 68.492188 C 6.511719 68.371094 6.367188 68.253906 6.246094 68.101562 C 6.1875 68.042969 6.128906 67.984375 6.101562 67.894531 C 5.980469 67.714844 5.894531 67.535156 5.835938 67.355469 C 5.804688 67.207031 5.773438 67.058594 5.773438 66.910156 C 5.773438 66.699219 5.804688 66.519531 5.894531 66.3125 C 5.921875 66.222656 5.980469 66.160156 6.039062 66.074219 C 6.070312 66.042969 6.101562 66.011719 6.128906 65.984375 C 6.1875 65.921875 6.246094 65.863281 6.304688 65.832031 C 6.453125 65.742188 6.601562 65.65625 6.777344 65.625 C 6.957031 65.59375 7.164062 65.566406 7.339844 65.59375 C 7.488281 65.625 7.605469 65.65625 7.753906 65.683594 C 7.839844 65.714844 7.898438 65.742188 7.988281 65.773438 L 8.019531 65.773438 C 8.019531 65.773438 8.019531 65.773438 8.046875 65.773438 C 8.105469 65.714844 8.136719 65.65625 8.195312 65.566406 L 8.222656 65.535156 C 8.222656 65.476562 8.222656 65.445312 8.253906 65.386719 C 8.285156 65.296875 8.285156 65.207031 8.3125 65.148438 C 8.3125 65.117188 8.34375 65.085938 8.371094 65.058594 C 8.429688 64.996094 8.460938 64.96875 8.550781 64.996094 C 8.578125 64.996094 8.636719 64.996094 8.667969 64.996094 C 8.695312 64.996094 8.695312 64.996094 8.695312 64.96875 L 8.667969 64.9375 L 8.636719 64.90625 C 8.609375 64.878906 8.609375 64.816406 8.609375 64.789062 C 8.636719 64.757812 8.667969 64.726562 8.726562 64.726562 C 8.753906 64.726562 8.753906 64.726562 8.785156 64.757812 C 8.816406 64.789062 8.816406 64.789062 8.84375 64.816406 C 8.84375 64.816406 8.84375 64.816406 8.875 64.789062 C 8.875 64.789062 8.875 64.789062 8.875 64.757812 C 8.84375 64.726562 8.84375 64.726562 8.816406 64.699219 C 8.753906 64.640625 8.753906 64.550781 8.84375 64.519531 C 8.875 64.488281 8.902344 64.519531 8.933594 64.519531 C 8.960938 64.519531 8.960938 64.550781 8.992188 64.550781 C 8.992188 64.550781 9.019531 64.550781 9.019531 64.578125 L 9.050781 64.550781 C 9.140625 64.429688 9.226562 64.339844 9.285156 64.21875 C 9.492188 63.980469 8.726562 64.9375 8.933594 64.699219 C 9.019531 64.578125 9.109375 64.460938 9.199219 64.339844 C 9.40625 64.101562 9.582031 63.832031 9.789062 63.59375 C 9.878906 63.472656 9.964844 63.355469 10.082031 63.234375 C 10.261719 62.996094 10.46875 62.726562 10.671875 62.488281 C 10.761719 62.367188 10.851562 62.25 10.96875 62.128906 C 11.175781 61.890625 11.351562 61.621094 11.558594 61.382812 C 11.648438 61.265625 11.734375 61.144531 11.824219 61.023438 C 12 60.785156 12.207031 60.515625 12.386719 60.277344 C 12.53125 60.070312 12.710938 59.859375 12.855469 59.652344 C 13.003906 59.472656 13.152344 59.292969 13.269531 59.082031 C 13.386719 58.933594 13.507812 58.785156 13.625 58.636719 C 13.652344 58.605469 13.652344 58.605469 13.683594 58.605469 L 13.714844 58.605469 C 13.800781 58.636719 13.859375 58.664062 13.949219 58.726562 C 14.066406 58.816406 14.125 58.90625 14.214844 59.023438 C 14.214844 59.023438 14.246094 59.054688 14.246094 59.082031 C 14.246094 59.113281 14.214844 59.113281 14.214844 59.144531 C 14.125 59.261719 14.007812 59.410156 13.917969 59.53125 C 13.917969 59.5625 13.890625 59.5625 13.890625 59.589844 C 13.890625 59.621094 13.917969 59.621094 13.949219 59.621094 C 14.183594 59.800781 14.390625 59.980469 14.628906 60.160156 C 14.804688 60.308594 15.011719 60.457031 15.1875 60.605469 C 15.21875 60.605469 15.21875 60.636719 15.246094 60.636719 L 15.246094 60.667969 C 15.1875 60.726562 15.101562 60.875 15.070312 60.90625 C 15.039062 60.90625 15.039062 60.875 15.011719 60.875 C 14.835938 60.757812 14.6875 60.605469 14.507812 60.488281 C 14.480469 60.457031 14.421875 60.425781 14.390625 60.398438 C 14.390625 60.398438 14.363281 60.398438 14.363281 60.367188 C 14.332031 60.398438 14.304688 60.425781 14.273438 60.488281 C 14.066406 60.546875 14.039062 60.578125 14.039062 60.605469 C 14.066406 60.636719 14.097656 60.636719 14.125 60.667969 C 14.214844 60.726562 14.304688 60.816406 14.390625 60.875 L 14.421875 60.90625 C 14.421875 60.933594 14.390625 60.933594 14.390625 60.964844 C 14.363281 61.023438 14.304688 61.085938 14.273438 61.144531 C 14.273438 61.144531 14.246094 61.175781 14.246094 61.203125 C 14.246094 61.234375 14.273438 61.234375 14.273438 61.234375 C 14.332031 61.292969 14.390625 61.324219 14.449219 61.382812 L 14.480469 61.414062 C 14.480469 61.414062 14.480469 61.441406 14.449219 61.441406 C 14.363281 61.5625 14.273438 61.683594 14.183594 61.800781 C 14.183594 61.800781 14.183594 61.800781 14.15625 61.800781 C 14.125 61.800781 14.125 61.773438 14.097656 61.773438 C 14.039062 61.710938 13.980469 61.683594 13.917969 61.621094 C 13.917969 61.621094 13.890625 61.59375 13.859375 61.621094 C 13.832031 61.652344 13.800781 61.683594 13.800781 61.710938 C 13.773438 61.742188 13.742188 61.773438 13.714844 61.800781 C 13.683594 61.832031 13.683594 61.859375 13.625 61.890625 C 13.59375 61.890625 13.59375 61.859375 13.566406 61.859375 C 13.476562 61.800781 13.386719 61.710938 13.300781 61.652344 C 13.269531 61.652344 13.269531 61.621094 13.242188 61.621094 C 13.183594 61.683594 13.152344 61.742188 13.09375 61.800781 C 13.09375 61.800781 13.09375 61.800781 13.09375 61.832031 L 13.121094 61.859375 C 13.183594 61.890625 13.242188 61.949219 13.269531 61.980469 C 13.417969 62.101562 13.566406 62.21875 13.714844 62.339844 L 13.742188 62.367188 C 13.683594 62.457031 13.625 62.519531 13.566406 62.609375 C 13.566406 62.609375 13.566406 62.609375 13.535156 62.636719 C 13.507812 62.636719 13.507812 62.609375 13.507812 62.609375 C 13.242188 62.398438 12.945312 62.160156 12.679688 61.949219 C 12.53125 61.832031 12.414062 61.742188 12.265625 61.621094 C 12.238281 61.621094 12.238281 61.59375 12.207031 61.59375 C 12.238281 61.652344 12.238281 61.652344 12.207031 61.683594 Z M 12.207031 61.683594 " fill-opacity="1" fill-rule="nonzero"/><path fill="#ed1c24" d="M 27.671875 42.867188 C 27.875 42.804688 27.757812 42.566406 28.40625 42.476562 C 28.761719 42.417969 28.734375 42.058594 29.558594 42.238281 C 29.941406 42.296875 30.0625 42.566406 30.148438 42.867188 C 29.765625 42.6875 29.292969 42.777344 29.5 42.777344 C 29.855469 42.746094 30 43.222656 30.03125 43.375 C 29.648438 42.984375 29.234375 43.195312 29.234375 43.253906 C 29.617188 43.195312 29.855469 43.523438 29.855469 43.613281 C 29.382812 43.433594 28.527344 44.179688 28.203125 43.492188 C 28.082031 43.253906 27.433594 43.074219 27.671875 42.867188 Z M 27.671875 42.867188 " fill-opacity="1" fill-rule="nonzero"/><path fill="#ed1c24" d="M 24.101562 41.851562 L 24.542969 41.851562 L 24.808594 41.222656 L 25.164062 41.910156 L 25.605469 41.910156 L 26.222656 41.523438 L 25.605469 42.386719 C 25.132812 42.296875 24.570312 42.296875 23.921875 42.386719 L 23.480469 41.523438 Z M 24.101562 41.851562 " fill-opacity="1" fill-rule="nonzero"/><path fill="#ed1c24" d="M 32.039062 49.882812 C 31.773438 50.0625 30.679688 49.972656 30.679688 49.972656 C 30.679688 49.972656 30.472656 49.226562 30.976562 49.226562 C 31.476562 49.226562 32.304688 49.734375 32.039062 49.882812 Z M 32.039062 49.882812 " fill-opacity="1" fill-rule="nonzero"/><path fill="#ed1c24" d="M 27.90625 49.496094 C 27.640625 49.644531 26.519531 49.585938 26.519531 49.585938 C 26.519531 49.585938 26.34375 48.839844 26.816406 48.839844 C 27.316406 48.839844 28.144531 49.347656 27.90625 49.496094 Z M 27.90625 49.496094 " fill-opacity="1" fill-rule="nonzero"/><path fill="#ed1c24" d="M 23.628906 49.707031 C 23.363281 49.855469 22.242188 49.792969 22.242188 49.792969 C 22.242188 49.792969 22.035156 49.046875 22.535156 49.046875 C 23.066406 49.046875 23.894531 49.554688 23.628906 49.707031 Z M 23.628906 49.707031 " fill-opacity="1" fill-rule="nonzero"/><path fill="#ed1c24" d="M 21.355469 44.539062 C 21.355469 44.539062 22.09375 44.328125 22.09375 44.835938 C 22.09375 45.34375 21.589844 46.179688 21.445312 45.914062 C 21.296875 45.671875 21.355469 44.539062 21.355469 44.539062 Z M 21.355469 44.539062 " fill-opacity="1" fill-rule="nonzero"/><path fill="#ed1c24" d="M 31.566406 47.613281 C 31.625 47.285156 31.183594 46.777344 31.0625 46.6875 C 31.003906 46.628906 31.003906 46.507812 31.0625 46.417969 C 30.828125 46.210938 30.5625 46.121094 30.5625 46.121094 L 30.589844 46.03125 C 30.589844 46.03125 30.855469 46.121094 31.121094 46.332031 C 31.152344 46.300781 31.152344 46.269531 31.152344 46.269531 C 32.183594 46 32.65625 44.835938 32.097656 44.238281 C 31.535156 43.640625 30.796875 43.613281 29.914062 43.96875 C 29.027344 44.300781 28.378906 44.328125 28.113281 44.238281 C 27.523438 44.03125 27.582031 42.984375 27.582031 42.984375 C 26.726562 44.65625 28.203125 44.777344 28.792969 44.65625 C 29.441406 44.566406 29.855469 44.328125 30.769531 44.449219 C 31.449219 44.539062 31.535156 45.074219 31.269531 45.375 C 30.976562 45.734375 30.445312 45.523438 30.445312 45.523438 C 30.03125 45.195312 28.082031 45.40625 27.582031 45.464844 C 27.109375 45.492188 26.726562 45.074219 26.726562 45.074219 L 26.429688 44.417969 C 26.488281 44.898438 26.460938 45.375 26.222656 45.671875 C 26.371094 45.015625 26.019531 44.808594 26.253906 44.03125 L 25.839844 43.015625 C 25.457031 42.328125 23.921875 42.777344 23.921875 42.777344 C 23.921875 42.777344 23.097656 43.375 22.683594 43.582031 C 22.566406 43.640625 22.890625 45.046875 23.125 44.925781 C 23.242188 44.867188 23.980469 44.6875 23.980469 44.6875 L 23.980469 45.34375 L 23.6875 46.121094 L 22.0625 45.851562 L 21.769531 46.121094 L 21.886719 46.300781 L 21.976562 46.390625 C 22.652344 46.507812 24.21875 47.765625 24.21875 47.765625 C 23.953125 47.914062 23.125 48.898438 23.125 48.898438 L 23.835938 49.347656 L 25.191406 47.851562 C 26.816406 48.449219 27.964844 47.136719 28.140625 47.285156 C 28.320312 47.433594 28.082031 47.644531 28.171875 48.03125 C 28.230469 48.273438 28.171875 48.691406 28.171875 48.691406 L 27.757812 48.867188 L 28.140625 49.199219 C 28.140625 49.199219 28.46875 49.199219 28.792969 48.988281 C 29.027344 48.839844 29.058594 48.152344 28.96875 48.03125 C 28.910156 47.941406 29.234375 47.675781 29.292969 47.613281 C 28.851562 46.925781 28.054688 47.015625 28.054688 47.046875 L 28.054688 46.957031 C 28.054688 46.957031 29 46.839844 29.46875 47.703125 L 29.441406 47.703125 C 30.769531 48.898438 31.773438 48.242188 31.773438 48.242188 C 31.773438 48.242188 31.890625 48.691406 31.832031 49.285156 L 32.246094 49.792969 L 32.570312 47.675781 C 32.570312 47.703125 31.507812 47.941406 31.566406 47.613281 Z M 23.894531 43.285156 C 23.835938 43.3125 23.773438 43.285156 23.746094 43.253906 C 23.746094 43.222656 23.773438 43.164062 23.863281 43.164062 C 23.921875 43.164062 23.980469 43.164062 23.980469 43.195312 C 24.011719 43.222656 23.953125 43.285156 23.894531 43.285156 Z M 24.335938 47.316406 C 24.128906 46.867188 24.304688 46.570312 24.039062 45.613281 C 24.484375 46.179688 24.453125 46.6875 24.335938 47.316406 Z M 24.484375 43.703125 C 24.484375 43.222656 24.394531 43.042969 24.394531 43.042969 L 24.511719 43.042969 C 24.542969 43.253906 24.484375 43.703125 24.484375 43.703125 Z M 25.164062 46.300781 C 24.898438 45.253906 25.28125 44.957031 25.515625 43.703125 C 25.839844 44.808594 25.164062 45.316406 25.164062 46.300781 Z M 25.78125 47.882812 L 25.78125 47.40625 C 26.164062 47.644531 26.785156 47.613281 27.640625 47.34375 C 26.667969 48.09375 25.78125 47.882812 25.78125 47.882812 Z M 25.78125 47.882812 " fill-opacity="1" fill-rule="nonzero"/><path fill="#ffffff" d="M 30.621094 60.933594 L 30.855469 61.324219 L 30.855469 66.609375 L 27.226562 66.371094 C 27.050781 66.519531 26.816406 66.582031 26.550781 66.582031 C 26.285156 66.582031 26.046875 66.492188 25.898438 66.371094 L 22.242188 66.609375 L 22.242188 61.324219 L 22.417969 60.996094 L 21.917969 61.023438 L 21.917969 67 L 25.78125 66.699219 C 25.929688 66.789062 26.078125 66.847656 26.222656 66.878906 C 26.371094 66.910156 26.488281 66.9375 26.609375 66.9375 C 26.726562 66.9375 26.84375 66.910156 26.992188 66.878906 C 27.140625 66.847656 27.257812 66.789062 27.375 66.699219 L 31.210938 67 L 31.210938 60.964844 Z M 30.621094 60.933594 " fill-opacity="1" fill-rule="nonzero"/><path fill="#ffffff" d="M 25.929688 66.101562 C 26.019531 66.222656 26.164062 66.3125 26.402344 66.371094 C 26.371094 65.984375 26.222656 65.714844 25.957031 65.535156 C 25.695312 65.355469 25.308594 65.296875 24.777344 65.296875 C 24.511719 65.296875 24.246094 65.324219 23.953125 65.355469 C 23.65625 65.386719 23.363281 65.445312 23.039062 65.503906 L 22.59375 66.371094 Z M 25.929688 66.101562 " fill-opacity="1" fill-rule="nonzero"/><path fill="#ffffff" d="M 24.75 65.058594 C 25.546875 65.058594 26.078125 65.234375 26.429688 65.625 L 26.429688 61.351562 C 26.429688 60.933594 26.285156 60.605469 26.019531 60.398438 C 25.753906 60.1875 25.367188 60.070312 24.835938 60.070312 C 24.570312 60.070312 24.277344 60.097656 24.011719 60.128906 C 23.714844 60.160156 23.421875 60.21875 23.125 60.308594 L 23.125 65.265625 C 23.480469 65.207031 23.804688 65.144531 24.070312 65.117188 C 24.335938 65.085938 24.542969 65.058594 24.75 65.058594 Z M 24.75 65.058594 " fill-opacity="1" fill-rule="nonzero"/><path fill="#ffffff" d="M 22.890625 60.546875 L 22.449219 61.351562 L 22.449219 66.160156 L 22.890625 65.265625 Z M 22.890625 60.546875 " fill-opacity="1" fill-rule="nonzero"/><path fill="#ffffff" d="M 28.261719 65.296875 C 27.199219 65.296875 26.667969 65.65625 26.667969 66.371094 C 26.875 66.339844 27.050781 66.222656 27.167969 66.101562 L 30.503906 66.371094 L 30.0625 65.503906 C 29.707031 65.414062 29.382812 65.355469 29.085938 65.324219 C 28.792969 65.296875 28.496094 65.296875 28.261719 65.296875 Z M 28.261719 65.296875 " fill-opacity="1" fill-rule="nonzero"/><path fill="#ffffff" d="M 30.621094 61.414062 L 30.179688 60.546875 L 30.179688 65.265625 L 30.621094 66.132812 Z M 30.621094 61.414062 " fill-opacity="1" fill-rule="nonzero"/><path fill="#ffffff" d="M 28.289062 65.058594 C 28.554688 65.058594 28.851562 65.085938 29.117188 65.117188 C 29.410156 65.148438 29.675781 65.207031 29.941406 65.265625 L 29.941406 60.277344 C 29.617188 60.21875 29.292969 60.160156 29.027344 60.097656 C 28.761719 60.070312 28.496094 60.039062 28.261719 60.039062 C 27.699219 60.039062 27.285156 60.160156 26.992188 60.398438 C 26.753906 60.578125 26.636719 60.90625 26.636719 61.351562 L 26.636719 65.652344 C 26.84375 65.445312 27.082031 65.265625 27.316406 65.207031 C 27.550781 65.117188 27.878906 65.058594 28.289062 65.058594 Z M 28.289062 65.058594 " fill-opacity="1" fill-rule="nonzero"/><g clip-path="url(#59c1b67482)"><path fill="#21409a" d="M 17.371094 34.890625 C 17.371094 34.890625 14.214844 34.742188 10.230469 35.636719 C 4.625 36.921875 2.53125 38.652344 2.53125 38.652344 L 2.53125 53.796875 L 17.371094 53.796875 Z M 17.371094 34.890625 " fill-opacity="1" fill-rule="nonzero"/></g><path fill="#ffffff" d="M 16.28125 36.324219 C 16.28125 36.324219 13.566406 36.207031 10.144531 36.980469 C 5.332031 38.058594 3.53125 39.519531 3.53125 39.519531 L 3.53125 52.722656 L 16.308594 52.722656 L 16.308594 36.324219 Z M 16.28125 36.324219 " fill-opacity="1" fill-rule="nonzero"/><path fill="#21409a" d="M 10.054688 43.3125 C 8.785156 43.3125 7.753906 44.359375 7.753906 45.613281 C 7.753906 46.898438 8.785156 47.941406 10.054688 47.941406 C 11.292969 47.941406 12.324219 46.898438 12.324219 45.613281 C 12.324219 44.359375 11.292969 43.3125 10.054688 43.3125 Z M 10.054688 47.554688 C 9.019531 47.554688 8.164062 46.6875 8.164062 45.644531 C 8.164062 44.597656 9.019531 43.730469 10.054688 43.730469 C 11.085938 43.730469 11.941406 44.597656 11.941406 45.644531 C 11.914062 46.6875 11.085938 47.554688 10.054688 47.554688 Z M 10.054688 47.554688 " fill-opacity="1" fill-rule="nonzero"/><path fill="#21409a" d="M 14.539062 46.6875 L 14.539062 44.597656 L 13.652344 44.597656 C 13.566406 44.328125 13.476562 44.058594 13.328125 43.792969 L 13.980469 43.132812 L 12.503906 41.640625 L 11.855469 42.269531 C 11.617188 42.117188 11.351562 42.03125 11.058594 41.941406 L 11.058594 41.015625 L 8.992188 41.015625 L 8.992188 41.941406 C 8.726562 42.03125 8.460938 42.117188 8.195312 42.269531 L 7.546875 41.640625 L 6.070312 43.132812 L 6.71875 43.792969 C 6.570312 44.058594 6.484375 44.300781 6.394531 44.597656 L 5.507812 44.597656 L 5.507812 46.6875 L 6.394531 46.6875 C 6.484375 46.957031 6.601562 47.226562 6.71875 47.496094 L 6.070312 48.152344 L 7.546875 49.644531 L 8.195312 48.988281 C 8.429688 49.136719 8.695312 49.226562 8.992188 49.316406 L 8.992188 50.242188 L 11.058594 50.242188 L 11.058594 49.316406 C 11.324219 49.226562 11.589844 49.136719 11.855469 48.988281 L 12.503906 49.644531 L 13.980469 48.152344 L 13.328125 47.496094 C 13.476562 47.257812 13.566406 46.988281 13.652344 46.6875 Z M 13.300781 46.421875 C 13.210938 46.777344 13.09375 47.105469 12.917969 47.40625 L 12.828125 47.554688 L 13.386719 48.121094 L 12.503906 49.019531 L 11.914062 48.449219 L 11.765625 48.539062 C 11.46875 48.71875 11.144531 48.867188 10.820312 48.929688 L 10.671875 48.957031 L 10.671875 49.765625 L 9.40625 49.765625 L 9.40625 48.957031 L 9.257812 48.929688 C 8.902344 48.839844 8.578125 48.71875 8.285156 48.539062 L 8.136719 48.449219 L 7.574219 49.019531 L 6.660156 48.121094 L 7.222656 47.554688 L 7.132812 47.40625 C 6.957031 47.105469 6.808594 46.777344 6.75 46.421875 L 6.71875 46.269531 L 5.921875 46.269531 L 5.921875 44.988281 L 6.71875 44.988281 L 6.75 44.835938 C 6.835938 44.480469 6.957031 44.148438 7.132812 43.851562 L 7.222656 43.703125 L 6.660156 43.132812 L 7.574219 42.238281 L 8.136719 42.804688 L 8.285156 42.714844 C 8.578125 42.539062 8.902344 42.386719 9.257812 42.296875 L 9.40625 42.269531 L 9.40625 41.460938 L 10.671875 41.460938 L 10.671875 42.296875 L 10.820312 42.328125 C 11.144531 42.417969 11.46875 42.539062 11.765625 42.746094 L 11.914062 42.835938 L 12.503906 42.269531 L 13.386719 43.164062 L 12.828125 43.730469 L 12.917969 43.882812 C 13.09375 44.179688 13.242188 44.507812 13.300781 44.867188 L 13.328125 45.015625 L 14.125 45.015625 L 14.125 46.300781 L 13.328125 46.300781 Z M 13.300781 46.421875 " fill-opacity="1" fill-rule="nonzero"/><path fill="#74c044" d="M 146.292969 42.179688 L 179.992188 42.179688 C 182.5 42.179688 184.566406 44.269531 184.566406 46.867188 L 184.566406 65.476562 C 184.566406 68.042969 182.53125 70.164062 179.992188 70.164062 L 146.292969 70.164062 C 143.785156 70.164062 141.71875 68.074219 141.71875 65.476562 L 141.71875 46.867188 C 141.71875 44.269531 143.757812 42.179688 146.292969 42.179688 Z M 146.292969 42.179688 " fill-opacity="1" fill-rule="evenodd"/><path fill="#ffffff" d="M 142.988281 53.230469 L 147.0625 53.230469 L 147.0625 54.871094 C 148.386719 53.5 149.714844 52.960938 151.488281 52.960938 C 154.289062 52.960938 155.882812 54.722656 155.882812 58.039062 L 155.882812 66.371094 L 151.78125 66.371094 L 151.78125 58.605469 C 151.78125 56.785156 151.25 55.917969 149.953125 55.917969 C 148.683594 55.917969 147.738281 56.785156 147.03125 57.980469 L 147.03125 66.371094 L 142.988281 66.371094 Z M 142.988281 53.230469 " fill-opacity="1" fill-rule="nonzero"/><path fill="#74c044" d="M 137.941406 47.824219 C 139.300781 47.824219 140.363281 48.898438 140.363281 50.273438 C 140.363281 51.648438 139.300781 52.722656 137.941406 52.722656 C 136.585938 52.722656 135.523438 51.617188 135.523438 50.273438 C 135.523438 48.929688 136.585938 47.824219 137.941406 47.824219 Z M 137.941406 47.824219 " fill-opacity="1" fill-rule="nonzero"/><path fill="#74c044" d="M 140.304688 53.167969 L 135.523438 53.167969 L 135.523438 66.492188 L 140.304688 66.492188 Z M 140.304688 53.167969 " fill-opacity="1" fill-rule="nonzero"/><path fill="#ffffff" d="M 168.898438 50.960938 C 169.191406 50.960938 169.457031 51.050781 169.753906 51.199219 C 170.019531 51.347656 170.253906 51.558594 170.402344 51.855469 C 170.550781 52.125 170.636719 52.421875 170.636719 52.722656 C 170.636719 53.019531 170.550781 53.320312 170.402344 53.589844 C 170.253906 53.855469 170.046875 54.097656 169.753906 54.246094 C 169.488281 54.394531 169.191406 54.484375 168.898438 54.484375 C 168.601562 54.484375 168.308594 54.394531 168.042969 54.246094 C 167.773438 54.097656 167.539062 53.886719 167.390625 53.589844 C 167.246094 53.320312 167.15625 53.019531 167.15625 52.722656 C 167.15625 52.421875 167.246094 52.125 167.390625 51.855469 C 167.539062 51.585938 167.773438 51.347656 168.042969 51.199219 C 168.335938 51.019531 168.632812 50.960938 168.898438 50.960938 Z M 170.164062 51.976562 C 170.046875 51.738281 169.871094 51.558594 169.632812 51.4375 C 169.398438 51.316406 169.164062 51.257812 168.925781 51.257812 C 168.691406 51.257812 168.453125 51.316406 168.21875 51.4375 C 167.980469 51.558594 167.804688 51.738281 167.6875 51.976562 C 167.570312 52.214844 167.480469 52.453125 167.480469 52.722656 C 167.480469 52.960938 167.539062 53.230469 167.65625 53.4375 C 167.773438 53.675781 167.953125 53.855469 168.1875 53.976562 C 168.425781 54.097656 168.660156 54.15625 168.898438 54.15625 C 169.132812 54.15625 169.398438 54.097656 169.605469 53.976562 C 169.839844 53.855469 170.019531 53.675781 170.136719 53.4375 C 170.253906 53.199219 170.3125 52.960938 170.3125 52.722656 C 170.34375 52.453125 170.285156 52.214844 170.164062 51.976562 Z M 169.457031 53.171875 C 169.515625 53.4375 169.574219 53.648438 169.605469 53.707031 L 169.339844 53.707031 C 169.308594 53.648438 169.25 53.46875 169.222656 53.230469 C 169.164062 52.960938 169.042969 52.871094 168.835938 52.839844 L 168.601562 52.839844 L 168.601562 53.707031 L 168.367188 53.707031 L 168.367188 51.765625 C 168.484375 51.738281 168.691406 51.738281 168.835938 51.738281 C 169.101562 51.738281 169.28125 51.796875 169.398438 51.886719 C 169.488281 51.976562 169.546875 52.09375 169.546875 52.242188 C 169.546875 52.511719 169.371094 52.664062 169.191406 52.75 C 169.339844 52.8125 169.429688 52.960938 169.457031 53.171875 Z M 169.308594 52.273438 C 169.308594 52.035156 169.132812 51.914062 168.867188 51.914062 C 168.75 51.914062 168.660156 51.914062 168.632812 51.945312 L 168.632812 52.664062 L 168.898438 52.664062 C 169.132812 52.664062 169.308594 52.511719 169.308594 52.273438 Z M 169.308594 52.273438 " fill-opacity="1" fill-rule="evenodd"/><path fill="#ffffff" d="M 164.882812 64.609375 C 162.433594 64.308594 161.3125 64.398438 161.3125 63.535156 C 161.3125 62.519531 162.433594 62.789062 164.234375 62.488281 C 166.980469 62.011719 168.394531 60.605469 168.394531 58.21875 C 168.394531 57.320312 168.1875 56.632812 167.773438 55.976562 C 167.773438 55.976562 166.773438 54.574219 164.589844 53.917969 L 161.902344 55.769531 C 161.902344 55.769531 163.792969 55.679688 164.441406 57.113281 C 165.0625 58.546875 164.234375 60.25 162.140625 60.21875 C 160.042969 60.1875 159.777344 57.949219 160.191406 56.84375 C 160.632812 55.707031 162.050781 54.273438 164.855469 53.320312 L 165.445312 53.976562 L 165.917969 51.347656 L 163.054688 50.480469 L 163.46875 51.257812 C 163.46875 51.257812 157.535156 52.929688 156.386719 56.15625 C 156.089844 56.964844 156.089844 57.769531 156.121094 58.097656 C 156.296875 60.25 157.269531 61.351562 159.570312 62.039062 C 158.125 62.367188 157.386719 63.027344 157.386719 64.070312 C 157.386719 64.847656 157.890625 65.386719 158.894531 65.683594 C 156.621094 66.28125 155.441406 67.417969 155.441406 68.941406 C 155.441406 69.359375 155.53125 69.746094 155.675781 70.132812 L 160.457031 70.132812 C 159.632812 69.894531 159.1875 69.417969 159.1875 68.730469 C 159.1875 67.804688 160.25 67.238281 162.316406 67.238281 C 164.265625 67.238281 165.328125 67.835938 165.328125 68.761719 C 165.328125 69.417969 164.882812 69.894531 164 70.132812 L 168.75 70.132812 C 168.984375 69.65625 169.074219 69.089844 169.074219 68.460938 C 169.132812 66.339844 167.6875 64.996094 164.882812 64.609375 Z M 164.882812 64.609375 " fill-opacity="1" fill-rule="nonzero"/><g clip-path="url(#5896b04c18)"><path fill="#58595b" d="M 120.445312 34.890625 L 120.03125 34.890625 L 120.03125 77.453125 L 120.445312 77.453125 Z M 120.445312 34.890625 " fill-opacity="1" fill-rule="nonzero"/></g></svg>