<?xml version="1.0" encoding="utf-8"?>
<!-- Generator: Adobe Illustrator 27.7.0, SVG Export Plug-In . SVG Version: 6.00 Build 0)  -->
<svg version="1.1" id="Layer_1" xmlns="http://www.w3.org/2000/svg" xmlns:xlink="http://www.w3.org/1999/xlink" x="0px" y="0px"
	 viewBox="0 0 60 60" style="enable-background:new 0 0 60 60;" xml:space="preserve">
<style type="text/css">
	.st0{fill:#F7F6F4;}
	.st1{fill:#00725F;}
</style>
<g>
	<g>
		<path class="st1" d="M48.3,58.7H9.1c-5.1,0-9.1-4.1-9.1-9.1V10.4c0-5.1,4.1-9.1,9.1-9.1h39.2c5.1,0,9.1,4.1,9.1,9.1v39.2
			C57.4,54.6,53.3,58.7,48.3,58.7z"/>
		<g>
			<path class="st0" d="M40.9,37.3c-4.8,7.2-2.6,3.7-9.1,12.8c-0.1,0.1-0.7-1.1-0.6-1.2c1.9-3.2,8.5-12.6,8.2-18.2
				c0,0-0.1-3.7-3.7-6.9c-1.8-1.6-2.8-3.9-2.8-6.3c0-1.4,0.3-3,1.2-4.8c0.3-0.5,0.5-0.9,0.8-1.3c0-0.1,0-0.1-0.1-0.1l0,0
				c-1.3,0.5-9.2,3.7-10.8,9.3c0,0-0.1,0.1-0.1,0L22.9,20c0,0,0,0,0-0.1c0.1-0.5,1.3-6.4,8.1-8.7c0,0,3.3-1,6.7-3.3l0,0
				c0.1,0,1-0.4,1.6-0.2c0.1,0,0.1,0.1,0,0.2l0,0c-0.3,0.2-0.8,0.6-1.5,1.3l0,0c-1.3,1.4-2.8,3.9-2.9,7.6c0,0-0.1,3.9,4.9,7.4
				C39.8,24.3,46.3,29.1,40.9,37.3z"/>
			<path class="st0" d="M8.2,14.9c0,0,6.8,13.8,13.4,15.8c0,0,2.3,0,1.7-1.7c0,0-10.6-7-13.6-14.7C9.6,14.2,7.9,13.4,8.2,14.9z"/>
			<path class="st0" d="M24.4,32.9c0,0,5,14.6,1.7,20.6c0,0-1.6,1.6-2.4,0c0,0,2.5-12.5-0.8-20C22.8,33.5,23.5,31.7,24.4,32.9z"/>
			<ellipse transform="matrix(0.6753 -0.7375 0.7375 0.6753 -4.58 27.3096)" class="st0" cx="28.7" cy="18.9" rx="2.3" ry="1.9"/>
		</g>
	</g>
</g>
</svg>
