<svg width="527" height="100" viewBox="0 0 527 100" fill="none" xmlns="http://www.w3.org/2000/svg">
<path d="M95.7959 77.0473V1.61638H111.097V77.0473H95.7959Z" fill="black"/>
<path d="M176.315 52.3708H133.86C133.86 57.0043 135.369 60.6681 138.17 63.2543C140.972 65.9484 144.528 67.2413 148.946 67.2413C152.394 67.2413 155.303 66.3792 157.674 64.6551C160.044 62.9311 161.661 60.5603 162.415 57.7586H175.776C175.13 62.2846 173.514 66.1638 170.82 69.2889C168.018 72.5216 164.786 74.8922 160.907 76.4008C157.027 78.0173 153.041 78.7716 148.946 78.7716C139.679 78.7716 132.46 76.1854 127.18 71.013C121.792 65.8405 119.206 58.513 119.206 49.0303C119.206 43.2111 120.391 38.1465 122.762 33.6208C125.132 29.2027 128.473 25.7543 132.783 23.3836C137.093 21.0129 142.158 19.7198 147.976 19.7198C153.687 19.7198 158.751 21.0129 163.062 23.4914C167.372 26.0776 170.604 29.4181 172.867 33.7284C175.13 38.0389 176.315 42.7803 176.315 47.9527V52.3708ZM138.063 34.5905C135.477 36.8535 134.076 39.9784 133.86 44.0732H161.23C160.907 40.0862 159.506 36.9611 157.027 34.6984C154.549 32.4354 151.424 31.25 147.653 31.25C143.774 31.25 140.541 32.4354 138.063 34.5905Z" fill="black"/>
<path d="M187.407 51.5086C191.071 48.707 196.781 47.3059 204.324 47.3059C211.22 47.4138 215.961 46.8751 218.763 45.5819C221.457 44.3965 222.858 42.3492 222.858 39.5473C222.858 37.3922 221.888 35.4527 220.056 33.7284C218.116 32.1122 215.207 31.25 211.22 31.25C207.018 31.25 203.785 32.4354 201.522 34.5905C199.152 36.8535 197.859 39.8708 197.536 43.5346H182.342C182.558 39.224 183.743 35.237 185.898 31.5732C188.053 28.0173 191.286 25.1078 195.596 22.9526C199.798 20.7974 204.971 19.7198 211.112 19.7198C220.056 19.7198 226.737 21.7672 231.262 25.8621C235.68 29.957 237.943 35.1292 237.943 41.487V77.0473H223.289L222.858 59.6984H222.319C221.565 65.8405 219.302 70.5819 215.423 73.8146C211.544 77.1551 206.587 78.7716 200.661 78.7716C195.057 78.7716 190.424 77.4784 186.976 74.8922C183.528 72.3059 181.804 68.4268 181.804 63.3622C181.804 58.4051 183.636 54.4181 187.407 51.5086ZM199.475 67.0259C200.984 68.2111 203.139 68.75 205.94 68.75C208.957 68.75 211.759 68.1035 214.345 66.5949C216.931 65.1941 218.979 63.2543 220.487 60.8835C221.996 58.513 222.858 56.0346 222.858 53.3405V44.8276H222.319C221.888 47.1984 221.134 49.1378 220.056 50.5389C218.979 52.0473 217.147 53.1249 214.776 53.8792C212.406 54.7413 209.065 55.2803 204.755 55.4957C202.385 55.7111 200.553 56.3578 199.26 57.4354C197.967 58.6208 197.32 60.1292 197.32 62.0689C197.32 64.2241 197.967 65.8405 199.475 67.0259Z" fill="black"/>
<path d="M296.869 23.3836C300.423 25.7543 303.225 29.2027 305.271 33.6208C307.211 38.1465 308.29 43.3189 308.29 49.2457C308.29 55.2803 307.211 60.4527 305.271 64.8708C303.225 69.3965 300.423 72.8449 296.869 75.2154C293.312 77.5862 289.218 78.7716 284.691 78.7716C279.951 78.7716 275.748 77.3708 272.084 74.4611C268.421 71.5516 265.727 67.2413 264.218 61.5303H263.572V96.8751H248.271V21.444H263.141L263.572 37.0689H264.218C265.727 31.3578 268.421 27.0473 272.084 24.1379C275.748 21.2285 279.951 19.7198 284.691 19.7198C289.218 19.7198 293.312 21.0129 296.869 23.3836ZM288.894 63.1465C291.48 59.8059 292.88 55.1724 292.88 49.2457C292.88 43.4268 291.48 38.793 288.894 35.4527C286.199 32.1122 282.645 30.3878 278.226 30.3878C273.808 30.3878 270.253 31.8965 267.559 34.8059C264.865 37.8232 263.572 41.487 263.572 46.013V52.5862C263.572 57.1122 264.865 60.7759 267.559 63.6854C270.253 66.7027 273.808 68.1035 278.226 68.1035C282.645 68.1035 286.199 66.487 288.894 63.1465Z" fill="black"/>
<path d="M337.31 13.6854C336.018 14.7629 335.477 16.5948 335.477 19.2888V21.444H352.179V30.9268H335.802V77.0473H320.5V30.9268H310.265V21.444H320.5V19.2888C320.5 12.7155 322.116 7.86638 325.564 4.74138C329.013 1.61638 334.402 0 341.728 0C344.528 0 347.977 0.107756 352.179 0.215514V12.3922C348.301 12.2845 345.607 12.1767 344.315 12.1767C340.866 12.1767 338.496 12.7155 337.31 13.6854Z" fill="black"/>
<path d="M375.232 42.7803C376.094 37.1768 377.281 32.7586 379.005 29.5259C380.621 26.4009 382.991 24.1379 386.115 22.6293C389.242 21.2285 393.55 20.4741 399.047 20.4741V33.4051C393.012 33.8362 388.272 34.5905 384.932 35.8835C381.483 37.1768 379.005 39.2241 377.389 42.0259C375.665 44.8276 374.803 48.9224 374.586 54.0949V77.0473H359.287V21.444H374.157L374.586 42.7803H375.232Z" fill="black"/>
<path d="M415.668 75.2154C411.033 72.8449 407.371 69.2889 404.677 64.763C401.982 60.237 400.69 55.0646 400.69 49.0303C400.69 43.2111 401.982 38.1465 404.677 33.6208C407.371 29.2027 411.033 25.7543 415.668 23.3836C420.3 21.0129 425.473 19.7198 431.075 19.7198C436.68 19.7198 441.745 21.0129 446.377 23.3836C450.904 25.7543 454.566 29.2027 457.261 33.6208C459.955 38.1465 461.355 43.2111 461.355 49.0303C461.355 55.0646 459.955 60.237 457.369 64.763C454.674 69.2889 451.012 72.8449 446.377 75.2154C441.745 77.5862 436.68 78.7716 431.075 78.7716C425.473 78.7716 420.3 77.5862 415.668 75.2154ZM441.85 62.5C444.437 59.4827 445.839 54.957 445.839 49.0303C445.839 43.3189 444.437 38.9008 441.85 35.8835C439.267 32.8665 435.602 31.3578 431.075 31.3578C426.335 31.3578 422.67 32.8665 420.087 35.8835C417.5 38.9008 416.206 43.3189 416.206 49.0303C416.206 54.957 417.5 59.4827 420.087 62.5C422.67 65.6249 426.335 67.1335 431.075 67.1335C435.602 67.1335 439.267 65.6249 441.85 62.5Z" fill="black"/>
<path d="M524.554 23.7069L504.836 20.2586L504.728 21.0129C508.931 22.0905 512.376 24.1379 514.963 27.1551C517.549 30.1724 518.952 33.7284 518.952 37.9311C518.952 43.75 516.687 48.2759 512.376 51.6165C507.96 54.957 501.926 56.5732 494.167 56.5732C491.15 56.5732 488.24 56.3578 485.548 55.7111C483.824 56.25 482.637 56.8965 481.991 57.543C481.346 58.2973 481.021 59.2673 481.021 60.3449C481.021 61.7457 481.559 62.8232 482.854 63.6854C484.04 64.5473 485.762 64.8708 487.918 64.8708H503.217C510.114 64.8708 515.287 66.2716 518.844 68.8578C522.398 71.5516 524.23 75.9697 524.23 82.0043C524.23 88.0389 521.752 92.4568 516.795 95.4741C511.839 98.4913 504.62 100 495.029 100C484.686 100 477.359 99.0303 473.049 96.8751C468.63 94.7197 466.476 91.487 466.476 87.1768C466.476 81.1422 471.433 77.5862 481.559 76.724V76.293C477.251 75.8622 473.911 74.6768 471.646 72.737C469.384 70.7973 468.306 68.5346 468.306 65.8405C468.306 62.5 469.6 60.0216 472.187 58.2973C474.773 56.5732 478.327 55.7111 482.854 55.4957V55.0646C478.435 53.7716 475.095 51.6165 472.724 48.5992C470.354 45.6897 469.276 42.1335 469.276 37.9311C469.276 33.0819 471 29.0949 474.449 25.9698C477.897 22.8448 483.716 20.4741 492.121 18.9655C502.788 17.0259 513.563 14.7629 524.554 12.2845V23.7069ZM502.034 32.543C500.093 31.1422 497.507 30.3878 494.167 30.3878C490.718 30.3878 488.134 31.1422 486.302 32.543C484.362 33.9441 483.5 35.7759 483.5 37.9311C483.5 40.3016 484.362 42.2413 486.302 43.75C488.134 45.2586 490.718 45.9051 494.167 45.9051C497.507 45.9051 500.093 45.2586 502.034 43.75C503.866 42.2413 504.836 40.3016 504.836 37.9311C504.836 35.7759 503.866 33.9441 502.034 32.543ZM484.686 76.4008C481.237 77.5862 479.621 79.6335 479.621 82.4354C479.621 84.5905 480.805 86.3146 483.283 87.3922C485.656 88.5776 489.642 89.1165 495.029 89.1165C500.634 89.1165 504.512 88.5776 506.882 87.5C509.252 86.4224 510.439 84.5905 510.439 82.2197C510.439 80.1724 509.685 78.6638 508.39 77.694C506.99 76.8319 504.836 76.293 501.818 76.293L484.686 76.4008Z" fill="black"/>
<path fill-rule="evenodd" clip-rule="evenodd" d="M0 76.2538C0 35.1195 33.3626 1.77365 74.5175 1.77365H80.8148V24.852H74.5175C46.1149 24.852 23.09 47.8654 23.09 76.2538H0Z" fill="#038E43"/>
</svg>
