<svg xmlns="http://www.w3.org/2000/svg" xmlns:xlink="http://www.w3.org/1999/xlink" width="343" zoomAndPan="magnify" viewBox="0 0 257.25 231" height="308" preserveAspectRatio="xMidYMid meet" version="1.0"><defs><filter x="0%" y="0%" width="100%" height="100%" id="89194bcbd3"><feColorMatrix values="0 0 0 0 1 0 0 0 0 1 0 0 0 0 1 0 0 0 1 0" color-interpolation-filters="sRGB"/></filter><clipPath id="29a0d3504c"><path d="M 0 0.335938 L 256.503906 0.335938 L 256.503906 230.664062 L 0 230.664062 Z M 0 0.335938 " clip-rule="nonzero"/></clipPath><clipPath id="5e357c5a0e"><path d="M 2 4 L 256.503906 4 L 256.503906 229 L 2 229 Z M 2 4 " clip-rule="nonzero"/></clipPath><mask id="9cc4dddb05"><g filter="url(#89194bcbd3)"><rect x="-25.725" width="308.7" fill="#000000" y="-23.1" height="277.2" fill-opacity="0.8"/></g></mask><clipPath id="c0c942a91e"><path d="M 0.152344 0.164062 L 221 0.164062 L 221 224.871094 L 0.152344 224.871094 Z M 0.152344 0.164062 " clip-rule="nonzero"/></clipPath><clipPath id="df00729f46"><path d="M 14 186 L 203 186 L 203 224.871094 L 14 224.871094 Z M 14 186 " clip-rule="nonzero"/></clipPath><mask id="8953c8d6dc"><g filter="url(#89194bcbd3)"><rect x="-58.595" width="370.44" fill="#000000" y="-54.82" height="332.64" fill-opacity="0.2"/></g></mask><clipPath id="10827fb156"><path d="M 0.511719 1 L 188 1 L 188 38.871094 L 0.511719 38.871094 Z M 0.511719 1 " clip-rule="nonzero"/></clipPath><clipPath id="18ee257738"><rect x="0" width="189" y="0" height="39"/></clipPath><mask id="30146794fd"><g filter="url(#89194bcbd3)"><rect x="-58.595" width="370.44" fill="#000000" y="-54.82" height="332.64" fill-opacity="0.2"/></g></mask><clipPath id="e2fd0334cc"><path d="M 0.21875 2 L 141 2 L 141 61 L 0.21875 61 Z M 0.21875 2 " clip-rule="nonzero"/></clipPath><clipPath id="459e434230"><rect x="0" width="142" y="0" height="63"/></clipPath><mask id="183b84dbc0"><g filter="url(#89194bcbd3)"><rect x="-58.595" width="370.44" fill="#000000" y="-54.82" height="332.64" fill-opacity="0.85"/></g></mask><clipPath id="3e3cbcd9b9"><path d="M 0.570312 0.0351562 L 211 0.0351562 L 211 214.210938 L 0.570312 214.210938 Z M 0.570312 0.0351562 " clip-rule="nonzero"/></clipPath><clipPath id="21636ca3c6"><path d="M 14 177 L 194 177 L 194 214.210938 L 14 214.210938 Z M 14 177 " clip-rule="nonzero"/></clipPath><mask id="eb324ee781"><g filter="url(#89194bcbd3)"><rect x="-102.639" width="444.528" fill="#000000" y="-91.084" height="399.168" fill-opacity="0.2"/></g></mask><clipPath id="361b65dbd4"><path d="M 0.453125 1 L 179 1 L 179 37.210938 L 0.453125 37.210938 Z M 0.453125 1 " clip-rule="nonzero"/></clipPath><clipPath id="61f85bac71"><rect x="0" width="180" y="0" height="38"/></clipPath><mask id="9a82af754b"><g filter="url(#89194bcbd3)"><rect x="-102.639" width="444.528" fill="#000000" y="-91.084" height="399.168" fill-opacity="0.2"/></g></mask><clipPath id="da8d0b208e"><path d="M 0.203125 1 L 134 1 L 134 58 L 0.203125 58 Z M 0.203125 1 " clip-rule="nonzero"/></clipPath><clipPath id="eb1cc1dd40"><rect x="0" width="135" y="0" height="59"/></clipPath><clipPath id="31dfa3a63d"><path d="M 195 44 L 242.625 44 L 242.625 88 L 195 88 Z M 195 44 " clip-rule="nonzero"/></clipPath><clipPath id="b04bee1040"><rect x="0" width="244" y="0" height="215"/></clipPath><clipPath id="988c115b9a"><rect x="0" width="255" y="0" height="225"/></clipPath></defs><g clip-path="url(#29a0d3504c)"><path fill="#ffffff" d="M 0 0.335938 L 256.503906 0.335938 L 256.503906 230.664062 L 0 230.664062 Z M 0 0.335938 " fill-opacity="1" fill-rule="nonzero"/></g><g clip-path="url(#5e357c5a0e)"><g mask="url(#9cc4dddb05)"><g transform="matrix(1, 0, 0, 1, 2, 4)"><g clip-path="url(#988c115b9a)"><g clip-path="url(#c0c942a91e)"><path fill="#545454" d="M 1.039062 131.886719 C 1.417969 129.246094 1.925781 126.632812 2.566406 124.046875 C 3.210938 121.457031 3.976562 118.90625 4.871094 116.394531 C 5.765625 113.886719 6.785156 111.425781 7.925781 109.015625 C 9.066406 106.605469 10.320312 104.257812 11.695312 101.972656 C 13.070312 99.6875 14.554688 97.476562 16.148438 95.339844 C 17.746094 93.203125 19.441406 91.148438 21.242188 89.183594 C 23.039062 87.214844 24.933594 85.34375 26.917969 83.5625 C 28.90625 81.785156 30.976562 80.109375 33.128906 78.535156 C 35.742188 88.53125 35.757812 96.1875 45.515625 100.308594 C 60.566406 106.726562 77.863281 102.859375 93.828125 99.105469 C 102.25 97.421875 110.753906 96.609375 119.339844 96.667969 C 118.613281 95.832031 117.910156 94.980469 117.234375 94.105469 C 116.554688 93.234375 115.902344 92.339844 115.277344 91.429688 C 114.648438 90.519531 114.050781 89.59375 113.476562 88.648438 C 112.902344 87.703125 112.355469 86.742188 111.835938 85.765625 C 111.316406 84.789062 110.824219 83.800781 110.363281 82.796875 C 109.898438 81.792969 109.464844 80.777344 109.058594 79.746094 C 108.65625 78.71875 108.28125 77.679688 107.933594 76.628906 C 107.585938 75.578125 107.273438 74.519531 106.988281 73.453125 C 106.699219 72.382812 106.445312 71.308594 106.222656 70.226562 C 105.996094 69.144531 105.804688 68.054688 105.640625 66.960938 C 105.480469 65.867188 105.347656 64.773438 105.25 63.671875 C 105.148438 62.570312 105.082031 61.464844 105.042969 60.363281 C 105.007812 59.257812 105.003906 58.152344 105.027344 57.046875 C 105.054688 55.941406 105.113281 54.839844 105.203125 53.734375 C 105.289062 52.632812 105.410156 51.535156 105.5625 50.441406 C 105.714844 49.34375 105.894531 48.253906 106.109375 47.171875 C 106.324219 46.085938 106.566406 45.007812 106.84375 43.9375 C 107.117188 42.867188 107.421875 41.804688 107.757812 40.75 C 108.09375 39.699219 108.460938 38.65625 108.855469 37.621094 C 109.25 36.589844 109.671875 35.570312 110.125 34.5625 C 110.578125 33.550781 111.0625 32.558594 111.570312 31.578125 C 112.082031 30.597656 112.617188 29.628906 113.183594 28.679688 C 113.746094 27.730469 114.339844 26.796875 114.957031 25.878906 C 115.574219 24.964844 116.21875 24.066406 116.886719 23.183594 C 117.558594 22.304688 118.25 21.445312 118.96875 20.605469 C 119.6875 19.761719 120.429688 18.945312 121.195312 18.144531 C 121.957031 17.347656 122.746094 16.570312 123.554688 15.820312 C 124.363281 15.066406 125.195312 14.335938 126.042969 13.628906 C 126.894531 12.921875 127.765625 12.242188 128.652344 11.585938 C 129.542969 10.929688 130.453125 10.296875 131.375 9.691406 C 132.300781 9.089844 133.242188 8.511719 134.203125 7.960938 C 135.160156 7.40625 136.132812 6.882812 137.121094 6.390625 C 138.109375 5.894531 139.113281 5.425781 140.125 4.988281 C 141.140625 4.546875 142.167969 4.140625 143.207031 3.757812 C 144.242188 3.378906 145.292969 3.027344 146.351562 2.707031 C 147.40625 2.386719 148.472656 2.097656 149.546875 1.835938 C 150.625 1.578125 151.703125 1.347656 152.792969 1.152344 C 153.878906 0.953125 154.972656 0.785156 156.070312 0.648438 C 157.167969 0.515625 158.265625 0.410156 159.371094 0.335938 C 160.472656 0.261719 161.578125 0.222656 162.683594 0.210938 C 163.789062 0.199219 164.894531 0.222656 165.996094 0.273438 C 167.101562 0.328125 168.203125 0.410156 169.300781 0.527344 C 170.402344 0.640625 171.496094 0.789062 172.589844 0.964844 C 173.679688 1.144531 174.765625 1.351562 175.84375 1.59375 C 176.921875 1.832031 177.996094 2.101562 179.058594 2.402344 C 180.121094 2.703125 181.175781 3.035156 182.222656 3.394531 C 183.265625 3.757812 184.300781 4.144531 185.324219 4.566406 C 186.347656 4.984375 187.355469 5.433594 188.355469 5.910156 C 189.351562 6.386719 190.332031 6.894531 191.300781 7.425781 C 192.269531 7.960938 193.222656 8.519531 194.160156 9.109375 C 195.097656 9.695312 196.015625 10.308594 196.917969 10.949219 C 197.816406 11.589844 198.699219 12.253906 199.5625 12.945312 C 200.429688 13.632812 201.269531 14.347656 202.09375 15.085938 C 202.917969 15.824219 203.71875 16.585938 204.5 17.371094 C 205.277344 18.152344 206.035156 18.957031 206.769531 19.785156 C 207.5 20.613281 208.210938 21.460938 208.898438 22.328125 C 209.582031 23.195312 210.242188 24.082031 210.878906 24.984375 C 211.511719 25.890625 212.121094 26.8125 212.703125 27.753906 C 213.285156 28.691406 213.839844 29.648438 214.371094 30.617188 C 214.898438 31.589844 215.398438 32.574219 215.867188 33.574219 C 216.339844 34.574219 216.785156 35.585938 217.199219 36.613281 C 217.613281 37.636719 217.996094 38.671875 218.351562 39.722656 C 218.707031 40.769531 219.03125 41.824219 219.328125 42.890625 C 219.621094 43.953125 219.886719 45.027344 220.121094 46.109375 C 220.296875 46.863281 220.441406 47.632812 220.570312 48.417969 C 220.492188 51.125 219.945312 53.730469 218.925781 56.238281 C 217.90625 58.746094 216.480469 60.996094 214.648438 62.988281 C 211.746094 66.050781 207.828125 68.492188 206.113281 72.277344 C 205.964844 72.589844 205.835938 72.914062 205.726562 73.242188 C 205.179688 74.949219 205.078125 76.679688 205.421875 78.441406 C 206.164062 81.761719 207.480469 84.835938 209.371094 87.664062 C 210.042969 88.773438 210.734375 89.929688 211.375 91.097656 C 211.3125 91.214844 211.238281 91.320312 211.152344 91.421875 C 208.070312 95.890625 204.441406 99.851562 200.253906 103.308594 C 196.070312 106.765625 191.492188 109.585938 186.519531 111.765625 C 189.324219 114.015625 191.929688 116.472656 194.335938 119.140625 C 196.746094 121.808594 198.921875 124.652344 200.875 127.671875 C 202.824219 130.691406 204.523438 133.84375 205.964844 137.136719 C 207.410156 140.425781 208.582031 143.8125 209.480469 147.289062 C 213.027344 161.859375 209.625 175.964844 201.859375 187.949219 C 198.820312 192.550781 195.316406 196.765625 191.339844 200.589844 C 187.367188 204.417969 183.023438 207.761719 178.304688 210.621094 C 163.09375 220.039062 144.609375 222.511719 126.800781 223.84375 C 93.265625 226.328125 56.777344 224.644531 30.335938 203.867188 C 24.339844 199.128906 19.175781 193.613281 14.835938 187.324219 C 12.042969 183.320312 9.636719 179.097656 7.617188 174.652344 C 5.59375 170.207031 3.996094 165.617188 2.816406 160.878906 C 1.636719 156.140625 0.898438 151.335938 0.597656 146.464844 C 0.300781 141.59375 0.445312 136.734375 1.039062 131.886719 Z M 1.039062 131.886719 " fill-opacity="1" fill-rule="nonzero"/></g><g clip-path="url(#df00729f46)"><g mask="url(#8953c8d6dc)"><g transform="matrix(1, 0, 0, 1, 14, 186)"><g clip-path="url(#18ee257738)"><g clip-path="url(#10827fb156)"><path fill="#545454" d="M 0.835938 1.324219 C 5.175781 7.613281 10.339844 13.128906 16.335938 17.867188 C 42.777344 38.644531 79.265625 40.328125 112.800781 37.84375 C 130.609375 36.511719 149.09375 34.007812 164.304688 24.621094 C 169.023438 21.753906 173.371094 18.40625 177.34375 14.578125 C 181.316406 10.746094 184.824219 6.527344 187.859375 1.917969 C 182.335938 7.730469 176.085938 12.625 169.121094 16.597656 C 152.816406 26.015625 133.066406 28.488281 113.941406 29.820312 C 78 32.308594 38.910156 30.621094 10.589844 9.84375 C 7.105469 7.269531 3.855469 4.429688 0.835938 1.324219 Z M 0.835938 1.324219 " fill-opacity="1" fill-rule="nonzero"/></g></g></g></g></g><g mask="url(#30146794fd)"><g transform="matrix(1, 0, 0, 1, 32, 134)"><g clip-path="url(#459e434230)"><g clip-path="url(#e2fd0334cc)"><path fill="#545454" d="M 47.722656 13.5 C 45.796875 14.363281 43.8125 15.0625 41.765625 15.59375 C 39.722656 16.128906 37.648438 16.488281 35.546875 16.675781 C 33.441406 16.863281 31.335938 16.878906 29.230469 16.714844 C 27.125 16.554688 25.046875 16.21875 22.996094 15.714844 C 18.875 14.675781 15.050781 12.96875 11.523438 10.59375 C 8.066406 8.226562 4.941406 5.476562 2.15625 2.347656 C 2.019531 2.171875 1.839844 2.066406 1.621094 2.035156 C 1.398438 2.007812 1.199219 2.058594 1.023438 2.195312 C 0.847656 2.328125 0.742188 2.507812 0.714844 2.730469 C 0.683594 2.949219 0.734375 3.148438 0.871094 3.324219 C 3.359375 7.054688 6.511719 10.085938 10.335938 12.421875 C 14.101562 14.789062 18.148438 16.460938 22.484375 17.445312 C 24.621094 17.910156 26.785156 18.183594 28.972656 18.265625 C 31.15625 18.351562 33.335938 18.25 35.503906 17.953125 C 37.671875 17.660156 39.796875 17.179688 41.882812 16.515625 C 43.964844 15.851562 45.976562 15.011719 47.917969 13.996094 C 47.992188 13.957031 48.042969 13.898438 48.066406 13.816406 C 48.09375 13.734375 48.085938 13.652344 48.042969 13.578125 C 47.953125 13.488281 47.847656 13.460938 47.722656 13.5 Z M 64.78125 29.703125 C 64.839844 29.765625 64.871094 29.84375 64.871094 29.929688 C 64.871094 30.015625 64.839844 30.089844 64.78125 30.152344 C 63.085938 31.539062 61.285156 32.769531 59.378906 33.839844 C 57.472656 34.914062 55.484375 35.8125 53.421875 36.539062 C 51.355469 37.265625 49.246094 37.808594 47.085938 38.164062 C 44.929688 38.523438 42.753906 38.695312 40.566406 38.675781 C 36.148438 38.585938 31.871094 37.769531 27.730469 36.21875 C 23.515625 34.707031 19.8125 32.375 16.628906 29.222656 C 16.503906 29.070312 16.441406 28.898438 16.441406 28.703125 C 16.441406 28.503906 16.503906 28.332031 16.628906 28.179688 C 16.757812 28 16.933594 27.894531 17.152344 27.859375 C 17.371094 27.824219 17.570312 27.871094 17.75 28.003906 C 21.121094 30.507812 24.738281 32.566406 28.613281 34.179688 C 32.515625 35.761719 36.570312 36.644531 40.777344 36.828125 C 45.027344 36.992188 49.191406 36.460938 53.265625 35.230469 C 57.339844 34 61.101562 32.144531 64.554688 29.65625 C 64.636719 29.644531 64.710938 29.660156 64.78125 29.703125 Z M 87.886719 39.78125 C 87.945312 39.84375 87.976562 39.917969 87.976562 40.003906 C 87.976562 40.09375 87.945312 40.167969 87.886719 40.230469 C 86.441406 41.867188 84.867188 43.367188 83.164062 44.730469 C 81.457031 46.09375 79.648438 47.300781 77.734375 48.347656 C 75.816406 49.394531 73.828125 50.269531 71.757812 50.972656 C 69.691406 51.671875 67.578125 52.1875 65.421875 52.519531 C 61.023438 53.175781 56.640625 53.0625 52.28125 52.183594 C 47.867188 51.378906 43.832031 49.671875 40.183594 47.066406 C 40.027344 46.949219 39.925781 46.792969 39.882812 46.601562 C 39.835938 46.414062 39.855469 46.230469 39.941406 46.054688 C 40.042969 45.859375 40.195312 45.726562 40.40625 45.65625 C 40.617188 45.585938 40.820312 45.601562 41.015625 45.703125 C 44.742188 47.636719 48.644531 49.085938 52.730469 50.050781 C 56.835938 50.980469 60.980469 51.199219 65.164062 50.707031 C 69.390625 50.183594 73.414062 48.988281 77.238281 47.117188 C 81.0625 45.25 84.476562 42.808594 87.484375 39.796875 C 87.613281 39.675781 87.746094 39.667969 87.886719 39.78125 Z M 139.886719 34.003906 C 139.964844 34.046875 140.015625 34.109375 140.042969 34.195312 C 140.066406 34.28125 140.058594 34.359375 140.015625 34.4375 C 138.640625 36.988281 137.054688 39.40625 135.257812 41.683594 C 133.460938 43.957031 131.484375 46.0625 129.324219 47.996094 C 127.164062 49.933594 124.851562 51.664062 122.390625 53.199219 C 119.929688 54.730469 117.351562 56.039062 114.664062 57.125 C 109.191406 59.296875 103.511719 60.484375 97.625 60.6875 C 91.730469 60.941406 86.027344 60.011719 80.519531 57.894531 C 80.332031 57.816406 80.195312 57.683594 80.105469 57.503906 C 80.011719 57.320312 79.992188 57.132812 80.039062 56.933594 C 80.097656 56.722656 80.222656 56.5625 80.414062 56.453125 C 80.605469 56.34375 80.804688 56.316406 81.019531 56.371094 C 86.460938 57.816406 91.996094 58.523438 97.625 58.488281 C 103.28125 58.402344 108.757812 57.371094 114.054688 55.394531 C 116.699219 54.394531 119.242188 53.183594 121.683594 51.761719 C 124.125 50.339844 126.433594 48.722656 128.601562 46.914062 C 130.773438 45.105469 132.78125 43.125 134.621094 40.980469 C 136.460938 38.835938 138.109375 36.554688 139.566406 34.132812 C 139.648438 34.027344 139.753906 33.984375 139.886719 34.003906 Z M 139.886719 34.003906 " fill-opacity="1" fill-rule="nonzero"/></g></g></g></g><path fill="#000000" d="M 193.550781 53.570312 C 194.082031 53.566406 194.5625 53.40625 194.992188 53.085938 C 195.417969 52.765625 195.707031 52.347656 195.859375 51.835938 C 195.984375 51.414062 196.082031 50.988281 196.15625 50.558594 C 196.230469 50.125 196.28125 49.691406 196.308594 49.253906 C 196.335938 48.816406 196.339844 48.378906 196.316406 47.941406 C 196.292969 47.503906 196.246094 47.066406 196.175781 46.632812 C 196.105469 46.203125 196.011719 45.773438 195.890625 45.351562 C 195.773438 44.929688 195.632812 44.515625 195.46875 44.109375 C 195.300781 43.703125 195.113281 43.308594 194.90625 42.921875 C 194.695312 42.539062 194.46875 42.164062 194.214844 41.804688 C 193.964844 41.445312 193.695312 41.101562 193.40625 40.769531 C 193.117188 40.441406 192.8125 40.128906 192.488281 39.832031 C 192.164062 39.539062 191.824219 39.261719 191.46875 39.003906 C 191.113281 38.746094 190.746094 38.511719 190.363281 38.292969 C 189.984375 38.078125 189.589844 37.882812 189.1875 37.710938 C 188.785156 37.539062 188.375 37.390625 187.953125 37.261719 C 187.535156 37.136719 187.109375 37.03125 186.675781 36.953125 C 186.246094 36.875 185.8125 36.820312 185.375 36.789062 C 184.9375 36.757812 184.5 36.753906 184.0625 36.769531 C 183.625 36.789062 183.1875 36.832031 182.753906 36.898438 C 182.320312 36.964844 181.894531 37.058594 181.46875 37.171875 C 181.046875 37.285156 180.632812 37.425781 180.222656 37.585938 C 179.816406 37.746094 179.417969 37.929688 179.03125 38.136719 C 178.644531 38.339844 178.269531 38.566406 177.90625 38.816406 C 177.546875 39.0625 177.199219 39.328125 176.867188 39.617188 C 176.535156 39.902344 176.21875 40.207031 175.921875 40.527344 C 175.625 40.847656 175.34375 41.183594 175.082031 41.539062 C 174.824219 41.890625 174.582031 42.253906 174.363281 42.636719 C 174.144531 43.015625 173.945312 43.40625 173.769531 43.804688 C 173.59375 44.207031 173.441406 44.617188 173.308594 45.035156 C 173.179688 45.453125 173.070312 45.878906 172.988281 46.308594 C 172.90625 46.742188 172.847656 47.175781 172.8125 47.609375 C 172.777344 48.046875 172.769531 48.484375 172.78125 48.925781 C 172.796875 49.363281 172.835938 49.796875 172.898438 50.230469 C 172.945312 50.550781 173.050781 50.847656 173.214844 51.125 C 173.378906 51.402344 173.589844 51.636719 173.847656 51.832031 C 174.105469 52.023438 174.390625 52.160156 174.703125 52.238281 C 175.015625 52.320312 175.332031 52.335938 175.648438 52.289062 C 175.96875 52.246094 176.265625 52.140625 176.542969 51.976562 C 176.820312 51.8125 177.058594 51.601562 177.25 51.34375 C 177.441406 51.085938 177.578125 50.800781 177.660156 50.488281 C 177.742188 50.175781 177.757812 49.859375 177.710938 49.542969 C 177.636719 49.027344 177.621094 48.511719 177.660156 47.992188 C 177.699219 47.472656 177.796875 46.964844 177.953125 46.46875 C 178.105469 45.972656 178.316406 45.5 178.574219 45.046875 C 178.835938 44.597656 179.144531 44.179688 179.496094 43.800781 C 179.851562 43.417969 180.242188 43.082031 180.671875 42.785156 C 181.101562 42.492188 181.558594 42.25 182.039062 42.058594 C 182.523438 41.867188 183.023438 41.734375 183.539062 41.652344 C 184.050781 41.574219 184.570312 41.550781 185.085938 41.585938 C 185.605469 41.625 186.113281 41.71875 186.613281 41.867188 C 187.109375 42.015625 187.585938 42.222656 188.039062 42.476562 C 188.492188 42.734375 188.910156 43.039062 189.292969 43.386719 C 189.679688 43.738281 190.019531 44.128906 190.316406 44.554688 C 190.613281 44.980469 190.859375 45.4375 191.054688 45.917969 C 191.25 46.398438 191.390625 46.898438 191.476562 47.410156 C 191.558594 47.925781 191.585938 48.441406 191.554688 48.960938 C 191.523438 49.480469 191.433594 49.988281 191.285156 50.488281 C 191.195312 50.792969 191.167969 51.101562 191.199219 51.417969 C 191.234375 51.734375 191.324219 52.03125 191.476562 52.3125 C 191.625 52.589844 191.824219 52.832031 192.066406 53.03125 C 192.3125 53.234375 192.589844 53.378906 192.890625 53.472656 C 193.105469 53.535156 193.324219 53.566406 193.550781 53.570312 Z M 193.550781 53.570312 " fill-opacity="1" fill-rule="nonzero"/><path fill="#545454" d="M 205.726562 73.242188 C 205.835938 72.914062 205.964844 72.589844 206.113281 72.277344 C 207.828125 68.492188 211.746094 66.050781 214.648438 62.988281 C 216.480469 60.996094 217.90625 58.746094 218.925781 56.238281 C 219.945312 53.730469 220.492188 51.125 220.570312 48.417969 C 220.609375 47.777344 220.609375 47.136719 220.570312 46.492188 C 221.851562 47.546875 223.253906 48.398438 224.777344 49.042969 C 226.304688 49.691406 227.890625 50.109375 229.539062 50.296875 C 235.105469 50.984375 240.769531 49.75 246.324219 49.734375 C 247.4375 49.617188 248.53125 49.726562 249.601562 50.0625 C 250.671875 50.394531 251.632812 50.929688 252.484375 51.660156 C 252.828125 52.101562 253.105469 52.578125 253.320312 53.09375 C 253.535156 53.609375 253.675781 54.140625 253.746094 54.695312 C 253.8125 55.25 253.808594 55.804688 253.726562 56.355469 C 253.648438 56.90625 253.496094 57.4375 253.269531 57.949219 C 252.875 59.148438 252.339844 60.28125 251.664062 61.351562 C 248.339844 66.945312 243.988281 71.574219 238.605469 75.230469 L 238.332031 75.421875 C 238.863281 75.679688 239.375 75.953125 239.9375 76.242188 C 241.765625 77.253906 243.789062 78.746094 243.722656 80.832031 C 243.691406 81.316406 243.574219 81.78125 243.371094 82.226562 C 243.25 82.464844 243.113281 82.691406 242.96875 82.917969 C 241.855469 83.421875 240.695312 83.757812 239.488281 83.925781 C 237.621094 84.128906 235.75 84.222656 233.871094 84.214844 C 232.625 84.21875 231.382812 84.308594 230.148438 84.488281 C 225.976562 85.164062 222.253906 87.328125 218.4375 89.109375 C 216.226562 90.191406 213.917969 90.972656 211.503906 91.453125 C 211.441406 91.367188 211.394531 91.277344 211.359375 91.179688 C 210.71875 90.007812 210.027344 88.851562 209.355469 87.746094 C 207.464844 84.914062 206.148438 81.839844 205.40625 78.519531 C 205.050781 76.730469 205.160156 74.972656 205.726562 73.242188 Z M 205.726562 73.242188 " fill-opacity="1" fill-rule="nonzero"/><path fill="#545454" d="M 220.808594 74.941406 C 225.71875 75.128906 230.535156 75.910156 235.25 77.285156 L 235.570312 77.414062 C 238.519531 78.417969 241.117188 79.996094 243.371094 82.144531 C 243.574219 81.703125 243.691406 81.238281 243.722656 80.75 C 243.722656 78.664062 241.765625 77.171875 239.9375 76.160156 C 239.421875 75.871094 238.910156 75.597656 238.332031 75.34375 L 238.605469 75.148438 C 243.988281 71.492188 248.339844 66.867188 251.664062 61.269531 C 252.332031 60.226562 252.867188 59.121094 253.269531 57.949219 C 252.613281 58.542969 251.921875 59.089844 251.25 59.554688 C 244.664062 64.449219 237.585938 68.480469 230.019531 71.652344 C 227.003906 72.855469 223.9375 73.996094 220.808594 74.941406 Z M 220.808594 74.941406 " fill-opacity="1" fill-rule="nonzero"/><g mask="url(#183b84dbc0)"><g transform="matrix(1, 0, 0, 1, 7, 3)"><g clip-path="url(#b04bee1040)"><g clip-path="url(#3e3cbcd9b9)"><path fill="#f3ae06" d="M 1.496094 125.6875 C 1.859375 123.175781 2.34375 120.683594 2.953125 118.21875 C 3.5625 115.753906 4.296875 113.328125 5.148438 110.933594 C 6 108.542969 6.96875 106.199219 8.054688 103.902344 C 9.140625 101.605469 10.339844 99.371094 11.648438 97.195312 C 12.957031 95.019531 14.371094 92.914062 15.890625 90.878906 C 17.410156 88.84375 19.023438 86.886719 20.738281 85.015625 C 22.453125 83.140625 24.253906 81.355469 26.148438 79.660156 C 28.039062 77.96875 30.011719 76.371094 32.0625 74.875 C 34.550781 84.394531 34.566406 91.683594 43.859375 95.613281 C 58.195312 101.726562 74.667969 98.042969 89.875 94.464844 C 97.894531 92.863281 105.996094 92.085938 114.171875 92.144531 C 113.480469 91.347656 112.8125 90.535156 112.167969 89.703125 C 111.523438 88.871094 110.902344 88.023438 110.304688 87.15625 C 109.707031 86.289062 109.136719 85.40625 108.589844 84.503906 C 108.042969 83.605469 107.519531 82.691406 107.027344 81.761719 C 106.53125 80.832031 106.0625 79.886719 105.621094 78.933594 C 105.183594 77.976562 104.769531 77.007812 104.382812 76.027344 C 103.996094 75.046875 103.640625 74.058594 103.308594 73.058594 C 102.980469 72.058594 102.679688 71.050781 102.40625 70.03125 C 102.136719 69.015625 101.894531 67.992188 101.679688 66.960938 C 101.464844 65.929688 101.28125 64.890625 101.128906 63.851562 C 100.972656 62.808594 100.847656 61.765625 100.753906 60.714844 C 100.660156 59.667969 100.59375 58.617188 100.558594 57.5625 C 100.523438 56.511719 100.519531 55.460938 100.542969 54.40625 C 100.566406 53.355469 100.621094 52.300781 100.707031 51.253906 C 100.792969 50.203125 100.90625 49.15625 101.050781 48.113281 C 101.195312 47.070312 101.371094 46.03125 101.574219 45 C 101.777344 43.96875 102.007812 42.941406 102.269531 41.921875 C 102.535156 40.902344 102.824219 39.890625 103.144531 38.886719 C 103.464844 37.882812 103.8125 36.890625 104.1875 35.90625 C 104.5625 34.921875 104.96875 33.949219 105.398438 32.988281 C 105.832031 32.03125 106.289062 31.082031 106.773438 30.148438 C 107.261719 29.214844 107.773438 28.292969 108.308594 27.386719 C 108.847656 26.484375 109.410156 25.59375 110 24.722656 C 110.589844 23.847656 111.203125 22.992188 111.839844 22.152344 C 112.476562 21.316406 113.136719 20.496094 113.820312 19.695312 C 114.503906 18.894531 115.210938 18.117188 115.941406 17.355469 C 116.667969 16.59375 117.417969 15.855469 118.1875 15.136719 C 118.960938 14.421875 119.75 13.726562 120.558594 13.054688 C 121.371094 12.378906 122.199219 11.730469 123.046875 11.105469 C 123.894531 10.480469 124.757812 9.878906 125.636719 9.304688 C 126.519531 8.726562 127.417969 8.175781 128.328125 7.652344 C 129.242188 7.128906 130.167969 6.628906 131.109375 6.15625 C 132.050781 5.683594 133.003906 5.238281 133.972656 4.820312 C 134.9375 4.402344 135.917969 4.015625 136.90625 3.652344 C 137.894531 3.289062 138.890625 2.957031 139.898438 2.652344 C 140.90625 2.347656 141.921875 2.070312 142.945312 1.820312 C 143.96875 1.574219 145 1.355469 146.035156 1.167969 C 147.070312 0.980469 148.113281 0.820312 149.15625 0.691406 C 150.203125 0.5625 151.25 0.460938 152.300781 0.390625 C 153.351562 0.324219 154.402344 0.28125 155.457031 0.273438 C 156.507812 0.261719 157.5625 0.28125 158.613281 0.332031 C 159.664062 0.382812 160.714844 0.464844 161.761719 0.574219 C 162.808594 0.683594 163.851562 0.824219 164.890625 0.992188 C 165.929688 1.160156 166.964844 1.359375 167.992188 1.589844 C 169.019531 1.816406 170.039062 2.074219 171.054688 2.359375 C 172.066406 2.648438 173.070312 2.960938 174.066406 3.304688 C 175.0625 3.648438 176.046875 4.019531 177.019531 4.421875 C 177.996094 4.820312 178.957031 5.246094 179.90625 5.703125 C 180.855469 6.15625 181.792969 6.636719 182.714844 7.144531 C 183.636719 7.652344 184.542969 8.1875 185.4375 8.746094 C 186.328125 9.304688 187.203125 9.890625 188.0625 10.5 C 188.921875 11.109375 189.761719 11.742188 190.585938 12.402344 C 191.40625 13.058594 192.210938 13.738281 192.996094 14.441406 C 193.777344 15.144531 194.542969 15.867188 195.285156 16.617188 C 196.027344 17.363281 196.746094 18.128906 197.445312 18.917969 C 198.144531 19.703125 198.820312 20.511719 199.472656 21.335938 C 200.125 22.164062 200.753906 23.007812 201.359375 23.871094 C 201.964844 24.730469 202.542969 25.609375 203.097656 26.503906 C 203.652344 27.398438 204.183594 28.308594 204.6875 29.234375 C 205.1875 30.160156 205.664062 31.097656 206.113281 32.050781 C 206.5625 33.003906 206.984375 33.96875 207.378906 34.945312 C 207.773438 35.921875 208.140625 36.90625 208.480469 37.902344 C 208.816406 38.902344 209.125 39.90625 209.40625 40.921875 C 209.6875 41.9375 209.941406 42.957031 210.164062 43.988281 C 210.332031 44.707031 210.46875 45.441406 210.589844 46.1875 C 210.519531 48.765625 209.996094 51.25 209.027344 53.636719 C 208.054688 56.023438 206.695312 58.167969 204.953125 60.066406 C 202.1875 62.984375 198.457031 65.308594 196.820312 68.914062 C 196.679688 69.210938 196.558594 69.519531 196.453125 69.832031 C 195.933594 71.457031 195.835938 73.105469 196.164062 74.78125 C 196.871094 77.945312 198.125 80.875 199.925781 83.570312 C 200.566406 84.625 201.222656 85.722656 201.835938 86.839844 C 201.773438 86.949219 201.703125 87.050781 201.621094 87.144531 C 198.6875 91.402344 195.226562 95.179688 191.242188 98.46875 C 187.257812 101.761719 182.894531 104.449219 178.160156 106.523438 C 180.832031 108.667969 183.3125 111.007812 185.605469 113.550781 C 187.898438 116.089844 189.972656 118.796875 191.832031 121.671875 C 193.691406 124.546875 195.308594 127.550781 196.683594 130.6875 C 198.058594 133.820312 199.171875 137.046875 200.03125 140.359375 C 203.410156 154.234375 200.167969 167.667969 192.773438 179.085938 C 189.878906 183.46875 186.535156 187.484375 182.75 191.125 C 178.96875 194.769531 174.828125 197.953125 170.335938 200.679688 C 155.847656 209.648438 138.242188 212.003906 121.28125 213.273438 C 89.339844 215.640625 54.585938 214.035156 29.402344 194.246094 C 23.691406 189.734375 18.769531 184.480469 14.640625 178.488281 C 11.976562 174.675781 9.683594 170.652344 7.761719 166.421875 C 5.835938 162.1875 4.3125 157.816406 3.191406 153.304688 C 2.066406 148.789062 1.363281 144.214844 1.078125 139.574219 C 0.792969 134.933594 0.933594 130.304688 1.496094 125.6875 Z M 1.496094 125.6875 " fill-opacity="1" fill-rule="nonzero"/></g><g clip-path="url(#21636ca3c6)"><g mask="url(#eb324ee781)"><g transform="matrix(1, 0, 0, 1, 14, 177)"><g clip-path="url(#61f85bac71)"><g clip-path="url(#361b65dbd4)"><path fill="#e32526" d="M 0.640625 1.488281 C 4.769531 7.480469 9.691406 12.734375 15.402344 17.246094 C 40.585938 37.035156 75.339844 38.640625 107.28125 36.273438 C 124.242188 35.003906 141.847656 32.621094 156.335938 23.679688 C 160.832031 20.949219 164.96875 17.761719 168.753906 14.113281 C 172.539062 10.464844 175.878906 6.445312 178.773438 2.054688 C 173.507812 7.59375 167.558594 12.253906 160.921875 16.039062 C 145.394531 25.007812 126.582031 27.363281 108.363281 28.632812 C 74.132812 31 36.902344 29.394531 9.929688 9.605469 C 6.609375 7.15625 3.511719 4.449219 0.640625 1.488281 Z M 0.640625 1.488281 " fill-opacity="1" fill-rule="nonzero"/></g></g></g></g></g><g mask="url(#9a82af754b)"><g transform="matrix(1, 0, 0, 1, 31, 128)"><g clip-path="url(#eb1cc1dd40)"><g clip-path="url(#da8d0b208e)"><path fill="#e32526" d="M 45.441406 12.558594 C 41.742188 14.214844 37.878906 15.222656 33.84375 15.585938 C 29.808594 15.945312 25.824219 15.640625 21.890625 14.667969 C 17.964844 13.679688 14.324219 12.054688 10.964844 9.792969 C 7.667969 7.535156 4.695312 4.917969 2.039062 1.9375 C 1.910156 1.769531 1.742188 1.667969 1.53125 1.640625 C 1.320312 1.613281 1.128906 1.664062 0.960938 1.792969 C 0.792969 1.921875 0.695312 2.089844 0.664062 2.300781 C 0.636719 2.511719 0.6875 2.699219 0.816406 2.867188 C 3.183594 6.421875 6.191406 9.308594 9.832031 11.535156 C 13.417969 13.785156 17.273438 15.382812 21.402344 16.316406 C 23.4375 16.757812 25.5 17.019531 27.582031 17.101562 C 29.664062 17.179688 31.738281 17.082031 33.800781 16.800781 C 35.867188 16.523438 37.890625 16.066406 39.878906 15.433594 C 41.863281 14.800781 43.777344 14 45.625 13.03125 C 45.695312 12.996094 45.746094 12.9375 45.769531 12.859375 C 45.792969 12.78125 45.785156 12.707031 45.746094 12.632812 C 45.660156 12.546875 45.558594 12.523438 45.441406 12.558594 Z M 61.6875 27.992188 C 61.746094 28.054688 61.773438 28.125 61.773438 28.207031 C 61.773438 28.289062 61.746094 28.363281 61.6875 28.421875 C 60.074219 29.742188 58.359375 30.910156 56.542969 31.933594 C 54.726562 32.953125 52.832031 33.8125 50.867188 34.503906 C 48.902344 35.195312 46.890625 35.710938 44.835938 36.050781 C 42.777344 36.394531 40.710938 36.554688 38.625 36.535156 C 34.417969 36.453125 30.339844 35.675781 26.398438 34.199219 C 22.382812 32.757812 18.855469 30.535156 15.824219 27.535156 C 15.703125 27.390625 15.644531 27.226562 15.644531 27.039062 C 15.644531 26.851562 15.703125 26.6875 15.824219 26.542969 C 15.949219 26.371094 16.113281 26.269531 16.324219 26.234375 C 16.53125 26.203125 16.722656 26.25 16.894531 26.375 C 20.101562 28.757812 23.550781 30.71875 27.238281 32.257812 C 30.957031 33.761719 34.816406 34.601562 38.824219 34.777344 C 42.875 34.933594 46.839844 34.425781 50.71875 33.257812 C 54.601562 32.085938 58.183594 30.316406 61.472656 27.949219 C 61.550781 27.9375 61.621094 27.949219 61.6875 27.992188 Z M 83.695312 37.589844 C 83.75 37.648438 83.78125 37.722656 83.78125 37.804688 C 83.78125 37.886719 83.75 37.960938 83.695312 38.019531 C 82.320312 39.578125 80.820312 41.007812 79.195312 42.304688 C 77.570312 43.605469 75.847656 44.753906 74.023438 45.75 C 72.199219 46.75 70.304688 47.582031 68.332031 48.25 C 66.363281 48.917969 64.351562 49.410156 62.296875 49.726562 C 58.105469 50.351562 53.933594 50.242188 49.78125 49.402344 C 45.578125 48.636719 41.738281 47.011719 38.257812 44.527344 C 38.109375 44.417969 38.015625 44.269531 37.972656 44.089844 C 37.929688 43.90625 37.949219 43.734375 38.027344 43.566406 C 38.125 43.378906 38.273438 43.253906 38.472656 43.1875 C 38.671875 43.121094 38.867188 43.136719 39.054688 43.230469 C 42.601562 45.070312 46.320312 46.453125 50.210938 47.371094 C 54.121094 48.257812 58.070312 48.46875 62.054688 48 C 66.078125 47.5 69.910156 46.359375 73.550781 44.578125 C 77.195312 42.800781 80.445312 40.476562 83.3125 37.605469 C 83.433594 37.488281 83.5625 37.484375 83.695312 37.589844 Z M 133.222656 32.089844 C 133.296875 32.128906 133.347656 32.191406 133.371094 32.269531 C 133.394531 32.351562 133.386719 32.429688 133.347656 32.5 C 132.035156 34.933594 130.523438 37.234375 128.8125 39.402344 C 127.105469 41.570312 125.21875 43.574219 123.160156 45.417969 C 121.105469 47.257812 118.902344 48.910156 116.558594 50.371094 C 114.214844 51.828125 111.761719 53.078125 109.199219 54.109375 C 103.984375 56.179688 98.574219 57.3125 92.96875 57.503906 C 87.355469 57.746094 81.925781 56.859375 76.679688 54.84375 C 76.5 54.769531 76.367188 54.644531 76.28125 54.46875 C 76.195312 54.296875 76.175781 54.117188 76.21875 53.929688 C 76.277344 53.726562 76.394531 53.574219 76.578125 53.46875 C 76.757812 53.363281 76.949219 53.339844 77.152344 53.394531 C 82.335938 54.769531 87.609375 55.441406 92.96875 55.410156 C 98.355469 55.328125 103.574219 54.34375 108.621094 52.460938 C 111.136719 51.511719 113.558594 50.359375 115.886719 49.003906 C 118.210938 47.648438 120.40625 46.105469 122.476562 44.382812 C 124.542969 42.660156 126.453125 40.777344 128.207031 38.734375 C 129.957031 36.691406 131.53125 34.515625 132.917969 32.210938 C 132.996094 32.109375 133.097656 32.070312 133.222656 32.089844 Z M 133.222656 32.089844 " fill-opacity="1" fill-rule="nonzero"/></g></g></g></g><path fill="#545454" d="M 184.855469 51.09375 C 185.363281 51.09375 185.820312 50.9375 186.230469 50.632812 C 186.636719 50.328125 186.910156 49.929688 187.054688 49.445312 C 187.171875 49.042969 187.265625 48.636719 187.339844 48.226562 C 187.410156 47.8125 187.457031 47.398438 187.484375 46.984375 C 187.507812 46.566406 187.511719 46.148438 187.492188 45.734375 C 187.46875 45.316406 187.425781 44.902344 187.355469 44.488281 C 187.289062 44.078125 187.199219 43.671875 187.085938 43.269531 C 186.972656 42.867188 186.839844 42.472656 186.683594 42.085938 C 186.523438 41.699219 186.347656 41.320312 186.148438 40.953125 C 185.949219 40.585938 185.730469 40.230469 185.492188 39.890625 C 185.253906 39.546875 184.996094 39.21875 184.71875 38.90625 C 184.445312 38.589844 184.152344 38.292969 183.84375 38.011719 C 183.535156 37.730469 183.210938 37.46875 182.875 37.222656 C 182.535156 36.976562 182.183594 36.75 181.820312 36.546875 C 181.457031 36.339844 181.085938 36.15625 180.703125 35.988281 C 180.316406 35.824219 179.925781 35.683594 179.527344 35.5625 C 179.125 35.441406 178.722656 35.34375 178.308594 35.269531 C 177.898438 35.195312 177.484375 35.140625 177.070312 35.113281 C 176.652344 35.082031 176.234375 35.078125 175.820312 35.09375 C 175.402344 35.113281 174.988281 35.152344 174.574219 35.214844 C 174.160156 35.28125 173.753906 35.367188 173.351562 35.476562 C 172.949219 35.585938 172.550781 35.71875 172.164062 35.871094 C 171.777344 36.023438 171.398438 36.199219 171.027344 36.394531 C 170.660156 36.589844 170.300781 36.804688 169.957031 37.042969 C 169.613281 37.277344 169.28125 37.53125 168.964844 37.804688 C 168.648438 38.078125 168.351562 38.367188 168.066406 38.671875 C 167.78125 38.976562 167.515625 39.296875 167.265625 39.632812 C 167.019531 39.96875 166.789062 40.320312 166.582031 40.679688 C 166.371094 41.042969 166.183594 41.414062 166.015625 41.796875 C 165.847656 42.179688 165.703125 42.570312 165.578125 42.96875 C 165.453125 43.367188 165.351562 43.769531 165.273438 44.179688 C 165.195312 44.589844 165.136719 45.003906 165.105469 45.417969 C 165.070312 45.835938 165.0625 46.253906 165.078125 46.667969 C 165.089844 47.085938 165.125 47.503906 165.1875 47.914062 C 165.230469 48.21875 165.332031 48.503906 165.488281 48.765625 C 165.644531 49.03125 165.847656 49.253906 166.089844 49.4375 C 166.335938 49.621094 166.609375 49.75 166.90625 49.828125 C 167.203125 49.902344 167.503906 49.917969 167.808594 49.875 C 168.109375 49.832031 168.394531 49.734375 168.660156 49.578125 C 168.921875 49.421875 169.148438 49.21875 169.332031 48.972656 C 169.515625 48.726562 169.644531 48.457031 169.722656 48.160156 C 169.796875 47.863281 169.816406 47.5625 169.773438 47.257812 C 169.699219 46.769531 169.683594 46.277344 169.722656 45.78125 C 169.761719 45.289062 169.851562 44.804688 170 44.332031 C 170.148438 43.859375 170.34375 43.40625 170.59375 42.976562 C 170.839844 42.550781 171.132812 42.152344 171.472656 41.789062 C 171.808594 41.425781 172.179688 41.105469 172.589844 40.824219 C 173 40.546875 173.433594 40.3125 173.894531 40.132812 C 174.355469 39.949219 174.832031 39.820312 175.320312 39.746094 C 175.808594 39.667969 176.300781 39.648438 176.796875 39.683594 C 177.289062 39.71875 177.773438 39.804688 178.25 39.949219 C 178.722656 40.09375 179.175781 40.285156 179.605469 40.53125 C 180.039062 40.773438 180.4375 41.0625 180.804688 41.398438 C 181.167969 41.730469 181.492188 42.101562 181.777344 42.507812 C 182.058594 42.914062 182.292969 43.347656 182.480469 43.808594 C 182.667969 44.265625 182.800781 44.742188 182.878906 45.230469 C 182.960938 45.71875 182.984375 46.210938 182.953125 46.703125 C 182.925781 47.199219 182.839844 47.683594 182.699219 48.160156 C 182.613281 48.449219 182.585938 48.746094 182.617188 49.046875 C 182.648438 49.347656 182.738281 49.628906 182.878906 49.894531 C 183.023438 50.160156 183.210938 50.390625 183.445312 50.582031 C 183.679688 50.773438 183.941406 50.914062 184.230469 51.003906 C 184.433594 51.0625 184.640625 51.09375 184.855469 51.09375 Z M 184.855469 51.09375 " fill-opacity="1" fill-rule="nonzero"/><g clip-path="url(#31dfa3a63d)"><path fill="#e32526" d="M 196.453125 69.832031 C 196.558594 69.519531 196.679688 69.210938 196.820312 68.914062 C 198.457031 65.308594 202.1875 62.984375 204.953125 60.066406 C 206.695312 58.167969 208.054688 56.023438 209.027344 53.636719 C 209.996094 51.25 210.519531 48.765625 210.589844 46.1875 C 210.628906 45.578125 210.628906 44.964844 210.589844 44.355469 C 213.082031 46.402344 215.929688 47.609375 219.132812 47.976562 C 224.4375 48.632812 229.832031 47.457031 235.121094 47.441406 C 236.183594 47.332031 237.222656 47.433594 238.242188 47.753906 C 239.261719 48.070312 240.179688 48.578125 240.988281 49.277344 C 241.316406 49.695312 241.582031 50.148438 241.785156 50.640625 C 241.988281 51.132812 242.125 51.640625 242.1875 52.167969 C 242.253906 52.695312 242.25 53.222656 242.171875 53.746094 C 242.097656 54.273438 241.949219 54.78125 241.738281 55.265625 C 241.359375 56.410156 240.851562 57.488281 240.207031 58.507812 C 237.042969 63.835938 232.894531 68.242188 227.769531 71.726562 L 227.507812 71.910156 C 228.011719 72.152344 228.503906 72.414062 229.039062 72.6875 C 230.78125 73.652344 232.703125 75.074219 232.644531 77.058594 C 232.613281 77.523438 232.503906 77.964844 232.308594 78.390625 C 232.191406 78.613281 232.0625 78.832031 231.925781 79.046875 C 230.867188 79.527344 229.761719 79.847656 228.609375 80.007812 C 226.832031 80.199219 225.046875 80.292969 223.261719 80.285156 C 222.074219 80.285156 220.890625 80.371094 219.714844 80.542969 C 215.742188 81.1875 212.195312 83.25 208.558594 84.945312 C 206.453125 85.976562 204.253906 86.71875 201.957031 87.175781 C 201.898438 87.097656 201.851562 87.007812 201.820312 86.917969 C 201.207031 85.800781 200.550781 84.699219 199.910156 83.644531 C 198.109375 80.949219 196.855469 78.019531 196.148438 74.859375 C 195.8125 73.15625 195.914062 71.480469 196.453125 69.832031 Z M 196.453125 69.832031 " fill-opacity="1" fill-rule="nonzero"/></g><path fill="#e32526" d="M 210.820312 71.449219 C 215.496094 71.628906 220.082031 72.375 224.574219 73.683594 L 224.878906 73.804688 C 227.6875 74.761719 230.164062 76.261719 232.308594 78.3125 C 232.503906 77.890625 232.613281 77.445312 232.644531 76.984375 C 232.644531 74.996094 230.78125 73.574219 229.039062 72.613281 C 228.546875 72.335938 228.058594 72.078125 227.507812 71.832031 L 227.769531 71.648438 C 232.894531 68.164062 237.042969 63.757812 240.207031 58.429688 C 240.84375 57.4375 241.351562 56.382812 241.738281 55.265625 C 241.109375 55.832031 240.453125 56.351562 239.8125 56.792969 C 233.539062 61.457031 226.800781 65.296875 219.59375 68.316406 C 216.71875 69.464844 213.800781 70.550781 210.820312 71.449219 Z M 210.820312 71.449219 " fill-opacity="1" fill-rule="nonzero"/></g></g></g></g></g></g></g></svg>